<?xml version="1.0" encoding="UTF-8" standalone="no"?>
<!-- Created with Inkscape (http://www.inkscape.org/) -->

<svg
   version="1.1"
   id="svg1"
   width="2000"
   height="2000"
   viewBox="0 0 2000 2000"
   sodipodi:docname="logo_30.ai"
   inkscape:export-filename="../../projects/homepage_new/docs/projects/homepage_new/docs/projects/homepage_new/docs/projects/homepage_new/docs/projects/homepage_new/docs/projects/homepage_new/docs/portfolio/img/jpbw_cd_2.svg"
   inkscape:export-xdpi="96"
   inkscape:export-ydpi="96"
   xmlns:inkscape="http://www.inkscape.org/namespaces/inkscape"
   xmlns:sodipodi="http://sodipodi.sourceforge.net/DTD/sodipodi-0.dtd"
   xmlns="http://www.w3.org/2000/svg"
   xmlns:svg="http://www.w3.org/2000/svg">
  <defs
     id="defs1">
    <clipPath
       clipPathUnits="userSpaceOnUse"
       id="clipPath2">
      <path
         d="M 0,347.171 H 286.563 V 0 H 0 Z"
         transform="translate(-5.5132001,-187.1592)"
         id="path2" />
    </clipPath>
    <clipPath
       clipPathUnits="userSpaceOnUse"
       id="clipPath4">
      <path
         d="M 0,347.171 H 286.563 V 0 H 0 Z"
         transform="translate(-76.015599,-151.06541)"
         id="path4" />
    </clipPath>
    <clipPath
       clipPathUnits="userSpaceOnUse"
       id="clipPath6">
      <path
         d="M 0,347.171 H 286.563 V 0 H 0 Z"
         transform="translate(-14.1489,-344.37351)"
         id="path6" />
    </clipPath>
    <clipPath
       clipPathUnits="userSpaceOnUse"
       id="clipPath8">
      <path
         d="M 0,347.171 H 286.563 V 0 H 0 Z"
         transform="translate(-76.015599,-162.6758)"
         id="path8" />
    </clipPath>
    <clipPath
       clipPathUnits="userSpaceOnUse"
       id="clipPath10">
      <path
         d="M 0,347.171 H 286.563 V 0 H 0 Z"
         transform="translate(-41.937501,-245.47611)"
         id="path10" />
    </clipPath>
    <clipPath
       clipPathUnits="userSpaceOnUse"
       id="clipPath12">
      <path
         d="M 0,347.171 H 286.563 V 0 H 0 Z"
         transform="translate(-11.9277,-192.2285)"
         id="path12" />
    </clipPath>
    <clipPath
       clipPathUnits="userSpaceOnUse"
       id="clipPath13">
      <path
         d="M 5.51318,192.229 H 20.6997 V 181.886 H 5.51318 Z"
         transform="translate(-11.9277,-192.2285)"
         id="path13" />
    </clipPath>
    <clipPath
       clipPathUnits="userSpaceOnUse"
       id="clipPath15">
      <path
         d="M 0,347.171 H 286.563 V 0 H 0 Z"
         transform="matrix(1.3333333,0,0,-1.3333333,0,462.89467)"
         id="path15" />
    </clipPath>
    <clipPath
       clipPathUnits="userSpaceOnUse"
       id="clipPath17">
      <path
         d="M 0,347.171 H 286.563 V 0 H 0 Z"
         transform="translate(-93.558602,-156.584)"
         id="path17" />
    </clipPath>
    <clipPath
       clipPathUnits="userSpaceOnUse"
       id="clipPath18">
      <path
         d="M 76.0156,205.701 H 128.515 V 156.584 H 76.0156 Z"
         transform="translate(-93.558602,-156.584)"
         id="path18" />
    </clipPath>
    <clipPath
       clipPathUnits="userSpaceOnUse"
       id="clipPath20">
      <path
         d="M 0,347.171 H 286.563 V 0 H 0 Z"
         transform="matrix(1.3333333,0,0,-1.3333333,0,462.89467)"
         id="path20" />
    </clipPath>
    <clipPath
       clipPathUnits="userSpaceOnUse"
       id="clipPath22">
      <path
         d="M 0,347.171 H 286.563 V 0 H 0 Z"
         transform="translate(-76.024899,-173.3135)"
         id="path22" />
    </clipPath>
    <clipPath
       clipPathUnits="userSpaceOnUse"
       id="clipPath23">
      <path
         d="m 76.0176,173.313 h 0.0073 v -0.007 h -0.0073 z"
         transform="translate(-76.024899,-173.3135)"
         id="path23" />
    </clipPath>
    <clipPath
       clipPathUnits="userSpaceOnUse"
       id="clipPath25">
      <path
         d="M 0,347.171 H 286.563 V 0 H 0 Z"
         transform="matrix(1.3333333,0,0,-1.3333333,0,462.89467)"
         id="path25" />
    </clipPath>
    <clipPath
       clipPathUnits="userSpaceOnUse"
       id="clipPath27">
      <path
         d="M 0,347.171 H 286.563 V 0 H 0 Z"
         transform="translate(-76.015599,-162.6758)"
         id="path27" />
    </clipPath>
    <clipPath
       clipPathUnits="userSpaceOnUse"
       id="clipPath28">
      <path
         d="M 11.9277,193.488 H 76.0156 V 162.676 H 11.9277 Z"
         transform="translate(-76.015599,-162.6758)"
         id="path28" />
    </clipPath>
    <clipPath
       clipPathUnits="userSpaceOnUse"
       id="clipPath30">
      <path
         d="M 0,347.171 H 286.563 V 0 H 0 Z"
         transform="matrix(1.3333333,0,0,-1.3333333,0,462.89467)"
         id="path30" />
    </clipPath>
    <clipPath
       clipPathUnits="userSpaceOnUse"
       id="clipPath32">
      <path
         d="M 0,347.171 H 286.563 V 0 H 0 Z"
         transform="translate(-120.9229,-336.64011)"
         id="path32" />
    </clipPath>
    <clipPath
       clipPathUnits="userSpaceOnUse"
       id="clipPath33">
      <path
         d="m 105.951,344.374 h 14.972 v -28.732 h -14.972 z"
         transform="translate(-120.9229,-336.64011)"
         id="path33" />
    </clipPath>
    <clipPath
       clipPathUnits="userSpaceOnUse"
       id="clipPath35">
      <path
         d="M 0,347.171 H 286.563 V 0 H 0 Z"
         transform="matrix(1.3333333,0,0,-1.3333333,0,462.89467)"
         id="path35" />
    </clipPath>
    <clipPath
       clipPathUnits="userSpaceOnUse"
       id="clipPath37">
      <path
         d="M 0,347.171 H 286.563 V 0 H 0 Z"
         transform="translate(-76.017602,-265.22511)"
         id="path37" />
    </clipPath>
    <clipPath
       clipPathUnits="userSpaceOnUse"
       id="clipPath38">
      <path
         d="M 13.1777,344.374 H 106.036 V 257.806 H 13.1777 Z"
         transform="translate(-76.017602,-265.22511)"
         id="path38" />
    </clipPath>
    <clipPath
       clipPathUnits="userSpaceOnUse"
       id="clipPath40">
      <path
         d="M 0,347.171 H 286.563 V 0 H 0 Z"
         transform="matrix(1.3333333,0,0,-1.3333333,0,462.89467)"
         id="path40" />
    </clipPath>
    <clipPath
       clipPathUnits="userSpaceOnUse"
       id="clipPath42">
      <path
         d="M 0,347.171 H 286.563 V 0 H 0 Z"
         transform="translate(-119.7715,-259.11771)"
         id="path42" />
    </clipPath>
    <clipPath
       clipPathUnits="userSpaceOnUse"
       id="clipPath43">
      <path
         d="M 76.0176,265.224 H 130.669 V 234.417 H 76.0176 Z"
         transform="translate(-119.7715,-259.11771)"
         id="path43" />
    </clipPath>
    <clipPath
       clipPathUnits="userSpaceOnUse"
       id="clipPath45">
      <path
         d="M 0,347.171 H 286.563 V 0 H 0 Z"
         transform="matrix(1.3333333,0,0,-1.3333333,0,462.89467)"
         id="path45" />
    </clipPath>
    <clipPath
       clipPathUnits="userSpaceOnUse"
       id="clipPath47">
      <path
         d="M 0,347.171 H 286.563 V 0 H 0 Z"
         transform="translate(-76.017602,-265.22511)"
         id="path47" />
    </clipPath>
    <clipPath
       clipPathUnits="userSpaceOnUse"
       id="clipPath48">
      <path
         d="M 76.0176,265.225 H 76.02 v -0.001 h -0.0024 z"
         transform="translate(-76.017602,-265.22511)"
         id="path48" />
    </clipPath>
    <clipPath
       clipPathUnits="userSpaceOnUse"
       id="clipPath50">
      <path
         d="M 0,347.171 H 286.563 V 0 H 0 Z"
         transform="matrix(1.3333333,0,0,-1.3333333,0,462.89467)"
         id="path50" />
    </clipPath>
    <clipPath
       clipPathUnits="userSpaceOnUse"
       id="clipPath52">
      <path
         d="M 0,347.171 H 286.563 V 0 H 0 Z"
         transform="translate(-42.235401,-265.2261)"
         id="path52" />
    </clipPath>
    <clipPath
       clipPathUnits="userSpaceOnUse"
       id="clipPath53">
      <path
         d="M 34.5493,265.226 H 76.0156 V 242.248 H 34.5493 Z"
         transform="translate(-42.235401,-265.2261)"
         id="path53" />
    </clipPath>
    <clipPath
       clipPathUnits="userSpaceOnUse"
       id="clipPath55">
      <path
         d="M 0,347.171 H 286.563 V 0 H 0 Z"
         transform="matrix(1.3333333,0,0,-1.3333333,0,462.89467)"
         id="path55" />
    </clipPath>
    <clipPath
       clipPathUnits="userSpaceOnUse"
       id="clipPath57">
      <path
         d="M 0,347.171 H 286.563 V 0 H 0 Z"
         transform="translate(-76.017602,-265.22411)"
         id="path57" />
    </clipPath>
    <clipPath
       clipPathUnits="userSpaceOnUse"
       id="clipPath58">
      <path
         d="m 76.0176,273.35 h 37.9764 v -8.126 H 76.0176 Z"
         transform="translate(-76.017602,-265.22411)"
         id="path58" />
    </clipPath>
    <clipPath
       clipPathUnits="userSpaceOnUse"
       id="clipPath60">
      <path
         d="M 0,347.171 H 286.563 V 0 H 0 Z"
         transform="matrix(1.3333333,0,0,-1.3333333,0,462.89467)"
         id="path60" />
    </clipPath>
    <clipPath
       clipPathUnits="userSpaceOnUse"
       id="clipPath62">
      <path
         d="M 0,347.171 H 286.563 V 0 H 0 Z"
         transform="translate(-132.9331,-218.42141)"
         id="path62" />
    </clipPath>
    <clipPath
       clipPathUnits="userSpaceOnUse"
       id="clipPath63">
      <path
         d="m 108.986,234.508 h 23.947 v -41.586 h -23.947 z"
         transform="translate(-132.9331,-218.42141)"
         id="path63" />
    </clipPath>
    <clipPath
       clipPathUnits="userSpaceOnUse"
       id="clipPath65">
      <path
         d="M 0,347.171 H 286.563 V 0 H 0 Z"
         transform="matrix(1.3333333,0,0,-1.3333333,0,462.89467)"
         id="path65" />
    </clipPath>
    <clipPath
       clipPathUnits="userSpaceOnUse"
       id="clipPath66">
      <path
         d="m 108.986,234.508 h 23.947 v -41.586 h -23.947 z"
         transform="translate(-132.9331,-218.42141)"
         id="path66" />
    </clipPath>
    <clipPath
       clipPathUnits="userSpaceOnUse"
       id="clipPath68">
      <path
         d="M 0,347.171 H 286.563 V 0 H 0 Z"
         transform="matrix(1.3333333,0,0,-1.3333333,0,462.89467)"
         id="path68" />
    </clipPath>
    <clipPath
       clipPathUnits="userSpaceOnUse"
       id="clipPath70">
      <path
         d="M 0,347.171 H 286.563 V 0 H 0 Z"
         transform="translate(-130.66941,-237.20171)"
         id="path70" />
    </clipPath>
    <clipPath
       clipPathUnits="userSpaceOnUse"
       id="clipPath71">
      <path
         d="m 107.437,237.202 h 23.868 v -26.42 h -23.868 z"
         transform="translate(-130.66941,-237.20171)"
         id="path71" />
    </clipPath>
    <clipPath
       clipPathUnits="userSpaceOnUse"
       id="clipPath73">
      <path
         d="M 0,347.171 H 286.563 V 0 H 0 Z"
         transform="matrix(1.3333333,0,0,-1.3333333,0,462.89467)"
         id="path73" />
    </clipPath>
    <clipPath
       clipPathUnits="userSpaceOnUse"
       id="clipPath74">
      <path
         d="m 107.437,237.202 h 23.868 v -26.42 h -23.868 z"
         transform="translate(-130.66941,-237.20171)"
         id="path74" />
    </clipPath>
    <clipPath
       clipPathUnits="userSpaceOnUse"
       id="clipPath76">
      <path
         d="M 0,347.171 H 286.563 V 0 H 0 Z"
         transform="matrix(1.3333333,0,0,-1.3333333,0,462.89467)"
         id="path76" />
    </clipPath>
    <clipPath
       clipPathUnits="userSpaceOnUse"
       id="clipPath78">
      <path
         d="M 0,347.171 H 286.563 V 0 H 0 Z"
         transform="translate(-178.9033,-298.45071)"
         id="path78" />
    </clipPath>
    <clipPath
       clipPathUnits="userSpaceOnUse"
       id="clipPath80">
      <path
         d="M 0,347.171 H 286.563 V 0 H 0 Z"
         transform="translate(-190.6743,-302.25201)"
         id="path80" />
    </clipPath>
    <clipPath
       clipPathUnits="userSpaceOnUse"
       id="clipPath82">
      <path
         d="M 0,347.171 H 286.563 V 0 H 0 Z"
         transform="translate(-273.63481,-181.9883)"
         id="path82" />
    </clipPath>
    <clipPath
       clipPathUnits="userSpaceOnUse"
       id="clipPath84">
      <path
         d="M 0,347.171 H 286.563 V 0 H 0 Z"
         transform="translate(-263.0557,-265.20461)"
         id="path84" />
    </clipPath>
    <clipPath
       clipPathUnits="userSpaceOnUse"
       id="clipPath85">
      <path
         d="m 263.054,265.224 h 22.905 v -0.019 h -22.905 z"
         transform="translate(-263.0557,-265.20461)"
         id="path85" />
    </clipPath>
    <clipPath
       clipPathUnits="userSpaceOnUse"
       id="clipPath87">
      <path
         d="M 0,347.171 H 286.563 V 0 H 0 Z"
         transform="matrix(1.3333333,0,0,-1.3333333,0,462.89467)"
         id="path87" />
    </clipPath>
    <clipPath
       clipPathUnits="userSpaceOnUse"
       id="clipPath89">
      <path
         d="M 0,347.171 H 286.563 V 0 H 0 Z"
         transform="translate(-263.6953,-248.28081)"
         id="path89" />
    </clipPath>
    <clipPath
       clipPathUnits="userSpaceOnUse"
       id="clipPath90">
      <path
         d="m 262.112,265.209 h 24.222 v -42.587 h -24.222 z"
         transform="translate(-263.6953,-248.28081)"
         id="path90" />
    </clipPath>
    <clipPath
       clipPathUnits="userSpaceOnUse"
       id="clipPath92">
      <path
         d="M 0,347.171 H 286.563 V 0 H 0 Z"
         transform="matrix(1.3333333,0,0,-1.3333333,0,462.89467)"
         id="path92" />
    </clipPath>
    <clipPath
       clipPathUnits="userSpaceOnUse"
       id="clipPath94">
      <path
         d="M 0,347.171 H 286.563 V 0 H 0 Z"
         transform="translate(-257.48241,-201.8442)"
         id="path94" />
    </clipPath>
    <clipPath
       clipPathUnits="userSpaceOnUse"
       id="clipPath95">
      <path
         d="m 257.482,258.959 h 29.081 v -61.767 h -29.081 z"
         transform="translate(-257.48241,-201.8442)"
         id="path95" />
    </clipPath>
    <clipPath
       clipPathUnits="userSpaceOnUse"
       id="clipPath97">
      <path
         d="M 0,347.171 H 286.563 V 0 H 0 Z"
         transform="matrix(1.3333333,0,0,-1.3333333,0,462.89467)"
         id="path97" />
    </clipPath>
    <clipPath
       clipPathUnits="userSpaceOnUse"
       id="clipPath98">
      <path
         d="m 257.482,258.959 h 29.081 v -61.767 h -29.081 z"
         transform="translate(-257.48241,-201.8442)"
         id="path98" />
    </clipPath>
    <clipPath
       clipPathUnits="userSpaceOnUse"
       id="clipPath100">
      <path
         d="M 0,347.171 H 286.563 V 0 H 0 Z"
         transform="matrix(1.3333333,0,0,-1.3333333,0,462.89467)"
         id="path100" />
    </clipPath>
    <clipPath
       clipPathUnits="userSpaceOnUse"
       id="clipPath102">
      <path
         d="M 0,347.171 H 286.563 V 0 H 0 Z"
         transform="translate(-266.1865,-191.14451)"
         id="path102" />
    </clipPath>
    <clipPath
       clipPathUnits="userSpaceOnUse"
       id="clipPath103">
      <path
         d="m 261.267,213.54 h 22.502 v -22.395 h -22.502 z"
         transform="translate(-266.1865,-191.14451)"
         id="path103" />
    </clipPath>
    <clipPath
       clipPathUnits="userSpaceOnUse"
       id="clipPath105">
      <path
         d="M 0,347.171 H 286.563 V 0 H 0 Z"
         transform="matrix(1.3333333,0,0,-1.3333333,0,462.89467)"
         id="path105" />
    </clipPath>
    <clipPath
       clipPathUnits="userSpaceOnUse"
       id="clipPath107">
      <path
         d="M 0,347.171 H 286.563 V 0 H 0 Z"
         transform="translate(-169.4277,-310.10061)"
         id="path107" />
    </clipPath>
    <clipPath
       clipPathUnits="userSpaceOnUse"
       id="clipPath108">
      <path
         d="m 163.685,310.101 h 15.218 v -16.565 h -15.218 z"
         transform="translate(-169.4277,-310.10061)"
         id="path108" />
    </clipPath>
    <clipPath
       clipPathUnits="userSpaceOnUse"
       id="clipPath110">
      <path
         d="M 0,347.171 H 286.563 V 0 H 0 Z"
         transform="matrix(1.3333333,0,0,-1.3333333,0,462.89467)"
         id="path110" />
    </clipPath>
    <clipPath
       clipPathUnits="userSpaceOnUse"
       id="clipPath112">
      <path
         d="M 0,347.171 H 286.563 V 0 H 0 Z"
         transform="translate(-182.0874,-265.22411)"
         id="path112" />
    </clipPath>
    <clipPath
       clipPathUnits="userSpaceOnUse"
       id="clipPath113">
      <path
         d="m 159.178,265.224 h 22.909 v -0.014 h -22.909 z"
         transform="translate(-182.0874,-265.22411)"
         id="path113" />
    </clipPath>
    <clipPath
       clipPathUnits="userSpaceOnUse"
       id="clipPath115">
      <path
         d="M 0,347.171 H 286.563 V 0 H 0 Z"
         transform="matrix(1.3333333,0,0,-1.3333333,0,462.89467)"
         id="path115" />
    </clipPath>
    <clipPath
       clipPathUnits="userSpaceOnUse"
       id="clipPath117">
      <path
         d="M 0,347.171 H 286.563 V 0 H 0 Z"
         transform="translate(-222.56541,-170.6172)"
         id="path117" />
    </clipPath>
    <clipPath
       clipPathUnits="userSpaceOnUse"
       id="clipPath118">
      <path
         d="m 183.561,173.339 h 41.233 v -19.895 h -41.233 z"
         transform="translate(-222.56541,-170.6172)"
         id="path118" />
    </clipPath>
    <clipPath
       clipPathUnits="userSpaceOnUse"
       id="clipPath120">
      <path
         d="M 0,347.171 H 286.563 V 0 H 0 Z"
         transform="matrix(1.3333333,0,0,-1.3333333,0,462.89467)"
         id="path120" />
    </clipPath>
    <clipPath
       clipPathUnits="userSpaceOnUse"
       id="clipPath122">
      <path
         d="M 0,347.171 H 286.563 V 0 H 0 Z"
         transform="translate(-182.0859,-265.21041)"
         id="path122" />
    </clipPath>
    <clipPath
       clipPathUnits="userSpaceOnUse"
       id="clipPath123">
      <path
         d="m 158.567,265.216 h 23.519 v -23.17 h -23.519 z"
         transform="translate(-182.0859,-265.21041)"
         id="path123" />
    </clipPath>
    <clipPath
       clipPathUnits="userSpaceOnUse"
       id="clipPath125">
      <path
         d="M 0,347.171 H 286.563 V 0 H 0 Z"
         transform="matrix(1.3333333,0,0,-1.3333333,0,462.89467)"
         id="path125" />
    </clipPath>
    <clipPath
       clipPathUnits="userSpaceOnUse"
       id="clipPath127">
      <path
         d="M 0,347.171 H 286.563 V 0 H 0 Z"
         transform="translate(-186.1353,-289.55961)"
         id="path127" />
    </clipPath>
    <clipPath
       clipPathUnits="userSpaceOnUse"
       id="clipPath128">
      <path
         d="m 159.179,298.451 h 26.956 v -33.227 h -26.956 z"
         transform="translate(-186.1353,-289.55961)"
         id="path128" />
    </clipPath>
    <clipPath
       clipPathUnits="userSpaceOnUse"
       id="clipPath130">
      <path
         d="M 0,347.171 H 286.563 V 0 H 0 Z"
         transform="matrix(1.3333333,0,0,-1.3333333,0,462.89467)"
         id="path130" />
    </clipPath>
    <clipPath
       clipPathUnits="userSpaceOnUse"
       id="clipPath132">
      <path
         d="M 0,347.171 H 286.563 V 0 H 0 Z"
         transform="translate(-250.02931,-186.0693)"
         id="path132" />
    </clipPath>
    <clipPath
       clipPathUnits="userSpaceOnUse"
       id="clipPath133">
      <path
         d="m 201.05,191.145 h 72.585 v -41.59 H 201.05 Z"
         transform="translate(-250.02931,-186.0693)"
         id="path133" />
    </clipPath>
    <clipPath
       clipPathUnits="userSpaceOnUse"
       id="clipPath135">
      <path
         d="M 0,347.171 H 286.563 V 0 H 0 Z"
         transform="matrix(1.3333333,0,0,-1.3333333,0,462.89467)"
         id="path135" />
    </clipPath>
    <clipPath
       clipPathUnits="userSpaceOnUse"
       id="clipPath137">
      <path
         d="M 0,347.171 H 286.563 V 0 H 0 Z"
         transform="translate(-191.1421,-193.43951)"
         id="path137" />
    </clipPath>
    <clipPath
       clipPathUnits="userSpaceOnUse"
       id="clipPath138">
      <path
         d="m 158.652,263.5 h 50.851 v -98.311 h -50.851 z"
         transform="translate(-191.1421,-193.43951)"
         id="path138" />
    </clipPath>
    <clipPath
       clipPathUnits="userSpaceOnUse"
       id="clipPath140">
      <path
         d="M 0,347.171 H 286.563 V 0 H 0 Z"
         transform="matrix(1.3333333,0,0,-1.3333333,0,462.89467)"
         id="path140" />
    </clipPath>
    <clipPath
       clipPathUnits="userSpaceOnUse"
       id="clipPath141">
      <path
         d="m 158.652,263.5 h 50.851 v -98.311 h -50.851 z"
         transform="translate(-191.1421,-193.43951)"
         id="path141" />
    </clipPath>
    <clipPath
       clipPathUnits="userSpaceOnUse"
       id="clipPath143">
      <path
         d="M 0,347.171 H 286.563 V 0 H 0 Z"
         transform="matrix(1.3333333,0,0,-1.3333333,0,462.89467)"
         id="path143" />
    </clipPath>
    <clipPath
       clipPathUnits="userSpaceOnUse"
       id="clipPath145">
      <path
         d="M 0,347.171 H 286.563 V 0 H 0 Z"
         transform="translate(-253.04791,-191.2217)"
         id="path145" />
    </clipPath>
    <clipPath
       clipPathUnits="userSpaceOnUse"
       id="clipPath146">
      <path
         d="m 253.048,201.844 h 8.219 v -10.622 h -8.219 z"
         transform="translate(-253.04791,-191.2217)"
         id="path146" />
    </clipPath>
    <clipPath
       clipPathUnits="userSpaceOnUse"
       id="clipPath148">
      <path
         d="M 0,347.171 H 286.563 V 0 H 0 Z"
         transform="matrix(1.3333333,0,0,-1.3333333,0,462.89467)"
         id="path148" />
    </clipPath>
    <clipPath
       clipPathUnits="userSpaceOnUse"
       id="clipPath149">
      <path
         d="m 253.048,201.844 h 8.219 v -10.622 h -8.219 z"
         transform="translate(-253.04791,-191.2217)"
         id="path149" />
    </clipPath>
    <clipPath
       clipPathUnits="userSpaceOnUse"
       id="clipPath151">
      <path
         d="M 0,347.171 H 286.563 V 0 H 0 Z"
         transform="matrix(1.3333333,0,0,-1.3333333,0,462.89467)"
         id="path151" />
    </clipPath>
    <clipPath
       clipPathUnits="userSpaceOnUse"
       id="clipPath152">
      <path
         d="m 253.048,201.844 h 8.219 v -10.622 h -8.219 z"
         transform="translate(-253.04791,-191.2217)"
         id="path152" />
    </clipPath>
    <clipPath
       clipPathUnits="userSpaceOnUse"
       id="clipPath154">
      <path
         d="M 0,347.171 H 286.563 V 0 H 0 Z"
         transform="matrix(1.3333333,0,0,-1.3333333,0,462.89467)"
         id="path154" />
    </clipPath>
    <clipPath
       clipPathUnits="userSpaceOnUse"
       id="clipPath156">
      <path
         d="M 0,347.171 H 286.563 V 0 H 0 Z"
         transform="translate(-250.02931,-186.0693)"
         id="path156" />
    </clipPath>
    <clipPath
       clipPathUnits="userSpaceOnUse"
       id="clipPath157">
      <path
         d="m 250.029,197.192 h 16.158 v -11.123 h -16.158 z"
         transform="translate(-250.02931,-186.0693)"
         id="path157" />
    </clipPath>
    <clipPath
       clipPathUnits="userSpaceOnUse"
       id="clipPath159">
      <path
         d="M 0,347.171 H 286.563 V 0 H 0 Z"
         transform="matrix(1.3333333,0,0,-1.3333333,0,462.89467)"
         id="path159" />
    </clipPath>
    <clipPath
       clipPathUnits="userSpaceOnUse"
       id="clipPath160">
      <path
         d="m 250.029,197.192 h 16.158 v -11.123 h -16.158 z"
         transform="translate(-250.02931,-186.0693)"
         id="path160" />
    </clipPath>
    <clipPath
       clipPathUnits="userSpaceOnUse"
       id="clipPath162">
      <path
         d="M 0,347.171 H 286.563 V 0 H 0 Z"
         transform="matrix(1.3333333,0,0,-1.3333333,0,462.89467)"
         id="path162" />
    </clipPath>
    <clipPath
       clipPathUnits="userSpaceOnUse"
       id="clipPath164">
      <path
         d="M 0,347.171 H 286.563 V 0 H 0 Z"
         transform="translate(-222.56541,-326.10941)"
         id="path164" />
    </clipPath>
    <clipPath
       clipPathUnits="userSpaceOnUse"
       id="clipPath166">
      <path
         d="M 0,347.171 H 286.563 V 0 H 0 Z"
         transform="translate(-278.30371,-6.9434002)"
         id="path166" />
    </clipPath>
    <clipPath
       clipPathUnits="userSpaceOnUse"
       id="clipPath168">
      <path
         d="M 0,347.171 H 286.563 V 0 H 0 Z"
         transform="translate(-148.1758,-8.8964977)"
         id="path168" />
    </clipPath>
    <clipPath
       clipPathUnits="userSpaceOnUse"
       id="clipPath170">
      <path
         d="M 0,347.171 H 286.563 V 0 H 0 Z"
         transform="translate(-184.30761,-40.162101)"
         id="path170" />
    </clipPath>
    <clipPath
       clipPathUnits="userSpaceOnUse"
       id="clipPath172">
      <path
         d="M 0,347.171 H 286.563 V 0 H 0 Z"
         transform="translate(-133.459,-7.0762027)"
         id="path172" />
    </clipPath>
    <clipPath
       clipPathUnits="userSpaceOnUse"
       id="clipPath174">
      <path
         d="M 0,347.171 H 286.563 V 0 H 0 Z"
         transform="translate(-154.81641,-15.1934)"
         id="path174" />
    </clipPath>
    <clipPath
       clipPathUnits="userSpaceOnUse"
       id="clipPath176">
      <path
         d="M 0,347.171 H 286.563 V 0 H 0 Z"
         transform="translate(-113.97951,-1.8340025)"
         id="path176" />
    </clipPath>
    <clipPath
       clipPathUnits="userSpaceOnUse"
       id="clipPath178">
      <path
         d="M 0,347.171 H 286.563 V 0 H 0 Z"
         id="path178" />
    </clipPath>
    <clipPath
       clipPathUnits="userSpaceOnUse"
       id="clipPath180">
      <path
         d="M 0,347.171 H 286.563 V 0 H 0 Z"
         transform="translate(-97.1143,-51.578099)"
         id="path180" />
    </clipPath>
    <clipPath
       clipPathUnits="userSpaceOnUse"
       id="clipPath182">
      <path
         d="M 0,347.171 H 286.563 V 0 H 0 Z"
         transform="translate(-134.9365,-29.531301)"
         id="path182" />
    </clipPath>
    <clipPath
       clipPathUnits="userSpaceOnUse"
       id="clipPath184">
      <path
         d="M 0,347.171 H 286.563 V 0 H 0 Z"
         id="path184" />
    </clipPath>
    <clipPath
       clipPathUnits="userSpaceOnUse"
       id="clipPath186">
      <path
         d="M 0,347.171 H 286.563 V 0 H 0 Z"
         transform="translate(-213.2158,-49.783199)"
         id="path186" />
    </clipPath>
    <clipPath
       clipPathUnits="userSpaceOnUse"
       id="clipPath188">
      <path
         d="M 0,347.171 H 286.563 V 0 H 0 Z"
         transform="translate(-261.58791,-8.8964977)"
         id="path188" />
    </clipPath>
    <clipPath
       clipPathUnits="userSpaceOnUse"
       id="clipPath190">
      <path
         d="M 0,347.171 H 286.563 V 0 H 0 Z"
         transform="translate(-257.92191,-28.578103)"
         id="path190" />
    </clipPath>
    <clipPath
       clipPathUnits="userSpaceOnUse"
       id="clipPath192">
      <path
         d="M 0,347.171 H 286.563 V 0 H 0 Z"
         transform="translate(-237.86431,-8.0741977)"
         id="path192" />
    </clipPath>
    <clipPath
       clipPathUnits="userSpaceOnUse"
       id="clipPath194">
      <path
         d="M 0,347.171 H 286.563 V 0 H 0 Z"
         transform="translate(-282.98241,-49.783199)"
         id="path194" />
    </clipPath>
    <clipPath
       clipPathUnits="userSpaceOnUse"
       id="clipPath196">
      <path
         d="M 0,347.171 H 286.563 V 0 H 0 Z"
         transform="translate(-226.873,-1.4668025)"
         id="path196" />
    </clipPath>
    <clipPath
       clipPathUnits="userSpaceOnUse"
       id="clipPath198">
      <path
         d="M 0,347.171 H 286.563 V 0 H 0 Z"
         transform="translate(-208.69041,-1.7617025)"
         id="path198" />
    </clipPath>
    <clipPath
       clipPathUnits="userSpaceOnUse"
       id="clipPath200">
      <path
         d="M 0,347.171 H 286.563 V 0 H 0 Z"
         transform="translate(-163.2607,-47.316404)"
         id="path200" />
    </clipPath>
    <clipPath
       clipPathUnits="userSpaceOnUse"
       id="clipPath202">
      <path
         d="M 0,347.171 H 286.563 V 0 H 0 Z"
         transform="translate(-236.7295,-36.091798)"
         id="path202" />
    </clipPath>
    <clipPath
       clipPathUnits="userSpaceOnUse"
       id="clipPath204">
      <path
         d="M 0,347.171 H 286.563 V 0 H 0 Z"
         transform="translate(-186.417,-8.0741977)"
         id="path204" />
    </clipPath>
    <clipPath
       clipPathUnits="userSpaceOnUse"
       id="clipPath206">
      <path
         d="M 0,347.171 H 286.563 V 0 H 0 Z"
         transform="translate(-169.31841,-15.1934)"
         id="path206" />
    </clipPath>
    <clipPath
       clipPathUnits="userSpaceOnUse"
       id="clipPath208">
      <path
         d="M 0,347.171 H 286.563 V 0 H 0 Z"
         transform="translate(-53.831101,-8.0741977)"
         id="path208" />
    </clipPath>
    <clipPath
       clipPathUnits="userSpaceOnUse"
       id="clipPath210">
      <path
         d="M 0,347.171 H 286.563 V 0 H 0 Z"
         transform="translate(-47.647901,-8.4551002)"
         id="path210" />
    </clipPath>
    <clipPath
       clipPathUnits="userSpaceOnUse"
       id="clipPath212">
      <path
         d="M 0,347.171 H 286.563 V 0 H 0 Z"
         transform="translate(-6.2441002,-27.029301)"
         id="path212" />
    </clipPath>
    <clipPath
       clipPathUnits="userSpaceOnUse"
       id="clipPath214">
      <path
         d="M 0,347.171 H 286.563 V 0 H 0 Z"
         transform="translate(-21.436,-6.3848002)"
         id="path214" />
    </clipPath>
    <clipPath
       clipPathUnits="userSpaceOnUse"
       id="clipPath216">
      <path
         d="M 0,347.171 H 286.563 V 0 H 0 Z"
         transform="translate(-21.763201,-51.578099)"
         id="path216" />
    </clipPath>
    <clipPath
       clipPathUnits="userSpaceOnUse"
       id="clipPath218">
      <path
         d="M 0,347.171 H 286.563 V 0 H 0 Z"
         transform="translate(-9.8794,-1.4668025)"
         id="path218" />
    </clipPath>
    <clipPath
       clipPathUnits="userSpaceOnUse"
       id="clipPath220">
      <path
         d="M 0,347.171 H 286.563 V 0 H 0 Z"
         transform="translate(-91.216802,-49.783199)"
         id="path220" />
    </clipPath>
    <clipPath
       clipPathUnits="userSpaceOnUse"
       id="clipPath222">
      <path
         d="M 0,347.171 H 286.563 V 0 H 0 Z"
         transform="translate(-68.296901,-38.972698)"
         id="path222" />
    </clipPath>
    <clipPath
       clipPathUnits="userSpaceOnUse"
       id="clipPath224">
      <path
         d="M 0,347.171 H 286.563 V 0 H 0 Z"
         id="path224" />
    </clipPath>
    <clipPath
       clipPathUnits="userSpaceOnUse"
       id="clipPath226">
      <path
         d="M 0,347.171 H 286.563 V 0 H 0 Z"
         transform="translate(-80.088902,-1.7168)"
         id="path226" />
    </clipPath>
    <clipPath
       clipPathUnits="userSpaceOnUse"
       id="clipPath228">
      <path
         d="M 0,347.171 H 286.563 V 0 H 0 Z"
         transform="translate(-112.41891,-127.4082)"
         id="path228" />
    </clipPath>
    <clipPath
       clipPathUnits="userSpaceOnUse"
       id="clipPath230">
      <path
         d="M 0,347.171 H 286.563 V 0 H 0 Z"
         transform="translate(-32.022901,-83.8926)"
         id="path230" />
    </clipPath>
    <clipPath
       clipPathUnits="userSpaceOnUse"
       id="clipPath232">
      <path
         d="M 0,347.171 H 286.563 V 0 H 0 Z"
         transform="translate(-210.62991,-98.339805)"
         id="path232" />
    </clipPath>
    <clipPath
       clipPathUnits="userSpaceOnUse"
       id="clipPath234">
      <path
         d="M 0,347.171 H 286.563 V 0 H 0 Z"
         transform="translate(-76.015599,-117.8135)"
         id="path234" />
    </clipPath>
    <clipPath
       clipPathUnits="userSpaceOnUse"
       id="clipPath236">
      <path
         d="M 0,347.171 H 286.563 V 0 H 0 Z"
         transform="translate(-240.60741,-109.1201)"
         id="path236" />
    </clipPath>
  </defs>
  <sodipodi:namedview
     id="namedview1"
     pagecolor="#ffffff"
     bordercolor="#000000"
     borderopacity="0.25"
     inkscape:showpageshadow="2"
     inkscape:pageopacity="0.0"
     inkscape:pagecheckerboard="0"
     inkscape:deskcolor="#d1d1d1">
    <inkscape:page
       x="0"
       y="0"
       inkscape:label="1"
       id="page1"
       width="2000"
       height="2000"
       margin="0"
       bleed="0" />
  </sodipodi:namedview>
  <g
     inkscape:groupmode="layer"
     id="layer1"
     inkscape:label="Ebene 3">
    <rect
       style="fill:#ffffff;stroke-width:3.09396"
       id="rect236"
       width="2000"
       height="2000"
       x="0"
       y="0" />
  </g>
  <g
     id="layer-MC0"
     inkscape:groupmode="layer"
     inkscape:label="Ebene 1">
    <path
       id="path1"
       d="m 0,0 c -2.873,-2.841 -4.718,-5.413 -5.513,-7.708 12.606,-16.601 28.41,-26.28 47.407,-29.055 l -26.707,31.49 z"
       style="fill:#c3c3c2;fill-opacity:1;fill-rule:evenodd;stroke:none"
       transform="matrix(4.8484847,0,0,-4.8484847,302.22135,940.54)"
       clip-path="url(#clipPath2)" />
    <path
       id="path3"
       d="M 0,0 C 6.22,1.162 12.068,3 17.543,5.519 L 0,11.61 Z"
       style="fill:#c3c3c2;fill-opacity:1;fill-rule:evenodd;stroke:none"
       transform="matrix(4.8484847,0,0,-4.8484847,644.05116,1115.5402)"
       clip-path="url(#clipPath4)" />
    <path
       id="path5"
       d="m 0,0 c -1.427,-2.962 -2.139,-6.527 -2.139,-10.695 0,-3.72 0.391,-6.899 1.168,-9.545 L 13.542,0 Z"
       style="fill:#883da2;fill-opacity:1;fill-rule:evenodd;stroke:none"
       transform="matrix(4.8484847,0,0,-4.8484847,344.09142,178.28882)"
       clip-path="url(#clipPath6)" />
    <path
       id="path7"
       d="m 0,0 -55.316,19.21 26.708,-31.489 c 3.812,-0.557 7.75,-0.842 11.82,-0.842 5.872,0 11.462,0.516 16.788,1.511 z"
       style="fill:#ef3e4a;fill-opacity:1;fill-rule:evenodd;stroke:none"
       transform="matrix(4.8484847,0,0,-4.8484847,644.05116,1059.2474)"
       clip-path="url(#clipPath8)" />
    <path
       id="path9"
       d="m 0,0 c 3.391,-2.409 6.565,-3.612 9.522,-3.612 0.655,0 1.203,0.108 1.64,0.329 l 0.04,0.055 L -7.336,8.903 C -6.116,5.563 -3.674,2.594 0,0"
       style="fill:#ef3e4a;fill-opacity:1;fill-rule:evenodd;stroke:none"
       transform="matrix(4.8484847,0,0,-4.8484847,478.82404,657.79138)"
       clip-path="url(#clipPath10)" />
    <path
       id="path11"
       d="m 0,0 c -1.675,-0.907 -3.509,-2.296 -5.511,-4.191 -0.316,-0.296 -0.61,-0.587 -0.904,-0.878 l 15.187,-5.274 z"
       style="fill:#c3c3c2;fill-opacity:1;fill-rule:evenodd;stroke:none"
       transform="matrix(4.8484847,0,0,-4.8484847,333.32196,915.96156)"
       clip-path="url(#clipPath12)" />
    <g
       opacity="0.139999"
       id="g14"
       clip-path="url(#clipPath15)"
       transform="matrix(3.6363636,0,0,3.6363636,275.49069,164.72519)">
      <path
         d="m 0,0 c -1.675,-0.907 -3.509,-2.296 -5.511,-4.191 -0.316,-0.296 -0.61,-0.587 -0.904,-0.878 l 15.187,-5.274 z"
         style="fill:#040606;fill-opacity:1;fill-rule:nonzero;stroke:none"
         transform="matrix(1.3333333,0,0,-1.3333333,15.9036,206.59)"
         clip-path="url(#clipPath13)"
         id="path14" />
    </g>
    <path
       id="path16"
       d="m 0,0 c 6.651,3.059 12.762,7.103 18.316,12.164 7.621,6.946 13.156,15.01 16.64,24.174 L 15.428,49.117 C 13.515,41.007 9.391,33.964 3.039,27.993 -2.904,22.408 -9.766,18.662 -17.534,16.729 l -0.007,-0.007 v 0.006 h -0.002 V 6.092 Z"
       style="fill:#c3c3c2;fill-opacity:1;fill-rule:evenodd;stroke:none"
       transform="matrix(4.8484847,0,0,-4.8484847,729.10815,1088.7834)"
       clip-path="url(#clipPath17)" />
    <g
       opacity="0.139999"
       id="g19"
       clip-path="url(#clipPath20)"
       transform="matrix(3.6363636,0,0,3.6363636,275.49069,164.72519)">
      <path
         d="m 0,0 c 6.651,3.059 12.762,7.103 18.316,12.164 7.621,6.946 13.156,15.01 16.64,24.174 L 15.428,49.117 C 13.515,41.007 9.391,33.964 3.039,27.993 -2.904,22.408 -9.766,18.662 -17.534,16.729 l -0.007,-0.007 v 0.006 h -0.002 V 6.092 Z"
         style="fill:#040606;fill-opacity:1;fill-rule:nonzero;stroke:none"
         transform="matrix(1.3333333,0,0,-1.3333333,124.7448,254.116)"
         clip-path="url(#clipPath18)"
         id="path19" />
    </g>
    <path
       id="path21"
       d="M 0,0 C -0.002,0 -0.005,-0.001 -0.007,-0.002 V -0.008 Z"
       style="fill:#51ade5;fill-opacity:1;fill-rule:evenodd;stroke:none"
       transform="matrix(4.8484847,0,0,-4.8484847,644.09625,1007.6707)"
       clip-path="url(#clipPath22)" />
    <g
       opacity="0.139999"
       id="g24"
       clip-path="url(#clipPath25)"
       transform="matrix(3.6363636,0,0,3.6363636,275.49069,164.72519)">
      <path
         d="M 0,0 C -0.002,0 -0.005,-0.001 -0.007,-0.002 V -0.008 Z"
         style="fill:#040606;fill-opacity:1;fill-rule:nonzero;stroke:none"
         transform="matrix(1.3333333,0,0,-1.3333333,101.36653,231.81)"
         clip-path="url(#clipPath23)"
         id="path24" />
    </g>
    <path
       id="path26"
       d="M 0,0 V 10.636 C -4.108,9.614 -8.465,9.092 -13.083,9.092 c -17.738,0 -32.902,7.183 -45.493,21.556 l -1.317,0.164 c -1.259,0 -2.66,-0.428 -4.195,-1.259 l 8.772,-10.343 z"
       style="fill:#ef3e4a;fill-opacity:1;fill-rule:evenodd;stroke:none"
       transform="matrix(4.8484847,0,0,-4.8484847,644.05116,1059.2474)"
       clip-path="url(#clipPath27)" />
    <g
       opacity="0.139999"
       id="g29"
       clip-path="url(#clipPath30)"
       transform="matrix(3.6363636,0,0,3.6363636,275.49069,164.72519)">
      <path
         d="M 0,0 V 10.636 C -4.108,9.614 -8.465,9.092 -13.083,9.092 c -17.738,0 -32.902,7.183 -45.493,21.556 l -1.317,0.164 c -1.259,0 -2.66,-0.428 -4.195,-1.259 l 8.772,-10.343 z"
         style="fill:#040606;fill-opacity:1;fill-rule:nonzero;stroke:none"
         transform="matrix(1.3333333,0,0,-1.3333333,101.35413,245.9936)"
         clip-path="url(#clipPath28)"
         id="path29" />
    </g>
    <path
       id="path31"
       d="m 0,0 -3.784,7.733 h -11.103 l -0.085,-28.732 z"
       style="fill:#c3c3c2;fill-opacity:1;fill-rule:evenodd;stroke:none"
       transform="matrix(4.8484847,0,0,-4.8484847,861.78353,215.78409)"
       clip-path="url(#clipPath32)" />
    <g
       opacity="0.139999"
       id="g34"
       clip-path="url(#clipPath35)"
       transform="matrix(3.6363636,0,0,3.6363636,275.49069,164.72519)">
      <path
         d="m 0,0 -3.784,7.733 h -11.103 l -0.085,-28.732 z"
         style="fill:#ffffff;fill-opacity:1;fill-rule:nonzero;stroke:none"
         transform="matrix(1.3333333,0,0,-1.3333333,161.23053,14.0412)"
         clip-path="url(#clipPath33)"
         id="path34" />
    </g>
    <path
       id="path36"
       d="M 0,0 H 0.002 L 25.16,8.125 c -6.599,2.801 -14.049,4.219 -22.372,4.219 l 27.146,38.073 0.085,28.731 H -48.326 L -62.84,58.909 c 0.277,-0.945 0.601,-1.825 0.977,-2.632 H 6.572 L -33.782,0.001 h 33.78 v -7.42 H 0 v 7.418 z"
       style="fill:#883da2;fill-opacity:1;fill-rule:evenodd;stroke:none"
       transform="matrix(4.8484847,0,0,-4.8484847,644.06087,562.03865)"
       clip-path="url(#clipPath37)" />
    <g
       opacity="0.139999"
       id="g39"
       clip-path="url(#clipPath40)"
       transform="matrix(3.6363636,0,0,3.6363636,275.49069,164.72519)">
      <path
         d="M 0,0 H 0.002 L 25.16,8.125 c -6.599,2.801 -14.049,4.219 -22.372,4.219 l 27.146,38.073 0.085,28.731 H -48.326 L -62.84,58.909 c 0.277,-0.945 0.601,-1.825 0.977,-2.632 H 6.572 L -33.782,0.001 h 33.78 v -7.42 H 0 v 7.418 z"
         style="fill:#ffffff;fill-opacity:1;fill-rule:nonzero;stroke:none"
         transform="matrix(1.3333333,0,0,-1.3333333,101.3568,109.2612)"
         clip-path="url(#clipPath38)"
         id="path39" />
    </g>
    <path
       id="path41"
       d="m 0,0 c -1.799,2.242 -3.727,4.273 -5.777,6.106 h -37.977 v -7.418 c 11.556,-0.192 20.445,-4.778 26.659,-13.777 1.976,-2.966 3.559,-6.172 4.76,-9.611 l 23.233,2.784 C 8.77,-13.688 5.145,-6.378 0,0"
       style="fill:#51ade5;fill-opacity:1;fill-rule:evenodd;stroke:none"
       transform="matrix(4.8484847,0,0,-4.8484847,856.20098,591.65029)"
       clip-path="url(#clipPath42)" />
    <g
       opacity="0.139999"
       id="g44"
       clip-path="url(#clipPath45)"
       transform="matrix(3.6363636,0,0,3.6363636,275.49069,164.72519)">
      <path
         d="m 0,0 c -1.799,2.242 -3.727,4.273 -5.777,6.106 h -37.977 v -7.418 c 11.556,-0.192 20.445,-4.778 26.659,-13.777 1.976,-2.966 3.559,-6.172 4.76,-9.611 l 23.233,2.784 C 8.77,-13.688 5.145,-6.378 0,0"
         style="fill:#ffffff;fill-opacity:1;fill-rule:nonzero;stroke:none"
         transform="matrix(1.3333333,0,0,-1.3333333,159.69533,117.4044)"
         clip-path="url(#clipPath43)"
         id="path44" />
    </g>
    <path
       id="path46"
       d="M 0,0 V -0.001 L 0.002,0 Z"
       style="fill:#51ade5;fill-opacity:1;fill-rule:evenodd;stroke:none"
       transform="matrix(4.8484847,0,0,-4.8484847,644.06087,562.03865)"
       clip-path="url(#clipPath47)" />
    <g
       opacity="0.139999"
       id="g49"
       clip-path="url(#clipPath50)"
       transform="matrix(3.6363636,0,0,3.6363636,275.49069,164.72519)">
      <path
         d="M 0,0 V -0.001 L 0.002,0 Z"
         style="fill:#ffffff;fill-opacity:1;fill-rule:nonzero;stroke:none"
         transform="matrix(1.3333333,0,0,-1.3333333,101.3568,109.2612)"
         clip-path="url(#clipPath48)"
         id="path49" />
    </g>
    <path
       id="path51"
       d="m 0,0 -7.686,-10.718 c 0.016,-0.044 0.037,-0.086 0.052,-0.129 l 18.538,-12.131 8.333,11.506 c 2.516,2.713 7.113,4.07 13.791,4.07 0.254,0 0.5,-0.014 0.752,-0.018 V 0 Z"
       style="fill:#ef3e4a;fill-opacity:1;fill-rule:evenodd;stroke:none"
       transform="matrix(4.8484847,0,0,-4.8484847,480.2684,562.03382)"
       clip-path="url(#clipPath52)" />
    <g
       opacity="0.139999"
       id="g54"
       clip-path="url(#clipPath55)"
       transform="matrix(3.6363636,0,0,3.6363636,275.49069,164.72519)">
      <path
         d="m 0,0 -7.686,-10.718 c 0.016,-0.044 0.037,-0.086 0.052,-0.129 l 18.538,-12.131 8.333,11.506 c 2.516,2.713 7.113,4.07 13.791,4.07 0.254,0 0.5,-0.014 0.752,-0.018 V 0 Z"
         style="fill:#ffffff;fill-opacity:1;fill-rule:nonzero;stroke:none"
         transform="matrix(1.3333333,0,0,-1.3333333,56.313867,109.25987)"
         clip-path="url(#clipPath53)"
         id="path54" />
    </g>
    <path
       id="path56"
       d="M 0,0 H 37.977 C 34.145,3.425 29.869,6.126 25.16,8.125 L 0.002,0.001 Z"
       style="fill:#369a5d;fill-opacity:1;fill-rule:evenodd;stroke:none"
       transform="matrix(4.8484847,0,0,-4.8484847,644.06087,562.04349)"
       clip-path="url(#clipPath57)" />
    <g
       opacity="0.139999"
       id="g59"
       clip-path="url(#clipPath60)"
       transform="matrix(3.6363636,0,0,3.6363636,275.49069,164.72519)">
      <path
         d="M 0,0 H 37.977 C 34.145,3.425 29.869,6.126 25.16,8.125 L 0.002,0.001 Z"
         style="fill:#ffffff;fill-opacity:1;fill-rule:nonzero;stroke:none"
         transform="matrix(1.3333333,0,0,-1.3333333,101.3568,109.26253)"
         clip-path="url(#clipPath58)"
         id="path59" />
    </g>
    <path
       id="path61"
       d="M 0,0 C 0,5.695 -0.551,11.052 -1.628,16.087 L -23.062,-7.64 c -0.205,-1.736 -0.497,-3.432 -0.885,-5.08 L -4.418,-25.5 C -1.485,-17.783 0,-9.29 0,0"
       style="fill:#c3c3c2;fill-opacity:1;fill-rule:evenodd;stroke:none"
       transform="matrix(4.8484847,0,0,-4.8484847,920.0148,788.96567)"
       clip-path="url(#clipPath62)" />
    <g
       opacity="0.139999"
       id="g64"
       clip-path="url(#clipPath65)"
       transform="matrix(3.6363636,0,0,3.6363636,275.49069,164.72519)">
      <path
         d="M 0,0 C 0,5.695 -0.551,11.052 -1.628,16.087 L -23.062,-7.64 c -0.205,-1.736 -0.497,-3.432 -0.885,-5.08 L -4.418,-25.5 C -1.485,-17.783 0,-9.29 0,0"
         style="fill:#040606;fill-opacity:1;fill-rule:nonzero;stroke:none"
         transform="matrix(1.3333333,0,0,-1.3333333,177.24413,171.66613)"
         clip-path="url(#clipPath63)"
         id="path64" />
    </g>
    <g
       opacity="0.139999"
       id="g67"
       clip-path="url(#clipPath68)"
       transform="matrix(3.6363636,0,0,3.6363636,275.49069,164.72519)">
      <path
         d="M 0,0 C 0,5.695 -0.551,11.052 -1.628,16.087 L -23.062,-7.64 c -0.205,-1.736 -0.497,-3.432 -0.885,-5.08 L -4.418,-25.5 C -1.485,-17.783 0,-9.29 0,0"
         style="fill:#ffffff;fill-opacity:1;fill-rule:nonzero;stroke:none"
         transform="matrix(1.3333333,0,0,-1.3333333,177.24413,171.66613)"
         clip-path="url(#clipPath66)"
         id="path67" />
    </g>
    <path
       id="path69"
       d="m 0,0 -23.233,-2.784 c 1.858,-5.32 2.793,-11.2 2.793,-17.649 0,-2.053 -0.128,-4.045 -0.358,-5.987 L 0.636,-2.693 C 0.441,-1.785 0.229,-0.887 0,0"
       style="fill:#51ade5;fill-opacity:1;fill-rule:evenodd;stroke:none"
       transform="matrix(4.8484847,0,0,-4.8484847,909.03931,697.90967)"
       clip-path="url(#clipPath70)" />
    <g
       opacity="0.139999"
       id="g72"
       clip-path="url(#clipPath73)"
       transform="matrix(3.6363636,0,0,3.6363636,275.49069,164.72519)">
      <path
         d="m 0,0 -23.233,-2.784 c 1.858,-5.32 2.793,-11.2 2.793,-17.649 0,-2.053 -0.128,-4.045 -0.358,-5.987 L 0.636,-2.693 C 0.441,-1.785 0.229,-0.887 0,0"
         style="fill:#040606;fill-opacity:1;fill-rule:nonzero;stroke:none"
         transform="matrix(1.3333333,0,0,-1.3333333,174.22587,146.62573)"
         clip-path="url(#clipPath71)"
         id="path72" />
    </g>
    <g
       opacity="0.139999"
       id="g75"
       clip-path="url(#clipPath76)"
       transform="matrix(3.6363636,0,0,3.6363636,275.49069,164.72519)">
      <path
         d="m 0,0 -23.233,-2.784 c 1.858,-5.32 2.793,-11.2 2.793,-17.649 0,-2.053 -0.128,-4.045 -0.358,-5.987 L 0.636,-2.693 C 0.441,-1.785 0.229,-0.887 0,0"
         style="fill:#ffffff;fill-opacity:1;fill-rule:nonzero;stroke:none"
         transform="matrix(1.3333333,0,0,-1.3333333,174.22587,146.62573)"
         clip-path="url(#clipPath74)"
         id="path75" />
    </g>
    <path
       id="path77"
       d="m 0,0 11.771,3.801 c 0.157,0.344 0.307,0.698 0.468,1.035 6.12,13.063 14.715,20.501 25.768,22.349 L 33.755,47.951 C 17.083,45.356 4.033,35.978 -5.365,19.761 -6.85,17.198 -8.211,14.482 -9.476,11.65 Z"
       style="fill:#c3c3c2;fill-opacity:1;fill-rule:evenodd;stroke:none"
       transform="matrix(4.8484847,0,0,-4.8484847,1142.9006,400.94484)"
       clip-path="url(#clipPath78)" />
    <path
       id="path79"
       d="m 0,0 -11.771,-3.801 7.232,-8.891 C -3.281,-8.087 -1.764,-3.861 0,0"
       style="fill:#369a5d;fill-opacity:1;fill-rule:evenodd;stroke:none"
       transform="matrix(4.8484847,0,0,-4.8484847,1199.9721,382.51429)"
       clip-path="url(#clipPath80)" />
    <path
       id="path81"
       d="M 0,0 C 2.096,4.094 3.928,8.511 5.514,13.228 L -7.448,9.156 Z"
       style="fill:#6f4fab;fill-opacity:1;fill-rule:evenodd;stroke:none"
       transform="matrix(4.8484847,0,0,-4.8484847,1602.2049,965.61102)"
       clip-path="url(#clipPath82)" />
    <path
       id="path83"
       d="m 0,0 22.903,0.004 c 0,0.005 0,0.011 -10e-4,0.016 H -0.002 C -0.001,0.013 -0.001,0.006 0,0"
       style="fill:#c3c3c2;fill-opacity:1;fill-rule:evenodd;stroke:none"
       transform="matrix(4.8484847,0,0,-4.8484847,1550.9123,562.13804)"
       clip-path="url(#clipPath84)" />
    <g
       opacity="0.139999"
       id="g86"
       clip-path="url(#clipPath87)"
       transform="matrix(3.6363636,0,0,3.6363636,275.49069,164.72519)">
      <path
         d="m 0,0 22.903,0.004 c 0,0.005 0,0.011 -10e-4,0.016 H -0.002 C -0.001,0.013 -0.001,0.006 0,0"
         style="fill:#040606;fill-opacity:1;fill-rule:nonzero;stroke:none"
         transform="matrix(1.3333333,0,0,-1.3333333,350.74093,109.28853)"
         clip-path="url(#clipPath85)"
         id="path86" />
    </g>
    <path
       id="path88"
       d="m 0,0 c 0,-9.334 -0.534,-17.877 -1.583,-25.659 l 24.222,36.337 c -0.094,2.122 -0.224,4.198 -0.375,6.25 L -0.64,16.924 C -0.216,11.598 0,5.96 0,0"
       style="fill:#4e60a0;fill-opacity:1;fill-rule:evenodd;stroke:none"
       transform="matrix(4.8484847,0,0,-4.8484847,1554.0133,644.19284)"
       clip-path="url(#clipPath89)" />
    <g
       opacity="0.139999"
       id="g91"
       clip-path="url(#clipPath92)"
       transform="matrix(3.6363636,0,0,3.6363636,275.49069,164.72519)">
      <path
         d="m 0,0 c 0,-9.334 -0.534,-17.877 -1.583,-25.659 l 24.222,36.337 c -0.094,2.122 -0.224,4.198 -0.375,6.25 L -0.64,16.924 C -0.216,11.598 0,5.96 0,0"
         style="fill:#040606;fill-opacity:1;fill-rule:nonzero;stroke:none"
         transform="matrix(1.3333333,0,0,-1.3333333,351.59373,131.8536)"
         clip-path="url(#clipPath90)"
         id="path91" />
    </g>
    <path
       id="path93"
       d="m 0,0 3.784,-4.652 22.502,16.348 c 1.861,10.444 2.795,22.021 2.795,34.741 0,3.653 -0.077,7.212 -0.229,10.678 L 4.63,20.778 C 3.595,13.099 2.056,6.167 0,0"
       style="fill:#4e60a0;fill-opacity:1;fill-rule:evenodd;stroke:none"
       transform="matrix(4.8484847,0,0,-4.8484847,1523.8902,869.34)"
       clip-path="url(#clipPath94)" />
    <g
       opacity="0.139999"
       id="g96"
       clip-path="url(#clipPath97)"
       transform="matrix(3.6363636,0,0,3.6363636,275.49069,164.72519)">
      <path
         d="m 0,0 3.784,-4.652 22.502,16.348 c 1.861,10.444 2.795,22.021 2.795,34.741 0,3.653 -0.077,7.212 -0.229,10.678 L 4.63,20.778 C 3.595,13.099 2.056,6.167 0,0"
         style="fill:#ffffff;fill-opacity:1;fill-rule:nonzero;stroke:none"
         transform="matrix(1.3333333,0,0,-1.3333333,343.30987,193.76907)"
         clip-path="url(#clipPath95)"
         id="path96" />
    </g>
    <g
       opacity="0.139999"
       id="g99"
       clip-path="url(#clipPath100)"
       transform="matrix(3.6363636,0,0,3.6363636,275.49069,164.72519)">
      <path
         d="m 0,0 3.784,-4.652 22.502,16.348 c 1.861,10.444 2.795,22.021 2.795,34.741 0,3.653 -0.077,7.212 -0.229,10.678 L 4.63,20.778 C 3.595,13.099 2.056,6.167 0,0"
         style="fill:#040606;fill-opacity:1;fill-rule:nonzero;stroke:none"
         transform="matrix(1.3333333,0,0,-1.3333333,343.30987,193.76907)"
         clip-path="url(#clipPath98)"
         id="path99" />
    </g>
    <path
       id="path101"
       d="m 0,0 12.962,4.072 c 1.904,5.662 3.45,11.762 4.62,18.324 L -4.92,6.048 Z"
       style="fill:#6f4fab;fill-opacity:1;fill-rule:evenodd;stroke:none"
       transform="matrix(4.8484847,0,0,-4.8484847,1566.0919,921.21731)"
       clip-path="url(#clipPath102)" />
    <g
       opacity="0.139999"
       id="g104"
       clip-path="url(#clipPath105)"
       transform="matrix(3.6363636,0,0,3.6363636,275.49069,164.72519)">
      <path
         d="m 0,0 12.962,4.072 c 1.904,5.662 3.45,11.762 4.62,18.324 L -4.92,6.048 Z"
         style="fill:#040606;fill-opacity:1;fill-rule:nonzero;stroke:none"
         transform="matrix(1.3333333,0,0,-1.3333333,354.91533,208.03533)"
         clip-path="url(#clipPath103)"
         id="path104" />
    </g>
    <path
       id="path106"
       d="M 0,0 C -2.271,-5.087 -4.185,-10.608 -5.743,-16.564 L 9.476,-11.65 Z"
       style="fill:#c3c3c2;fill-opacity:1;fill-rule:evenodd;stroke:none"
       transform="matrix(4.8484847,0,0,-4.8484847,1096.9583,344.46046)"
       clip-path="url(#clipPath107)" />
    <g
       opacity="0.139999"
       id="g109"
       clip-path="url(#clipPath110)"
       transform="matrix(3.6363636,0,0,3.6363636,275.49069,164.72519)">
      <path
         d="M 0,0 C -2.271,-5.087 -4.185,-10.608 -5.743,-16.564 L 9.476,-11.65 Z"
         style="fill:#ffffff;fill-opacity:1;fill-rule:nonzero;stroke:none"
         transform="matrix(1.3333333,0,0,-1.3333333,225.9036,49.4272)"
         clip-path="url(#clipPath108)"
         id="path109" />
    </g>
    <path
       id="path111"
       d="m 0,0 h -22.909 c 0,-0.002 0,-0.005 0,-0.008 L -0.001,-0.014 C -0.001,-0.009 0,-0.004 0,0"
       style="fill:#c3c3c2;fill-opacity:1;fill-rule:evenodd;stroke:none"
       transform="matrix(4.8484847,0,0,-4.8484847,1158.3387,562.04349)"
       clip-path="url(#clipPath112)" />
    <g
       opacity="0.139999"
       id="g114"
       clip-path="url(#clipPath115)"
       transform="matrix(3.6363636,0,0,3.6363636,275.49069,164.72519)">
      <path
         d="m 0,0 h -22.909 c 0,-0.002 0,-0.005 0,-0.008 L -0.001,-0.014 C -0.001,-0.009 0,-0.004 0,0"
         style="fill:#ffffff;fill-opacity:1;fill-rule:nonzero;stroke:none"
         transform="matrix(1.3333333,0,0,-1.3333333,242.7832,109.26253)"
         clip-path="url(#clipPath113)"
         id="path114" />
    </g>
    <path
       id="path116"
       d="m 0,0 c -4.753,0 -9.101,0.922 -13.062,2.722 l -25.943,-8.15 c 5.131,-5.223 10.959,-9.142 17.489,-11.745 L 2.229,0.077 C 1.494,0.032 0.754,0 0,0"
       style="fill:#2f346b;fill-opacity:1;fill-rule:evenodd;stroke:none"
       transform="matrix(4.8484847,0,0,-4.8484847,1354.5957,1020.7436)"
       clip-path="url(#clipPath117)" />
    <g
       opacity="0.139999"
       id="g119"
       clip-path="url(#clipPath120)"
       transform="matrix(3.6363636,0,0,3.6363636,275.49069,164.72519)">
      <path
         d="m 0,0 c -4.753,0 -9.101,0.922 -13.062,2.722 l -25.943,-8.15 c 5.131,-5.223 10.959,-9.142 17.489,-11.745 L 2.229,0.077 C 1.494,0.032 0.754,0 0,0"
         style="fill:#ffffff;fill-opacity:1;fill-rule:nonzero;stroke:none"
         transform="matrix(1.3333333,0,0,-1.3333333,296.75387,235.40507)"
         clip-path="url(#clipPath118)"
         id="path119" />
    </g>
    <path
       id="path121"
       d="m 0,0 -22.908,0.006 c -0.401,-5.405 -0.611,-11.042 -0.611,-16.936 0,-2.112 0.034,-4.185 0.085,-6.235 L -0.126,-1.71 C -0.085,-1.139 -0.045,-0.565 0,0"
       style="fill:#2f346b;fill-opacity:1;fill-rule:evenodd;stroke:none"
       transform="matrix(4.8484847,0,0,-4.8484847,1158.3314,562.10993)"
       clip-path="url(#clipPath122)" />
    <g
       opacity="0.139999"
       id="g124"
       clip-path="url(#clipPath125)"
       transform="matrix(3.6363636,0,0,3.6363636,275.49069,164.72519)">
      <path
         d="m 0,0 -22.908,0.006 c -0.401,-5.405 -0.611,-11.042 -0.611,-16.936 0,-2.112 0.034,-4.185 0.085,-6.235 L -0.126,-1.71 C -0.085,-1.139 -0.045,-0.565 0,0"
         style="fill:#ffffff;fill-opacity:1;fill-rule:nonzero;stroke:none"
         transform="matrix(1.3333333,0,0,-1.3333333,242.7812,109.2808)"
         clip-path="url(#clipPath123)"
         id="path124" />
    </g>
    <path
       id="path126"
       d="M 0,0 -7.232,8.891 -22.45,3.977 c -2.235,-8.545 -3.739,-17.979 -4.507,-28.312 H -4.048 C -3.317,-15.313 -1.968,-7.202 0,0"
       style="fill:#369a5d;fill-opacity:1;fill-rule:evenodd;stroke:none"
       transform="matrix(4.8484847,0,0,-4.8484847,1177.9649,444.0532)"
       clip-path="url(#clipPath127)" />
    <g
       opacity="0.139999"
       id="g129"
       clip-path="url(#clipPath130)"
       transform="matrix(3.6363636,0,0,3.6363636,275.49069,164.72519)">
      <path
         d="M 0,0 -7.232,8.891 -22.45,3.977 c -2.235,-8.545 -3.739,-17.979 -4.507,-28.312 H -4.048 C -3.317,-15.313 -1.968,-7.202 0,0"
         style="fill:#ffffff;fill-opacity:1;fill-rule:nonzero;stroke:none"
         transform="matrix(1.3333333,0,0,-1.3333333,248.1804,76.8152)"
         clip-path="url(#clipPath128)"
         id="path129" />
    </g>
    <path
       id="path131"
       d="m 0,0 c -6.405,-9.616 -14.817,-14.742 -25.235,-15.375 l -23.744,-17.25 c 6.484,-2.584 13.651,-3.89 21.515,-3.89 21.607,0 38.004,9.653 49.192,28.96 0.648,1.131 1.272,2.291 1.877,3.474 l -7.448,9.156 z"
       style="fill:#6f4fab;fill-opacity:1;fill-rule:evenodd;stroke:none"
       transform="matrix(4.8484847,0,0,-4.8484847,1487.754,945.82436)"
       clip-path="url(#clipPath132)" />
    <g
       opacity="0.139999"
       id="g134"
       clip-path="url(#clipPath135)"
       transform="matrix(3.6363636,0,0,3.6363636,275.49069,164.72519)">
      <path
         d="m 0,0 c -6.405,-9.616 -14.817,-14.742 -25.235,-15.375 l -23.744,-17.25 c 6.484,-2.584 13.651,-3.89 21.515,-3.89 21.607,0 38.004,9.653 49.192,28.96 0.648,1.131 1.272,2.291 1.877,3.474 l -7.448,9.156 z"
         style="fill:#ffffff;fill-opacity:1;fill-rule:nonzero;stroke:none"
         transform="matrix(1.3333333,0,0,-1.3333333,333.3724,214.80227)"
         clip-path="url(#clipPath133)"
         id="path134" />
    </g>
    <path
       id="path136"
       d="m 0,0 c -6.473,13.572 -9.707,31.852 -9.707,54.841 0,5.331 0.18,10.396 0.525,15.22 L -32.49,48.606 c 0.668,-26.368 5.625,-47.552 14.886,-63.531 2.974,-5.131 6.322,-9.558 10.022,-13.325 l 25.943,8.149 C 10.804,-16.667 4.677,-9.982 0,0"
       style="fill:#2f346b;fill-opacity:1;fill-rule:evenodd;stroke:none"
       transform="matrix(4.8484847,0,0,-4.8484847,1202.2403,910.09004)"
       clip-path="url(#clipPath137)" />
    <g
       opacity="0.139999"
       id="g139"
       clip-path="url(#clipPath140)"
       transform="matrix(3.6363636,0,0,3.6363636,275.49069,164.72519)">
      <path
         d="m 0,0 c -6.473,13.572 -9.707,31.852 -9.707,54.841 0,5.331 0.18,10.396 0.525,15.22 L -32.49,48.606 c 0.668,-26.368 5.625,-47.552 14.886,-63.531 2.974,-5.131 6.322,-9.558 10.022,-13.325 l 25.943,8.149 C 10.804,-16.667 4.677,-9.982 0,0"
         style="fill:#040606;fill-opacity:1;fill-rule:nonzero;stroke:none"
         transform="matrix(1.3333333,0,0,-1.3333333,254.85613,204.97533)"
         clip-path="url(#clipPath138)"
         id="path139" />
    </g>
    <g
       opacity="0.139999"
       id="g142"
       clip-path="url(#clipPath143)"
       transform="matrix(3.6363636,0,0,3.6363636,275.49069,164.72519)">
      <path
         d="m 0,0 c -6.473,13.572 -9.707,31.852 -9.707,54.841 0,5.331 0.18,10.396 0.525,15.22 L -32.49,48.606 c 0.668,-26.368 5.625,-47.552 14.886,-63.531 2.974,-5.131 6.322,-9.558 10.022,-13.325 l 25.943,8.149 C 10.804,-16.667 4.677,-9.982 0,0"
         style="fill:#ffffff;fill-opacity:1;fill-rule:nonzero;stroke:none"
         transform="matrix(1.3333333,0,0,-1.3333333,254.85613,204.97533)"
         clip-path="url(#clipPath141)"
         id="path142" />
    </g>
    <path
       id="path144"
       d="M 0,0 8.219,5.971 4.435,10.623 C 3.442,7.646 2.335,4.842 1.105,2.218 0.748,1.455 0.375,0.725 0,0"
       style="fill:#4e60a0;fill-opacity:1;fill-rule:evenodd;stroke:none"
       transform="matrix(4.8484847,0,0,-4.8484847,1502.3896,920.84302)"
       clip-path="url(#clipPath145)" />
    <g
       opacity="0.139999"
       id="g147"
       clip-path="url(#clipPath148)"
       transform="matrix(3.6363636,0,0,3.6363636,275.49069,164.72519)">
      <path
         d="M 0,0 8.219,5.971 4.435,10.623 C 3.442,7.646 2.335,4.842 1.105,2.218 0.748,1.455 0.375,0.725 0,0"
         style="fill:#ffffff;fill-opacity:1;fill-rule:nonzero;stroke:none"
         transform="matrix(1.3333333,0,0,-1.3333333,337.3972,207.9324)"
         clip-path="url(#clipPath146)"
         id="path147" />
    </g>
    <g
       opacity="0.139999"
       id="g150"
       clip-path="url(#clipPath151)"
       transform="matrix(3.6363636,0,0,3.6363636,275.49069,164.72519)">
      <path
         d="M 0,0 8.219,5.971 4.435,10.623 C 3.442,7.646 2.335,4.842 1.105,2.218 0.748,1.455 0.375,0.725 0,0"
         style="fill:#040606;fill-opacity:1;fill-rule:nonzero;stroke:none"
         transform="matrix(1.3333333,0,0,-1.3333333,337.3972,207.9324)"
         clip-path="url(#clipPath149)"
         id="path150" />
    </g>
    <g
       opacity="0.139999"
       id="g153"
       clip-path="url(#clipPath154)"
       transform="matrix(3.6363636,0,0,3.6363636,275.49069,164.72519)">
      <path
         d="M 0,0 8.219,5.971 4.435,10.623 C 3.442,7.646 2.335,4.842 1.105,2.218 0.748,1.455 0.375,0.725 0,0"
         style="fill:#ffffff;fill-opacity:1;fill-rule:nonzero;stroke:none"
         transform="matrix(1.3333333,0,0,-1.3333333,337.3972,207.9324)"
         clip-path="url(#clipPath152)"
         id="path153" />
    </g>
    <path
       id="path155"
       d="M 0,0 16.157,5.075 11.237,11.123 3.019,5.152 C 2.067,3.312 1.062,1.593 0,0"
       style="fill:#6f4fab;fill-opacity:1;fill-rule:evenodd;stroke:none"
       transform="matrix(4.8484847,0,0,-4.8484847,1487.754,945.82436)"
       clip-path="url(#clipPath156)" />
    <g
       opacity="0.139999"
       id="g158"
       clip-path="url(#clipPath159)"
       transform="matrix(3.6363636,0,0,3.6363636,275.49069,164.72519)">
      <path
         d="M 0,0 16.157,5.075 11.237,11.123 3.019,5.152 C 2.067,3.312 1.062,1.593 0,0"
         style="fill:#040606;fill-opacity:1;fill-rule:nonzero;stroke:none"
         transform="matrix(1.3333333,0,0,-1.3333333,333.3724,214.80227)"
         clip-path="url(#clipPath157)"
         id="path158" />
    </g>
    <g
       opacity="0.139999"
       id="g161"
       clip-path="url(#clipPath162)"
       transform="matrix(3.6363636,0,0,3.6363636,275.49069,164.72519)">
      <path
         d="M 0,0 16.157,5.075 11.237,11.123 3.019,5.152 C 2.067,3.312 1.062,1.593 0,0"
         style="fill:#ffffff;fill-opacity:1;fill-rule:nonzero;stroke:none"
         transform="matrix(1.3333333,0,0,-1.3333333,333.3724,214.80227)"
         clip-path="url(#clipPath160)"
         id="path161" />
    </g>
    <path
       id="path163"
       d="m 0,0 c 13.928,0 24.457,-7.607 31.588,-22.823 4.716,-10.067 7.681,-22.758 8.9,-38.062 H 63.393 C 61.81,-39.337 57.082,-21.667 49.191,-7.898 38.004,11.408 21.606,21.062 0,21.062 c -3.439,0 -6.731,-0.275 -9.907,-0.77 L -5.655,-0.474 C -3.835,-0.169 -1.954,0 0,0"
       style="fill:#f3ef24;fill-opacity:1;fill-rule:evenodd;stroke:none"
       transform="matrix(4.8484847,0,0,-4.8484847,1354.5957,266.84203)"
       clip-path="url(#clipPath164)" />
  </g>
  <g
     id="layer-MC1"
     inkscape:groupmode="layer"
     inkscape:label="Ebene 2">
    <path
       id="path165"
       d="M 0,0 H 4.61 V -2.893 C 3.908,-3.793 3.048,-4.498 2.03,-5.006 1.013,-5.516 -0.188,-5.77 -1.572,-5.77 c -0.988,0 -1.891,0.159 -2.71,0.477 -0.819,0.318 -1.521,0.785 -2.107,1.402 -0.585,0.618 -1.041,1.373 -1.366,2.268 -0.326,0.896 -0.488,1.916 -0.488,3.062 0,1.155 0.162,2.174 0.488,3.061 0.325,0.885 0.781,1.629 1.366,2.23 0.586,0.604 1.285,1.055 2.099,1.36 0.814,0.303 1.71,0.455 2.687,0.455 0.793,0 1.522,-0.094 2.184,-0.279 C 1.242,8.08 1.821,7.83 2.32,7.516 2.819,7.203 3.224,6.838 3.534,6.424 3.845,6.006 4.041,5.564 4.122,5.094 H 5.436 C 5.282,5.789 5.002,6.42 4.596,6.988 4.188,7.557 3.674,8.043 3.054,8.449 2.433,8.855 1.726,9.168 0.932,9.389 c -0.794,0.22 -1.65,0.33 -2.565,0.33 -1.171,0 -2.239,-0.194 -3.206,-0.58 -0.967,-0.387 -1.8,-0.94 -2.496,-1.659 -0.697,-0.72 -1.239,-1.589 -1.626,-2.605 -0.387,-1.02 -0.58,-2.164 -0.58,-3.436 0,-1.263 0.19,-2.41 0.572,-3.443 0.382,-1.033 0.924,-1.914 1.626,-2.642 0.702,-0.729 1.544,-1.295 2.527,-1.696 0.982,-0.402 2.068,-0.601 3.259,-0.601 0.59,0 1.17,0.043 1.741,0.131 0.569,0.087 1.116,0.228 1.64,0.419 0.525,0.19 1.021,0.44 1.489,0.748 0.468,0.309 0.896,0.688 1.283,1.137 L 5.13,-6.65 H 5.832 V 1.174 H 0 Z"
       style="fill:#78797a;fill-opacity:1;fill-rule:nonzero;stroke:none"
       transform="matrix(4.8484847,0,0,-4.8484847,1624.842,1814.3136)"
       clip-path="url(#clipPath166)" />
    <path
       id="path167"
       d="m 0,0 c -0.59,-0.119 -1.298,-0.176 -2.122,-0.176 h -5.801 v 6.473 h 6.152 c 1.445,0 2.532,-0.236 3.259,-0.711 C 2.216,5.111 2.579,4.32 2.579,3.215 2.579,2.588 2.488,2.059 2.305,1.629 2.122,1.197 1.84,0.848 1.458,0.58 1.076,0.311 0.59,0.117 0,0 m 2.145,-3.215 c -0.118,0.293 -0.249,0.563 -0.397,0.807 -0.147,0.244 -0.323,0.474 -0.527,0.689 -0.203,0.217 -0.463,0.442 -0.779,0.676 0.58,0.117 1.087,0.305 1.52,0.564 0.433,0.26 0.788,0.575 1.068,0.94 C 3.311,0.83 3.519,1.244 3.655,1.709 3.793,2.174 3.862,2.676 3.862,3.215 3.862,4.076 3.71,4.783 3.404,5.336 3.099,5.889 2.689,6.322 2.176,6.635 1.661,6.949 1.076,7.166 0.42,7.289 -0.236,7.41 -0.916,7.473 -1.619,7.473 H -9.145 V -8.604 h 1.222 v 7.252 h 5.847 c 0.457,0 0.856,-0.078 1.198,-0.234 0.341,-0.156 0.644,-0.369 0.908,-0.639 0.265,-0.269 0.496,-0.586 0.696,-0.947 0.197,-0.361 0.378,-0.748 0.541,-1.16 L 2.931,-8.604 H 4.274 L 2.55,-4.229 C 2.396,-3.848 2.262,-3.51 2.145,-3.215"
       style="fill:#78797a;fill-opacity:1;fill-rule:nonzero;stroke:none"
       transform="matrix(4.8484847,0,0,-4.8484847,993.9188,1804.844)"
       clip-path="url(#clipPath168)" />
    <path
       id="path169"
       d="m 0,0 c -0.867,-0.18 -1.906,-0.27 -3.117,-0.27 h -8.522 v 9.891 h 9.038 C -0.479,9.621 1.117,9.26 2.187,8.535 3.255,7.809 3.79,6.602 3.79,4.912 3.79,3.955 3.656,3.148 3.386,2.49 3.117,1.832 2.702,1.297 2.142,0.887 1.581,0.475 0.867,0.18 0,0 m 1.861,-6.617 2.445,-6.528 h 1.973 l -2.533,6.686 c -0.225,0.582 -0.424,1.098 -0.595,1.547 -0.172,0.449 -0.367,0.859 -0.584,1.234 -0.215,0.373 -0.473,0.725 -0.773,1.053 -0.299,0.33 -0.681,0.674 -1.144,1.033 0.853,0.178 1.596,0.467 2.232,0.863 0.635,0.397 1.159,0.874 1.57,1.436 0.411,0.561 0.717,1.195 0.919,1.906 0.202,0.709 0.303,1.477 0.303,2.299 0,1.317 -0.224,2.397 -0.673,3.24 -0.448,0.846 -1.05,1.506 -1.805,1.987 -0.756,0.478 -1.615,0.81 -2.579,0.998 -0.965,0.185 -1.963,0.279 -2.994,0.279 h -11.056 v -24.561 h 1.794 v 11.081 h 8.589 c 0.673,0 1.26,-0.12 1.76,-0.358 0.501,-0.24 0.946,-0.564 1.335,-0.976 0.389,-0.411 0.729,-0.893 1.02,-1.446 0.292,-0.554 0.557,-1.144 0.796,-1.773"
       style="fill:#78797a;fill-opacity:1;fill-rule:nonzero;stroke:none"
       transform="matrix(4.8484847,0,0,-4.8484847,1169.1033,1653.2532)"
       clip-path="url(#clipPath170)" />
    <path
       id="path171"
       d="M 0,0 C 0,-1.225 -0.112,-2.217 -0.336,-2.98 -0.56,-3.744 -0.888,-4.344 -1.32,-4.779 -1.753,-5.215 -2.292,-5.512 -2.939,-5.668 -3.585,-5.824 -4.326,-5.902 -5.16,-5.902 c -0.824,0 -1.554,0.078 -2.191,0.234 -0.636,0.156 -1.175,0.451 -1.618,0.881 -0.442,0.432 -0.778,1.029 -1.008,1.799 -0.228,0.767 -0.343,1.763 -0.343,2.988 v 9.293 h -1.221 v -9.338 c 0,-0.529 0.018,-1.07 0.053,-1.629 0.036,-0.558 0.125,-1.096 0.268,-1.615 0.142,-0.52 0.35,-1.008 0.626,-1.469 0.274,-0.459 0.645,-0.861 1.114,-1.203 0.468,-0.344 1.055,-0.613 1.763,-0.814 0.708,-0.202 1.56,-0.301 2.557,-0.301 1.262,0 2.306,0.158 3.13,0.476 0.824,0.319 1.475,0.778 1.954,1.379 0.478,0.604 0.814,1.34 1.007,2.211 0.194,0.871 0.29,1.86 0.29,2.965 V 9.293 H 0 Z"
       style="fill:#78797a;fill-opacity:1;fill-rule:nonzero;stroke:none"
       transform="matrix(4.8484847,0,0,-4.8484847,922.56462,1813.6697)"
       clip-path="url(#clipPath172)" />
    <path
       id="path173"
       d="M 0,0 H 5.786 V -14.9 H 7.007 V 0 h 5.847 V 1.176 H 0 Z"
       style="fill:#78797a;fill-opacity:1;fill-rule:nonzero;stroke:none"
       transform="matrix(4.8484847,0,0,-4.8484847,1026.1157,1774.3136)"
       clip-path="url(#clipPath174)" />
    <path
       id="path175"
       d="M 0,0 -4.58,14.535 H -6.412 L -10.839,0 -14.777,14.535 h -1.298 l 4.32,-16.076 h 1.832 l 4.427,14.535 4.579,-14.535 H 0.916 L 5.267,14.535 H 3.97 Z"
       style="fill:#78797a;fill-opacity:1;fill-rule:nonzero;stroke:none"
       transform="matrix(4.8484847,0,0,-4.8484847,828.11858,1839.0864)"
       clip-path="url(#clipPath176)" />
    <path
       id="path177"
       d="m 129.246,18.35 h 1.618 v 1.631 h -1.618 z"
       style="fill:#78797a;fill-opacity:1;fill-rule:nonzero;stroke:none"
       transform="matrix(4.8484847,0,0,-4.8484847,275.49069,1847.9785)"
       clip-path="url(#clipPath178)" />
    <path
       id="path179"
       d="m 0,0 v -24.561 h 1.795 v 22.43 l 14.98,-22.43 H 19.13 V 0 H 17.336 V -22.385 L 2.468,0 Z"
       style="fill:#78797a;fill-opacity:1;fill-rule:nonzero;stroke:none"
       transform="matrix(4.8484847,0,0,-4.8484847,746.34789,1597.9029)"
       clip-path="url(#clipPath180)" />
    <path
       id="path181"
       d="m 0,0 c -1.353,-0.479 -3.054,-0.719 -5.102,-0.719 h -5.584 v 20.971 h 5.584 c 2.063,0 3.771,-0.231 5.124,-0.693 1.353,-0.465 2.434,-1.141 3.241,-2.032 0.807,-0.888 1.372,-1.968 1.694,-3.24 0.32,-1.271 0.481,-2.715 0.481,-4.33 C 5.438,8.268 5.274,6.766 4.945,5.449 4.616,4.135 4.048,3.016 3.24,2.096 2.433,1.178 1.353,0.479 0,0 m 7.345,9.957 c 0,4.053 -1.032,7.078 -3.095,9.074 -2.063,1.996 -5.166,2.994 -9.307,2.994 H -12.48 V -2.514 h 7.423 c 8.267,0 12.402,4.159 12.402,12.471"
       style="fill:#78797a;fill-opacity:1;fill-rule:nonzero;stroke:none"
       transform="matrix(4.8484847,0,0,-4.8484847,929.72825,1704.7965)"
       clip-path="url(#clipPath182)" />
    <path
       id="path183"
       d="m 127.368,19.98 h -1.648 v -1.631 h 1.648 z"
       style="fill:#78797a;fill-opacity:1;fill-rule:nonzero;stroke:none"
       transform="matrix(4.8484847,0,0,-4.8484847,275.49069,1847.9785)"
       clip-path="url(#clipPath184)" />
    <path
       id="path185"
       d="M 0,0 V 1.795 H -17.135 V -22.766 H 0.604 v 1.795 H -15.34 v 10.094 h 14.375 v 1.795 H -15.34 V 0 Z"
       style="fill:#78797a;fill-opacity:1;fill-rule:nonzero;stroke:none"
       transform="matrix(4.8484847,0,0,-4.8484847,1309.2643,1606.6055)"
       clip-path="url(#clipPath186)" />
    <path
       id="path187"
       d="m 0,0 c -0.591,-0.119 -1.298,-0.176 -2.122,-0.176 h -5.802 v 6.473 h 6.153 c 1.445,0 2.532,-0.236 3.259,-0.711 C 2.216,5.111 2.579,4.32 2.579,3.215 2.579,2.588 2.488,2.059 2.305,1.629 2.122,1.197 1.84,0.848 1.457,0.58 1.076,0.311 0.59,0.117 0,0 m 2.145,-3.215 c -0.118,0.293 -0.249,0.563 -0.397,0.807 -0.147,0.244 -0.324,0.474 -0.527,0.689 -0.204,0.217 -0.463,0.442 -0.779,0.676 0.58,0.117 1.086,0.305 1.52,0.564 0.432,0.26 0.788,0.575 1.068,0.94 C 3.31,0.83 3.519,1.244 3.656,1.709 3.793,2.174 3.861,2.676 3.861,3.215 3.861,4.076 3.71,4.783 3.404,5.336 3.099,5.889 2.689,6.322 2.175,6.635 1.661,6.949 1.076,7.166 0.42,7.289 -0.236,7.41 -0.916,7.473 -1.618,7.473 H -9.145 V -8.604 h 1.221 v 7.252 h 5.848 c 0.458,0 0.856,-0.078 1.198,-0.234 0.341,-0.156 0.644,-0.369 0.908,-0.639 0.265,-0.269 0.496,-0.586 0.695,-0.947 0.198,-0.361 0.379,-0.748 0.542,-1.16 L 2.931,-8.604 H 4.274 L 2.549,-4.229 C 2.396,-3.848 2.262,-3.51 2.145,-3.215"
       style="fill:#78797a;fill-opacity:1;fill-rule:nonzero;stroke:none"
       transform="matrix(4.8484847,0,0,-4.8484847,1543.7957,1804.844)"
       clip-path="url(#clipPath188)" />
    <path
       id="path189"
       d="M 0,0 C 0.784,0.635 1.397,1.391 1.839,2.266 2.279,3.139 2.5,4.1 2.5,5.146 2.5,6.059 2.354,6.848 2.063,7.514 1.771,8.178 1.383,8.75 0.896,9.229 c -0.485,0.478 -1.057,0.882 -1.714,1.21 -0.659,0.331 -1.35,0.606 -2.076,0.831 -0.724,0.224 -1.468,0.418 -2.23,0.584 -0.763,0.164 -1.503,0.32 -2.221,0.47 -1.226,0.254 -2.25,0.528 -3.072,0.819 -0.823,0.291 -1.483,0.628 -1.984,1.009 -0.501,0.381 -0.857,0.811 -1.066,1.289 -0.21,0.479 -0.314,1.039 -0.314,1.684 0,1.404 0.564,2.512 1.693,3.318 1.129,0.809 2.792,1.211 4.989,1.211 1.047,0 1.978,-0.115 2.793,-0.347 0.815,-0.233 1.518,-0.553 2.108,-0.965 0.591,-0.41 1.072,-0.901 1.446,-1.469 0.374,-0.568 0.643,-1.182 0.808,-1.838 h 1.727 c -0.135,1 -0.445,1.899 -0.93,2.692 -0.487,0.791 -1.123,1.464 -1.908,2.017 -0.784,0.553 -1.7,0.977 -2.747,1.268 -1.046,0.291 -2.197,0.437 -3.453,0.437 -1.256,0 -2.403,-0.156 -3.442,-0.47 -1.039,-0.315 -1.929,-0.756 -2.669,-1.325 -0.739,-0.568 -1.312,-1.248 -1.716,-2.041 -0.403,-0.793 -0.606,-1.668 -0.606,-2.625 0,-0.881 0.15,-1.656 0.45,-2.32 0.299,-0.666 0.762,-1.256 1.39,-1.772 0.627,-0.515 1.423,-0.968 2.388,-1.357 0.964,-0.389 2.119,-0.732 3.465,-1.031 1.63,-0.346 2.993,-0.682 4.093,-1.01 C -2.803,9.17 -1.918,8.795 -1.244,8.377 -0.572,7.957 -0.094,7.469 0.19,6.908 0.475,6.348 0.616,5.654 0.616,4.832 0.616,4.055 0.451,3.355 0.123,2.736 -0.206,2.115 -0.681,1.584 -1.301,1.143 -1.922,0.701 -2.669,0.365 -3.543,0.133 c -0.875,-0.231 -1.858,-0.346 -2.949,-0.346 -1.047,0 -2.034,0.088 -2.961,0.268 -0.927,0.179 -1.753,0.486 -2.478,0.92 -0.725,0.433 -1.335,1.017 -1.828,1.75 -0.493,0.732 -0.829,1.652 -1.009,2.757 h -1.771 c 0.074,-1.15 0.336,-2.185 0.784,-3.105 0.449,-0.92 1.096,-1.705 1.941,-2.356 0.843,-0.65 1.886,-1.152 3.127,-1.501 1.242,-0.352 2.692,-0.528 4.351,-0.528 1.271,0 2.448,0.176 3.533,0.528 C -1.72,-1.131 -0.785,-0.637 0,0"
       style="fill:#78797a;fill-opacity:1;fill-rule:nonzero;stroke:none"
       transform="matrix(4.8484847,0,0,-4.8484847,1526.0211,1709.418)"
       clip-path="url(#clipPath190)" />
    <path
       id="path191"
       d="M 0,0 H 9.785 V 1.174 H 0 V 7.119 H 10.441 V 8.295 H -1.222 V -7.781 h 12.076 v 1.174 L 0,-6.607 Z"
       style="fill:#78797a;fill-opacity:1;fill-rule:nonzero;stroke:none"
       transform="matrix(4.8484847,0,0,-4.8484847,1428.7721,1808.8309)"
       clip-path="url(#clipPath192)" />
    <path
       id="path193"
       d="M 0,0 V 1.795 H -17.133 V -22.766 H 0.606 v 1.795 h -15.945 v 10.094 h 14.375 v 1.795 H -15.339 V 0 Z"
       style="fill:#78797a;fill-opacity:1;fill-rule:nonzero;stroke:none"
       transform="matrix(4.8484847,0,0,-4.8484847,1647.5266,1606.6055)"
       clip-path="url(#clipPath194)" />
    <path
       id="path195"
       d="m 0,0 h -4.84 v 6.666 h 4.503 C 0.641,6.666 1.452,6.6 2.099,6.467 2.745,6.336 3.264,6.135 3.655,5.865 4.047,5.596 4.324,5.252 4.487,4.83 4.65,4.41 4.732,3.91 4.732,3.334 4.732,1.111 3.154,0 0,0 m -4.84,13.727 4.717,0.015 c 1.435,0 2.478,-0.238 3.13,-0.713 C 3.658,12.555 3.983,11.828 3.983,10.85 3.983,9.764 3.633,8.99 2.93,8.529 2.228,8.07 1.135,7.84 -0.352,7.84 H -4.84 Z M 5.411,5.859 C 5.151,6.23 4.785,6.545 4.312,6.805 3.839,7.064 3.211,7.229 2.427,7.297 c 0.559,0.117 1.017,0.31 1.374,0.58 0.355,0.269 0.636,0.574 0.84,0.918 0.203,0.342 0.342,0.711 0.42,1.107 0.076,0.397 0.114,0.782 0.114,1.153 0,1.341 -0.446,2.318 -1.336,2.929 -0.891,0.612 -2.176,0.918 -3.855,0.918 H -6.062 V -1.174 h 6.077 c 1.984,0 3.488,0.387 4.511,1.16 1.023,0.774 1.534,1.889 1.534,3.348 0,0.42 -0.043,0.853 -0.129,1.299 -0.087,0.445 -0.26,0.853 -0.52,1.226"
       style="fill:#78797a;fill-opacity:1;fill-rule:nonzero;stroke:none"
       transform="matrix(4.8484847,0,0,-4.8484847,1375.481,1840.8668)"
       clip-path="url(#clipPath196)" />
    <path
       id="path197"
       d="M 0,0 -6.091,14.607 H -7.862 V -1.469 h 1.221 V 12.684 L -0.642,-1.469 H 0.641 L 6.656,12.684 V -1.469 h 1.221 v 16.076 h -1.74 z"
       style="fill:#78797a;fill-opacity:1;fill-rule:nonzero;stroke:none"
       transform="matrix(4.8484847,0,0,-4.8484847,1287.3229,1839.4369)"
       clip-path="url(#clipPath198)" />
    <path
       id="path199"
       d="m 0,0 c 0.381,-0.672 0.572,-1.555 0.572,-2.646 0,-0.897 -0.127,-1.686 -0.382,-2.366 -0.253,-0.681 -0.661,-1.254 -1.221,-1.717 -0.561,-0.462 -1.282,-0.814 -2.165,-1.052 -0.882,-0.24 -1.951,-0.36 -3.206,-0.36 h -7.423 V 2.467 h 7.333 c 0.942,0 1.839,-0.059 2.691,-0.178 0.852,-0.121 1.603,-0.363 2.253,-0.73 C -0.897,1.193 -0.381,0.674 0,0 m -6.694,4.262 h -8.926 v -24.561 h 1.795 v 10.363 h 7.355 c 2.915,0 5.132,0.629 6.649,1.885 1.517,1.256 2.277,3.086 2.277,5.494 0,1.362 -0.251,2.483 -0.752,3.366 -0.5,0.88 -1.174,1.58 -2.017,2.095 -0.846,0.518 -1.821,0.871 -2.927,1.067 -1.107,0.193 -2.258,0.291 -3.454,0.291"
       style="fill:#78797a;fill-opacity:1;fill-rule:nonzero;stroke:none"
       transform="matrix(4.8484847,0,0,-4.8484847,1067.0577,1618.5657)"
       clip-path="url(#clipPath200)" />
    <path
       id="path201"
       d="m 0,0 c -0.292,0.664 -0.682,1.236 -1.167,1.715 -0.485,0.478 -1.058,0.883 -1.715,1.211 -0.658,0.33 -1.349,0.605 -2.074,0.83 -0.726,0.224 -1.469,0.418 -2.232,0.584 -0.763,0.164 -1.502,0.32 -2.22,0.471 -1.226,0.253 -2.25,0.527 -3.072,0.818 -0.823,0.291 -1.485,0.629 -1.986,1.01 -0.501,0.381 -0.855,0.81 -1.064,1.289 -0.21,0.478 -0.315,1.039 -0.315,1.683 0,1.405 0.565,2.512 1.694,3.319 1.129,0.808 2.792,1.211 4.989,1.211 1.047,0 1.977,-0.116 2.793,-0.348 0.814,-0.232 1.516,-0.553 2.107,-0.965 0.591,-0.41 1.074,-0.9 1.447,-1.469 0.374,-0.568 0.643,-1.181 0.808,-1.838 h 1.727 c -0.135,1 -0.446,1.899 -0.932,2.692 -0.486,0.791 -1.121,1.465 -1.905,2.017 -0.785,0.553 -1.702,0.977 -2.747,1.268 -1.047,0.291 -2.199,0.438 -3.454,0.438 -1.256,0 -2.405,-0.157 -3.443,-0.471 -1.04,-0.315 -1.928,-0.756 -2.669,-1.324 -0.74,-0.569 -1.311,-1.248 -1.716,-2.041 -0.403,-0.793 -0.605,-1.668 -0.605,-2.625 0,-0.881 0.149,-1.657 0.448,-2.321 0.3,-0.666 0.763,-1.256 1.391,-1.771 0.628,-0.516 1.424,-0.969 2.389,-1.358 0.963,-0.388 2.119,-0.732 3.464,-1.031 1.63,-0.346 2.995,-0.681 4.093,-1.01 1.099,-0.328 1.985,-0.703 2.657,-1.121 0.673,-0.42 1.152,-0.908 1.436,-1.468 0.283,-0.561 0.426,-1.254 0.426,-2.077 0,-0.777 -0.164,-1.476 -0.493,-2.095 -0.33,-0.621 -0.804,-1.153 -1.424,-1.594 -0.621,-0.441 -1.368,-0.777 -2.242,-1.01 -0.875,-0.23 -1.859,-0.346 -2.95,-0.346 -1.047,0 -2.034,0.088 -2.961,0.268 -0.927,0.18 -1.753,0.486 -2.477,0.92 -0.726,0.434 -1.334,1.018 -1.828,1.75 -0.493,0.732 -0.83,1.652 -1.009,2.758 h -1.773 c 0.076,-1.151 0.337,-2.186 0.787,-3.106 0.448,-0.92 1.094,-1.705 1.939,-2.355 0.845,-0.651 1.887,-1.153 3.128,-1.502 1.241,-0.352 2.691,-0.527 4.351,-0.527 1.271,0 2.448,0.175 3.532,0.527 1.084,0.349 2.018,0.844 2.804,1.48 0.785,0.635 1.397,1.391 1.838,2.266 0.441,0.873 0.662,1.834 0.662,2.881 C 0.437,-1.455 0.291,-0.666 0,0"
       style="fill:#78797a;fill-opacity:1;fill-rule:nonzero;stroke:none"
       transform="matrix(4.8484847,0,0,-4.8484847,1423.2701,1672.988)"
       clip-path="url(#clipPath202)" />
    <path
       id="path203"
       d="M 0,0 H 9.786 V 1.174 H 0 V 7.119 H 10.442 V 8.295 H -1.221 V -7.781 h 12.075 v 1.174 L 0,-6.607 Z"
       style="fill:#78797a;fill-opacity:1;fill-rule:nonzero;stroke:none"
       transform="matrix(4.8484847,0,0,-4.8484847,1179.3307,1808.8309)"
       clip-path="url(#clipPath204)" />
    <path
       id="path205"
       d="M 0,0 H 5.786 V -14.9 H 7.008 V 0 h 5.846 V 1.176 H 0 Z"
       style="fill:#78797a;fill-opacity:1;fill-rule:nonzero;stroke:none"
       transform="matrix(4.8484847,0,0,-4.8484847,1096.4284,1774.3136)"
       clip-path="url(#clipPath206)" />
    <path
       id="path207"
       d="M 0,0 H 9.786 V 1.174 H 0 V 7.119 H 10.442 V 8.295 H -1.222 V -7.781 h 12.076 v 1.174 L 0,-6.607 Z"
       style="fill:#78797a;fill-opacity:1;fill-rule:nonzero;stroke:none"
       transform="matrix(4.8484847,0,0,-4.8484847,536.48996,1808.8309)"
       clip-path="url(#clipPath208)" />
    <path
       id="path209"
       d="m 0,0 c 0,-1.105 -0.112,-2.09 -0.335,-2.949 -0.225,-0.864 -0.611,-1.594 -1.161,-2.196 -0.549,-0.603 -1.285,-1.06 -2.206,-1.373 -0.921,-0.314 -2.079,-0.47 -3.473,-0.47 h -3.801 V 6.738 h 3.801 c 1.404,0 2.567,-0.152 3.488,-0.455 C -2.766,5.98 -2.03,5.537 -1.481,4.955 -0.931,4.373 -0.547,3.666 -0.328,2.834 -0.109,2.002 0,1.057 0,0 m -7.145,7.898 h -5.053 v -16.06 h 5.053 c 5.629,0 8.443,2.721 8.443,8.162 0,2.652 -0.703,4.633 -2.107,5.939 -1.404,1.307 -3.516,1.959 -6.336,1.959"
       style="fill:#78797a;fill-opacity:1;fill-rule:nonzero;stroke:none"
       transform="matrix(4.8484847,0,0,-4.8484847,506.5108,1806.9841)"
       clip-path="url(#clipPath210)" />
    <path
       id="path211"
       d="m 0,0 c 0.762,-0.307 1.614,-0.459 2.557,-0.459 1.076,0 2.014,0.147 2.814,0.438 C 6.171,0.27 6.84,0.74 7.378,1.391 7.916,2.041 8.32,2.879 8.589,3.904 8.858,4.928 8.993,6.18 8.993,7.66 V 24.549 H 7.198 V 7.459 C 7.198,6.172 7.093,5.133 6.885,4.34 6.675,3.549 6.369,2.928 5.965,2.479 5.562,2.031 5.072,1.729 4.497,1.57 3.92,1.414 3.274,1.336 2.557,1.336 c -1.391,0 -2.449,0.383 -3.174,1.154 -0.726,0.77 -1.125,1.971 -1.2,3.6 L -3.611,6.066 c 0,-1 0.142,-1.902 0.426,-2.701 C -2.901,2.564 -2.489,1.881 -1.951,1.312 -1.413,0.744 -0.763,0.307 0,0"
       style="fill:#78797a;fill-opacity:1;fill-rule:nonzero;stroke:none"
       transform="matrix(4.8484847,0,0,-4.8484847,305.76511,1716.9274)"
       clip-path="url(#clipPath212)" />
    <path
       id="path213"
       d="M 0,0 3.679,8.941 7.557,0 Z M 2.87,9.998 C 2.321,8.619 1.779,7.262 1.245,5.932 0.71,4.6 0.178,3.277 -0.351,1.961 -0.88,0.645 -1.412,-0.68 -1.946,-2.01 -2.48,-3.342 -3.022,-4.701 -3.572,-6.092 h 1.298 c 0.315,0.822 0.646,1.686 0.992,2.592 0.346,0.904 0.666,1.764 0.962,2.576 h 8.228 l 2.046,-5.168 h 1.465 L 4.596,9.998 Z"
       style="fill:#78797a;fill-opacity:1;fill-rule:nonzero;stroke:none"
       transform="matrix(4.8484847,0,0,-4.8484847,379.4228,1817.0219)"
       clip-path="url(#clipPath214)" />
    <path
       id="path215"
       d="m 0,0 v -14.266 c 0,-0.806 0.026,-1.636 0.078,-2.488 0.052,-0.853 0.183,-1.676 0.392,-2.467 0.21,-0.793 0.516,-1.541 0.92,-2.244 0.403,-0.703 0.949,-1.314 1.637,-1.838 0.687,-0.523 1.551,-0.939 2.59,-1.246 1.039,-0.306 2.292,-0.459 3.757,-0.459 1.854,0 3.386,0.242 4.597,0.729 1.211,0.486 2.168,1.189 2.87,2.109 0.703,0.918 1.196,2.043 1.481,3.375 0.283,1.33 0.426,2.84 0.426,4.529 V 0 h -1.794 v -14.197 c 0,-1.869 -0.165,-3.387 -0.494,-4.553 -0.329,-1.166 -0.811,-2.082 -1.446,-2.748 -0.636,-0.666 -1.428,-1.117 -2.377,-1.357 -0.949,-0.239 -2.037,-0.358 -3.263,-0.358 -1.211,0 -2.284,0.119 -3.218,0.358 -0.935,0.24 -1.727,0.687 -2.378,1.345 -0.65,0.658 -1.143,1.574 -1.48,2.748 -0.336,1.174 -0.505,2.696 -0.505,4.565 L 1.793,0 Z"
       style="fill:#78797a;fill-opacity:1;fill-rule:nonzero;stroke:none"
       transform="matrix(4.8484847,0,0,-4.8484847,381.00924,1597.9029)"
       clip-path="url(#clipPath216)" />
    <path
       id="path217"
       d="m 0,0 h -4.839 v 6.666 h 4.504 C 0.641,6.666 1.453,6.6 2.1,6.467 2.746,6.336 3.265,6.135 3.657,5.865 4.048,5.596 4.326,5.252 4.489,4.83 4.651,4.41 4.733,3.91 4.733,3.334 4.733,1.111 3.155,0 0,0 m -4.839,13.727 4.717,0.015 c 1.435,0 2.479,-0.238 3.13,-0.713 C 3.659,12.555 3.985,11.828 3.985,10.85 3.985,9.764 3.634,8.99 2.931,8.529 2.229,8.07 1.135,7.84 -0.351,7.84 H -4.839 Z M 5.412,5.859 C 5.153,6.23 4.786,6.545 4.313,6.805 3.839,7.064 3.211,7.229 2.428,7.297 c 0.559,0.117 1.018,0.31 1.374,0.58 0.356,0.269 0.635,0.574 0.84,0.918 0.203,0.342 0.343,0.711 0.42,1.107 0.076,0.397 0.114,0.782 0.114,1.153 0,1.341 -0.446,2.318 -1.337,2.929 -0.89,0.612 -2.174,0.918 -3.854,0.918 H -6.06 V -1.174 h 6.076 c 1.984,0 3.488,0.387 4.511,1.16 1.023,0.774 1.534,1.889 1.534,3.348 0,0.42 -0.043,0.853 -0.129,1.299 -0.087,0.445 -0.26,0.853 -0.52,1.226"
       style="fill:#78797a;fill-opacity:1;fill-rule:nonzero;stroke:none"
       transform="matrix(4.8484847,0,0,-4.8484847,323.39081,1840.8668)"
       clip-path="url(#clipPath218)" />
    <path
       id="path219"
       d="M 0,0 V 1.795 H -17.134 V -22.766 H 0.605 v 1.795 h -15.944 v 10.094 h 14.375 v 1.795 H -15.339 V 0 Z"
       style="fill:#78797a;fill-opacity:1;fill-rule:nonzero;stroke:none"
       transform="matrix(4.8484847,0,0,-4.8484847,717.75396,1606.6055)"
       clip-path="url(#clipPath220)" />
    <path
       id="path221"
       d="m 0,0 h -8.567 v -1.793 h 6.774 v -4.42 c -1.032,-1.375 -2.296,-2.451 -3.791,-3.228 -1.495,-0.778 -3.259,-1.166 -5.293,-1.166 -1.45,0 -2.777,0.242 -3.98,0.728 -1.204,0.484 -2.236,1.199 -3.095,2.141 -0.86,0.943 -1.529,2.097 -2.007,3.467 -0.478,1.367 -0.718,2.925 -0.718,4.675 0,1.764 0.24,3.323 0.718,4.676 0.478,1.354 1.147,2.49 2.007,3.41 0.859,0.92 1.887,1.612 3.084,2.074 1.196,0.463 2.512,0.696 3.947,0.696 1.166,0 2.234,-0.143 3.207,-0.426 0.971,-0.285 1.823,-0.666 2.556,-1.145 0.733,-0.478 1.327,-1.035 1.783,-1.669 0.456,-0.637 0.744,-1.313 0.863,-2.03 h 1.929 c -0.224,1.061 -0.635,2.026 -1.233,2.893 -0.599,0.867 -1.353,1.611 -2.266,2.232 -0.911,0.619 -1.95,1.098 -3.117,1.436 -1.166,0.336 -2.422,0.504 -3.767,0.504 -1.72,0 -3.29,-0.295 -4.709,-0.887 -1.422,-0.59 -2.643,-1.436 -3.667,-2.533 -1.025,-1.1 -1.821,-2.428 -2.388,-3.983 -0.569,-1.554 -0.853,-3.304 -0.853,-5.248 0,-1.929 0.28,-3.681 0.841,-5.259 0.561,-1.579 1.357,-2.924 2.388,-4.038 1.032,-1.113 2.269,-1.976 3.712,-2.589 1.443,-0.614 3.038,-0.92 4.788,-0.92 0.867,0 1.719,0.066 2.556,0.201 0.838,0.135 1.641,0.347 2.411,0.638 0.77,0.293 1.499,0.674 2.187,1.145 0.687,0.471 1.315,1.051 1.884,1.738 l 0.784,-3.275 H 0 Z"
       style="fill:#78797a;fill-opacity:1;fill-rule:nonzero;stroke:none"
       transform="matrix(4.8484847,0,0,-4.8484847,606.62716,1659.02)"
       clip-path="url(#clipPath222)" />
    <path
       id="path223"
       d="m 85.768,6.355 h 9.175 v 1.277 h -9.175 z"
       style="fill:#78797a;fill-opacity:1;fill-rule:nonzero;stroke:none"
       transform="matrix(4.8484847,0,0,-4.8484847,275.49069,1847.9785)"
       clip-path="url(#clipPath224)" />
    <path
       id="path225"
       d="m 0,0 -10.122,14.652 h -1.679 V -1.424 h 1.222 V 13.258 L -0.382,-1.424 H 1.221 V 14.652 H 0 Z"
       style="fill:#78797a;fill-opacity:1;fill-rule:nonzero;stroke:none"
       transform="matrix(4.8484847,0,0,-4.8484847,663.80051,1839.6547)"
       clip-path="url(#clipPath226)" />
    <path
       id="path227"
       d="m 0,0 v -62.533 h 4.568 v 31.125 h 38.541 v -31.125 h 4.626 V 0 H 43.109 V -26.84 H 4.568 V 0 Z"
       style="fill:#78797a;fill-opacity:1;fill-rule:nonzero;stroke:none"
       transform="matrix(4.8484847,0,0,-4.8484847,820.55204,1230.2418)"
       clip-path="url(#clipPath228)" />
    <path
       id="path229"
       d="m 0,0 c 0,-3.275 -0.267,-5.92 -0.799,-7.937 -0.534,-2.02 -1.314,-3.598 -2.342,-4.741 -1.027,-1.142 -2.275,-1.912 -3.74,-2.312 -1.466,-0.401 -3.112,-0.6 -4.939,-0.6 -3.54,0 -6.234,0.981 -8.079,2.942 -1.847,1.959 -2.865,5.015 -3.055,9.166 l -4.568,-0.059 c 0,-2.551 0.361,-4.844 1.085,-6.881 0.723,-2.037 1.77,-3.779 3.14,-5.224 1.371,-1.45 3.026,-2.563 4.968,-3.342 1.941,-0.78 4.111,-1.17 6.509,-1.17 2.741,0 5.129,0.371 7.166,1.113 2.036,0.742 3.74,1.941 5.11,3.598 1.371,1.656 2.398,3.787 3.084,6.396 0.685,2.606 1.028,5.797 1.028,9.565 V 43.516 H 0 Z"
       style="fill:#78797a;fill-opacity:1;fill-rule:nonzero;stroke:none"
       transform="matrix(4.8484847,0,0,-4.8484847,430.75324,1441.2265)"
       clip-path="url(#clipPath230)" />
    <path
       id="path231"
       d="m 0,0 c -2.209,-0.455 -4.854,-0.684 -7.937,-0.684 h -10.488 -11.21 V 24.5 h 11.21 11.801 c 5.405,0 9.47,-0.924 12.191,-2.77 C 8.288,19.883 9.649,16.809 9.649,12.508 9.649,10.07 9.307,8.016 8.622,6.34 7.937,4.664 6.881,3.303 5.453,2.256 4.025,1.209 2.207,0.457 0,0 m 8.022,-12.506 c -0.438,1.143 -0.933,2.19 -1.484,3.141 -0.553,0.951 -1.209,1.845 -1.97,2.683 -0.1,0.111 -0.214,0.224 -0.322,0.335 -0.71,0.737 -1.566,1.5 -2.591,2.292 2.17,0.457 4.064,1.192 5.682,2.2 1.618,1.007 2.95,2.226 3.997,3.654 1.047,1.428 1.827,3.047 2.341,4.855 0.514,1.809 0.77,3.76 0.77,5.854 0,3.349 -0.57,6.099 -1.712,8.252 -1.142,2.15 -2.674,3.834 -4.596,5.052 -1.923,1.219 -4.112,2.067 -6.567,2.542 -2.455,0.476 -4.997,0.714 -7.623,0.714 h -12.372 -15.778 v -62.533 h 4.568 v 28.211 h 11.21 10.659 c 1.713,0 3.206,-0.305 4.483,-0.912 1.274,-0.609 2.406,-1.438 3.397,-2.484 0.085,-0.09 0.164,-0.19 0.247,-0.283 0.885,-0.986 1.672,-2.114 2.351,-3.401 0.742,-1.408 1.418,-2.912 2.027,-4.512 l 6.224,-16.619 h 5.024 l -4.856,12.812 -1.596,4.208 c -0.57,1.484 -1.076,2.799 -1.513,3.939"
       style="fill:#78797a;fill-opacity:1;fill-rule:nonzero;stroke:none"
       transform="matrix(4.8484847,0,0,-4.8484847,1296.7266,1371.1795)"
       clip-path="url(#clipPath232)" />
    <path
       id="path233"
       d="M 0,0 12.193,-29.237 H -16.072 L -3.38,2.838 -2.311,5.54 Z m -6.527,6.549 c -1.647,-4.295 -3.281,-8.545 -4.891,-12.716 -1.998,-5.178 -3.988,-10.326 -5.966,-15.447 -1.98,-5.121 -3.97,-10.27 -5.968,-15.448 -1.998,-5.177 -4.025,-10.47 -6.081,-15.876 h 4.853 c 1.181,3.199 2.417,6.558 3.712,10.08 1.294,3.521 2.493,6.861 3.598,10.021 h 30.776 l 7.651,-20.101 h 5.482 L 1.115,9.651 H 0 -5.337 C -5.736,8.608 -6.13,7.585 -6.527,6.549"
       style="fill:#78797a;fill-opacity:1;fill-rule:nonzero;stroke:none"
       transform="matrix(4.8484847,0,0,-4.8484847,644.05116,1276.7616)"
       clip-path="url(#clipPath234)" />
    <path
       id="path235"
       d="m 0,0 v -44.245 h 45.165 v 4.57 H 4.567 v 25.697 h 36.601 v 4.569 H 4.567 V 3.04 13.72 h 16.044 23.012 v 4.568 H 27.475 0 Z"
       style="fill:#78797a;fill-opacity:1;fill-rule:nonzero;stroke:none"
       transform="matrix(4.8484847,0,0,-4.8484847,1442.072,1318.9114)"
       clip-path="url(#clipPath236)" />
  </g>
</svg>
