<?xml version="1.0" encoding="UTF-8" standalone="no"?>
<!-- Created with Inkscape (http://www.inkscape.org/) -->

<svg
   width="2000.0001"
   height="2000.0001"
   viewBox="0 0 529.1667 529.1667"
   version="1.1"
   id="svg1"
   xmlns="http://www.w3.org/2000/svg"
   xmlns:svg="http://www.w3.org/2000/svg">
  <defs
     id="defs1" />
  <g
     id="layer1"
     transform="translate(-1822.8235,90.227848)">
    <rect
       style="fill:#462bfb;fill-opacity:1;stroke-width:0.252771"
       id="rect1-68-4"
       width="529.16669"
       height="529.16669"
       x="1822.8237"
       y="-90.227852" />
  </g>
  <g
     id="layer2"
     transform="translate(-2156.6666)">
    <path
       style="font-size:1600px;line-height:1;font-family:SAIGO;-inkscape-font-specification:SAIGO;white-space:pre;fill:#ffffff"
       d="M 1117.8109,1257.6 V 244.8 c 0,-28.8 -22.4,-51.2 -49.6,-51.2 L 180.21094,160 c -27.2,0 -51.2,22.4 -51.2,51.2 V 1257.6 H 61.810938 V 1280 H 437.81094 v -22.4 h -67.2 V 190.4 l 350.4,12.8 v 1054.4 h -83.2 v 22.4 h 188.8 v -22.4 h -83.2 V 203.2 L 1068.2109,216 c 14.4,0 27.2,12.8 27.2,28.8 v 1012.8 h -83.2 v 22.4 h 188.8 v -22.4 z m -769.59996,0 h -38.4 V 187.2 l 38.4,1.6 z"
       id="text5-6-4"
       transform="matrix(0.26458333,0,0,0.26458333,2254.1891,74.083507)"
       aria-label="M" />
  </g>
</svg>
