<?xml version="1.0" encoding="UTF-8" standalone="no"?>
<!-- Created with Inkscape (http://www.inkscape.org/) -->

<svg
   width="2000.0001"
   height="2000.0001"
   viewBox="0 0 529.1667 529.1667"
   version="1.1"
   id="svg1"
   xmlns="http://www.w3.org/2000/svg"
   xmlns:svg="http://www.w3.org/2000/svg">
  <defs
     id="defs1" />
  <g
     id="layer1"
     transform="translate(-3979.4902,90.227848)">
    <rect
       style="fill:#462bfb;fill-opacity:1;stroke-width:0.252771"
       id="rect1-68-71"
       width="529.16669"
       height="529.16669"
       x="3979.4905"
       y="-90.227852" />
  </g>
  <g
     id="layer2"
     transform="translate(-4313.3333)">
    <path
       style="font-size:1600px;line-height:1;font-family:Saigo;-inkscape-font-specification:Saigo;text-align:center;text-anchor:middle;white-space:pre;fill:#ffffff"
       d="M 1056.0437,160 H 612.84366 c -27.2,0 -49.6,22.4 -49.6,51.2 v 155.2 h 20.8 V 211.2 c 0,-16 12.8,-28.8 28.8,-28.8 h 313.6 v 472 h -49.6 c -28.8,0 -51.2,22.4 -51.2,49.6 v 286.4 h 22.4 V 704 c 0,-14.4 12.8,-27.2 28.8,-27.2 l 179.20004,1.6 c 27.2,0 49.6,-22.4 49.6,-49.6 V 211.2 c 0,-28.8 -22.4,-51.2 -49.6,-51.2 z m -174.40004,918.4 h -94.4 c -11.2,0 -19.2,8 -19.2,17.6 v 166.4 c 0,9.6 8,17.6 19.2,17.6 h 94.4 c 9.6,0 17.6,-8 17.6,-17.6 V 1096 c 0,-9.6 -8,-17.6 -17.6,-17.6 z m -4.8,180.8 h -86.4 v -158.4 h 86.4 z"
       id="text5-6-4-6-6-7"
       transform="matrix(0.26458333,0,0,0.26458333,4361.3701,74.083507)"
       aria-label="?" />
  </g>
</svg>
