<?xml version="1.0" encoding="UTF-8" standalone="no"?>
<!-- Created with Inkscape (http://www.inkscape.org/) -->

<svg
   width="2000.0001"
   height="2000.0001"
   viewBox="0 0 529.1667 529.1667"
   version="1.1"
   id="svg1"
   xmlns="http://www.w3.org/2000/svg"
   xmlns:svg="http://www.w3.org/2000/svg">
  <defs
     id="defs1" />
  <g
     id="layer1"
     transform="translate(-3440.3238,90.227848)">
    <rect
       style="fill:#462bfb;fill-opacity:1;stroke-width:0.252771"
       id="rect1-68-49"
       width="529.16669"
       height="529.16669"
       x="3440.324"
       y="-90.227852" />
  </g>
  <g
     id="layer2"
     transform="translate(-3774.1669)">
    <path
       style="font-size:1600px;line-height:1;font-family:Saigo;-inkscape-font-specification:Saigo;text-align:center;text-anchor:middle;white-space:pre;fill:#ffffff"
       d="m 1160.8443,182.4 h 86.4 V 160 h -188.8 v 22.4 h 76.8 l -215.99999,488 -217.6,-488 h 64 V 160 h -376 v 22.4 h 67.2 l 228.8,515.2 -230.4,560 h -65.6 v 22.4 h 376 v -22.4 h -64 l 217.6,-531.2 217.59999,531.2 h -78.4 v 22.4 h 188.8 v -22.4 h -86.4 L 930.44431,697.6 Z M 677.64431,1257.6 h -36.8 l 228.8,-560 -228.8,-515.2 h 36.8 l 228.8,515.2 z"
       id="text5-6-4-6-6-9"
       transform="matrix(0.26458333,0,0,0.26458333,3822.2036,74.083507)"
       aria-label="X" />
  </g>
</svg>
