<?xml version="1.0" encoding="UTF-8" standalone="no"?>
<!-- Created with Inkscape (http://www.inkscape.org/) -->

<svg
   width="2000.0001"
   height="2000.0001"
   viewBox="0 0 529.1667 529.1667"
   version="1.1"
   id="svg1"
   xmlns="http://www.w3.org/2000/svg"
   xmlns:svg="http://www.w3.org/2000/svg">
  <defs
     id="defs1" />
  <g
     id="layer1"
     transform="translate(-2901.157,90.227848)">
    <rect
       style="fill:#462bfb;fill-opacity:1;stroke-width:0.252771"
       id="rect1-68-7"
       width="529.16669"
       height="529.16669"
       x="2901.1572"
       y="-90.227852" />
    <rect
       style="fill:#462bfb;fill-opacity:1;stroke-width:0.252771"
       id="rect1-68-0"
       width="529.16669"
       height="529.16669"
       x="2901.1572"
       y="-90.227852" />
  </g>
  <g
     id="layer2"
     transform="translate(-3235.0001)">
    <path
       style="font-size:1600px;line-height:1;font-family:Saigo;-inkscape-font-specification:Saigo;text-align:center;text-anchor:middle;white-space:pre;fill:#ffffff"
       d="M 1076.0442,368 V 211.2 c 0,-28.8 -22.4,-51.2 -51.2,-51.2 H 578.44419 c -27.2,0 -49.6,22.4 -49.6,51.2 V 632 c 0,27.2 22.4,51.2 49.6,51.2 l 316.8,14.4 v 560 h -316.8 c -14.4,0 -27.2,-12.8 -27.2,-27.2 v -156.8 h -22.4 v 156.8 c 0,27.2 22.4,49.6 49.6,49.6 h 446.40001 c 28.8,0 51.2,-22.4 51.2,-49.6 V 731.2 c 0,-27.2 -22.4,-51.2 -51.2,-51.2 L 768.84419,668.8 V 182.4 h 256.00001 c 16,0 28.8,12.8 28.8,28.8 V 368 Z m -329.60001,300.8 -38.4,-3.2 V 182.4 h 38.4 z"
       id="text5-6-4-6-6"
       transform="matrix(0.26458333,0,0,0.26458333,3283.0369,74.083507)"
       aria-label="S" />
  </g>
</svg>
