<?xml version="1.0" encoding="UTF-8" standalone="no"?>
<!-- Created with Inkscape (http://www.inkscape.org/) -->

<svg
   version="1.1"
   id="svg1"
   width="500"
   height="500"
   viewBox="0 0 499.99999 499.99999"
   sodipodi:docname="_FINAL_jpbw_cube.ai"
   xmlns:inkscape="http://www.inkscape.org/namespaces/inkscape"
   xmlns:sodipodi="http://sodipodi.sourceforge.net/DTD/sodipodi-0.dtd"
   xmlns="http://www.w3.org/2000/svg"
   xmlns:svg="http://www.w3.org/2000/svg">
  <defs
     id="defs1" />
  <sodipodi:namedview
     id="namedview1"
     pagecolor="#ffffff"
     bordercolor="#000000"
     borderopacity="0.25"
     inkscape:showpageshadow="2"
     inkscape:pageopacity="0.0"
     inkscape:pagecheckerboard="0"
     inkscape:deskcolor="#d1d1d1">
    <inkscape:page
       x="0"
       y="0"
       inkscape:label="1"
       id="page1"
       width="500"
       height="500"
       margin="374.92667 634.26935 374.51999 633.7627"
       bleed="0" />
  </sodipodi:namedview>
  <g
     inkscape:groupmode="layer"
     id="layer2"
     inkscape:label="Ebene 2">
    <rect
       style="fill:#ffffff"
       id="rect66"
       width="617.57782"
       height="601.50201"
       x="-44.208389"
       y="-49.566982" />
  </g>
  <g
     id="layer-MC0"
     inkscape:groupmode="layer"
     inkscape:label="Ebene 1"
     transform="translate(0.134978,3.297316)">
    <path
       id="path1"
       d="m 155.56178,303.59988 -36.544,54.83067 60.42533,34.80933 68.628,-65.928 0.004,-77.29199 z"
       style="fill:#fab84d;fill-opacity:1;fill-rule:evenodd;stroke:none;stroke-width:1.33333" />
    <path
       id="path2"
       d="m 178.80138,392.87068 69.26533,39.90267 0.005,-106.44933 z"
       style="fill:#e4e547;fill-opacity:1;fill-rule:evenodd;stroke:none;stroke-width:1.33333" />
    <path
       id="path3"
       d="m 128.24285,363.74561 116.144,-32.89466 3.68533,-3.53867 0.004,-77.292 -92.51466,53.58 -36.54267,54.83067 z"
       style="fill:#e4a84c;fill-opacity:1;fill-rule:evenodd;stroke:none;stroke-width:1.33333" />
    <path
       id="path4"
       d="m 248.07165,329.80815 v -3.484 l -5.14133,4.94 z"
       style="fill:#cfd047;fill-opacity:1;fill-rule:evenodd;stroke:none;stroke-width:1.33333" />
    <path
       id="path5"
       d="m 237.07618,337.87455 -45.04933,-55.39333 -36.46534,21.11867 -36.54266,54.83066 60.424,34.80934 z"
       style="fill:#fbc163;fill-opacity:1;fill-rule:evenodd;stroke:none;stroke-width:1.33333" />
    <path
       id="path6"
       d="m 248.06645,432.77295 0.004,-81.37999 -11.44533,-14.07334 -57.824,55.55067 z"
       style="fill:#e8e960;fill-opacity:1;fill-rule:evenodd;stroke:none;stroke-width:1.33333" />
    <path
       id="path7"
       d="m 128.24285,363.74561 105.55866,-29.89733 -41.77466,-51.36666 -80.972,46.89599 v 24.46534 z"
       style="fill:#e7aa4d;fill-opacity:1;fill-rule:evenodd;stroke:none;stroke-width:1.33333" />
    <path
       id="path8"
       d="m 192.02672,282.48135 -36.46533,21.11867 -36.54267,54.83067 9.224,5.31466 105.56,-29.89733 z"
       style="fill:#e8b361;fill-opacity:1;fill-rule:evenodd;stroke:none;stroke-width:1.33333" />
    <path
       id="path9"
       d="m 111.48952,329.12455 -21.613333,12.51867 21.613333,12.452 z"
       style="fill:#e9ea37;fill-opacity:1;fill-rule:evenodd;stroke:none;stroke-width:1.33333" />
    <path
       id="path10"
       d="m 178.32232,234.13495 -88.455998,81.33734 -0.0013,22.39999 107.507998,-62.26533 z"
       style="fill:#f9be1e;fill-opacity:1;fill-rule:evenodd;stroke:none;stroke-width:1.33333" />
    <path
       id="path11"
       d="m 197.37298,275.60628 -19.05067,-41.472 -65.716,60.428 -5.26133,33.18534 z"
       style="fill:#f9c63a;fill-opacity:1;fill-rule:evenodd;stroke:none;stroke-width:1.33333" />
    <path
       id="path12"
       d="m 174.26685,203.73521 -43.304,-24.94666 -12.66133,79.85733 18.512,40.29866 z"
       style="fill:#f1b351;fill-opacity:1;fill-rule:evenodd;stroke:none;stroke-width:1.33333" />
    <path
       id="path13"
       d="m 174.16405,203.67601 -27.936,71.344 10.92533,23.88 90.912,-52.652 z"
       style="fill:#f8a21b;fill-opacity:1;fill-rule:evenodd;stroke:none;stroke-width:1.33333" />
    <path
       id="path14"
       d="m 89.872319,196.75481 28.060001,61.08667 52.77866,-45.068 3.556,-9.03867 -84.393327,-48.616 z"
       style="fill:#de9d3b;fill-opacity:1;fill-rule:evenodd;stroke:none;stroke-width:1.33333" />
    <path
       id="path15"
       d="m 118.50645,257.35241 52.20533,-44.58 3.55467,-9.03733 -43.304,-24.94666 z"
       style="fill:#e0a750;fill-opacity:1;fill-rule:evenodd;stroke:none;stroke-width:1.33333" />
    <path
       id="path16"
       d="m 174.16405,203.67601 -3.61733,9.23867 7.91733,-6.76133 z"
       style="fill:#e8981e;fill-opacity:1;fill-rule:evenodd;stroke:none;stroke-width:1.33333" />
    <path
       id="path17"
       d="M 168.85285,217.49828 89.872851,178.63562 v 18.11866 l 46.939999,102.19067 z"
       style="fill:#f1b452;fill-opacity:1;fill-rule:evenodd;stroke:none;stroke-width:1.33333" />
    <path
       id="path18"
       d="m 178.32232,234.13495 -65.716,60.42667 -3.23733,20.428 15.89333,2.38133 72.11067,-41.764 z"
       style="fill:#face55;fill-opacity:1;fill-rule:evenodd;stroke:none;stroke-width:1.33333" />
    <path
       id="path19"
       d="m 136.81312,298.94481 32.04,-81.44666 -40.84133,-20.096 -9.71067,61.24266 z"
       style="fill:#f2be67;fill-opacity:1;fill-rule:evenodd;stroke:none;stroke-width:1.33333" />
    <path
       id="path20"
       d="m 153.23312,257.20535 -25.024,23.00934 8.604,18.73066 z"
       style="fill:#fabc4e;fill-opacity:1;fill-rule:evenodd;stroke:none;stroke-width:1.33333" />
    <path
       id="path21"
       d="m 157.15298,298.90055 81.36533,-47.124 -69.75066,-34.31999 -22.54,57.56399 z"
       style="fill:#f9ae36;fill-opacity:1;fill-rule:evenodd;stroke:none;stroke-width:1.33333" />
    <path
       id="path22"
       d="m 89.872979,178.63561 v 18.11867 l 28.060001,61.088 48.58933,-41.49067 z"
       style="fill:#e2a952;fill-opacity:1;fill-rule:evenodd;stroke:none;stroke-width:1.33333" />
    <path
       id="path23"
       d="m 166.52218,216.35108 -38.51067,-18.94933 -9.50533,59.95067 z"
       style="fill:#e4b364;fill-opacity:1;fill-rule:evenodd;stroke:none;stroke-width:1.33333" />
    <path
       id="path24"
       d="m 89.866579,316.27561 16.458671,12.064 34.93466,-20.23466 -51.387997,-111.87067 z"
       style="fill:#eaeb36;fill-opacity:1;fill-rule:evenodd;stroke:none;stroke-width:1.33333" />
    <path
       id="path25"
       d="m 138.16405,123.01841 93.068,109.68533 16.84266,9.75467 -0.005,-137.17066 h -79.12533 z"
       style="fill:#ef3d49;fill-opacity:1;fill-rule:evenodd;stroke:none;stroke-width:1.33333" />
    <path
       id="path26"
       d="m 188.73832,208.09268 -26.384,-57.28799 -24.21867,-27.76934 -48.259995,27.8 z"
       style="fill:#e76a77;fill-opacity:1;fill-rule:evenodd;stroke:none;stroke-width:1.33333" />
    <path
       id="path27"
       d="m 248.06898,105.88041 -0.001,-46.173328 -80.15334,46.173328 z"
       style="fill:#ea4e9a;fill-opacity:1;fill-rule:evenodd;stroke:none;stroke-width:1.33333" />
    <path
       id="path28"
       d="m 161.56378,149.87135 27.09733,58.17734 58.288,33.75866 z"
       style="fill:#f68c69;fill-opacity:1;fill-rule:evenodd;stroke:none;stroke-width:1.33333" />
    <path
       id="path29"
       d="m 180.94272,173.43508 49.672,58.54 17.46,6.06534 -0.003,-72.73334 z"
       style="fill:#bc3743;fill-opacity:1;fill-rule:evenodd;stroke:none;stroke-width:1.33333" />
    <path
       id="path30"
       d="m 188.73832,208.09268 -15.53067,-33.72133 -35.312,4.276 z"
       style="fill:#b55764;fill-opacity:1;fill-rule:evenodd;stroke:none;stroke-width:1.33333" />
    <path
       id="path31"
       d="m 183.19525,173.16228 -10.208,1.236 15.67467,33.65067 40.35466,23.372 12.23333,4.248 z"
       style="fill:#bf6f5b;fill-opacity:1;fill-rule:evenodd;stroke:none;stroke-width:1.33333" />
    <path
       id="path32"
       d="m 225.67058,105.28735 22.39867,14.66 v -14.66 z"
       style="fill:#f15559;fill-opacity:1;fill-rule:evenodd;stroke:none;stroke-width:1.33333" />
    <path
       id="path33"
       d="m 248.06698,59.707214 -48.952,28.198666 27.46133,17.97467 h 21.492 z"
       style="fill:#ed66a6;fill-opacity:1;fill-rule:evenodd;stroke:none;stroke-width:1.33333" />
    <path
       id="path34"
       d="m 251.04298,242.45468 85.636,-49.332 v -62.81199 h -85.64133 z"
       style="fill:#ef3d49;fill-opacity:1;fill-rule:evenodd;stroke:none;stroke-width:1.33333" />
    <path
       id="path35"
       d="m 251.03512,59.702684 0.003,71.098666 h 122.75599 z"
       style="fill:#f36272;fill-opacity:1;fill-rule:evenodd;stroke:none;stroke-width:1.33333" />
    <path
       id="path36"
       d="m 409.23312,151.32708 -35.42667,-20.51866 h -37.784 v 62.692 z"
       style="fill:#e8328c;fill-opacity:1;fill-rule:evenodd;stroke:none;stroke-width:1.33333" />
    <path
       id="path37"
       d="m 251.04032,193.39801 0.003,49.056 85.63599,-49.33066 v -10.09334 z"
       style="fill:#bc3743;fill-opacity:1;fill-rule:evenodd;stroke:none;stroke-width:1.33333" />
    <path
       id="path38"
       d="m 358.86192,180.34401 -22.84,2.76534 v 10.392 z"
       style="fill:#b73073;fill-opacity:1;fill-rule:evenodd;stroke:none;stroke-width:1.33333" />
    <path
       id="path39"
       d="M 336.67832,184.44028 V 130.31095 H 253.97699 Z"
       style="fill:#f15559;fill-opacity:1;fill-rule:evenodd;stroke:none;stroke-width:1.33333" />
    <path
       id="path40"
       d="m 251.03512,59.702684 0.003,68.685336 3.68933,2.41333 h 119.06666 z"
       style="fill:#f57681;fill-opacity:1;fill-rule:evenodd;stroke:none;stroke-width:1.33333" />
    <path
       id="path41"
       d="m 373.80725,130.80948 -12.64267,-7.32266 -22.65066,7.32266 z"
       style="fill:#f68c69;fill-opacity:1;fill-rule:evenodd;stroke:none;stroke-width:1.33333" />
    <path
       id="path42"
       d="m 373.80592,130.80815 h -37.784 v 53.20267 l 7.712,5.048 65.49867,-37.732 z"
       style="fill:#ea4e9a;fill-opacity:1;fill-rule:evenodd;stroke:none;stroke-width:1.33333" />
    <path
       id="path43"
       d="m 336.67832,183.02948 -1.81733,0.22134 1.81733,1.18933 z"
       style="fill:#c44d52;fill-opacity:1;fill-rule:evenodd;stroke:none;stroke-width:1.33333" />
    <path
       id="path44"
       d="m 336.02218,183.10895 v 0.90134 l 7.712,5.048 15.128,-8.71467 z"
       style="fill:#c04882;fill-opacity:1;fill-rule:evenodd;stroke:none;stroke-width:1.33333" />
    <path
       id="path45"
       d="m 337.94138,275.99175 v 20.59734 l 15.59733,9.03466 55.68667,-53.496 -0.004,-83.08399 z"
       style="fill:#687bc1;fill-opacity:1;fill-rule:evenodd;stroke:none;stroke-width:1.33333" />
    <path
       id="path46"
       d="m 409.23045,337.87721 -0.005,-86.75066 -56.33334,54.12133 z"
       style="fill:#6f4eac;fill-opacity:1;fill-rule:evenodd;stroke:none;stroke-width:1.33333" />
    <path
       id="path47"
       d="m 337.94272,196.18575 -0.001,79.13734 66.84533,-18.932 4.43866,-4.264 -0.005,-97.00134 z"
       style="fill:#455a95;fill-opacity:1;fill-rule:evenodd;stroke:none;stroke-width:1.33333" />
    <path
       id="path48"
       d="m 338.49085,275.16748 66.296,-18.776 4.43866,-4.264 -0.004,-83.08399 z"
       style="fill:#54649b;fill-opacity:1;fill-rule:evenodd;stroke:none;stroke-width:1.33333" />
    <path
       id="path49"
       d="m 409.22525,255.13361 v -4.00666 l -5.916,5.68266 z"
       style="fill:#5b448c;fill-opacity:1;fill-rule:evenodd;stroke:none;stroke-width:1.33333" />
    <path
       id="path50"
       d="M 337.95178,296.59588 V 196.17989 l -86.92133,50.07333 z"
       style="fill:#45447e;fill-opacity:1;fill-rule:evenodd;stroke:none;stroke-width:1.33333" />
    <path
       id="path51"
       d="m 337.94138,296.58935 15.59733,9.03334 47.41467,-45.54934 -55.484,-68.22266 -7.52667,4.33467 z"
       style="fill:#687bc1;fill-opacity:1;fill-rule:evenodd;stroke:none;stroke-width:1.33333" />
    <path
       id="path52"
       d="m 328.03778,290.85375 9.91467,5.74267 v -20.61867 z"
       style="fill:#59548b;fill-opacity:1;fill-rule:evenodd;stroke:none;stroke-width:1.33333" />
    <path
       id="path53"
       d="m 372.15232,224.66095 -34.21067,51.33067 v 20.59733 l 15.59734,9.03467 47.41466,-45.54933 z"
       style="fill:#7b89c9;fill-opacity:1;fill-rule:evenodd;stroke:none;stroke-width:1.33333" />
    <path
       id="path54"
       d="m 409.23045,337.87721 -0.004,-67.62933 -8.73067,-10.73466 -47.604,45.73466 z"
       style="fill:#8060b6;fill-opacity:1;fill-rule:evenodd;stroke:none;stroke-width:1.33333" />
    <path
       id="path55"
       d="m 251.02992,246.25348 62.25066,36.05334 24.67067,-6.98667 v -79.14 z"
       style="fill:#3e3f6d;fill-opacity:1;fill-rule:evenodd;stroke:none;stroke-width:1.33333" />
    <path
       id="path56"
       d="m 399.23565,257.96308 -53.76667,-66.11199 -7.52666,4.33466 -10e-4,79.13733 z"
       style="fill:#5a69a1;fill-opacity:1;fill-rule:evenodd;stroke:none;stroke-width:1.33333" />
    <path
       id="path57"
       d="m 399.23565,257.96308 -27.084,-33.30266 -33.66133,50.50666 z"
       style="fill:#6873a6;fill-opacity:1;fill-rule:evenodd;stroke:none;stroke-width:1.33333" />
    <path
       id="path58"
       d="m 320.96872,290.32121 -48.98267,-28.21866 -20.97066,31.46666 -0.004,63.956 z"
       style="fill:#687bc1;fill-opacity:1;fill-rule:evenodd;stroke:none;stroke-width:1.33333" />
    <path
       id="path59"
       d="m 320.64712,290.13495 -69.636,66.89867 -0.003,75.74133 158.19867,-91.62133 z"
       style="fill:#6f4eac;fill-opacity:1;fill-rule:evenodd;stroke:none;stroke-width:1.33333" />
    <path
       id="path60"
       d="m 251.01685,250.02295 -0.004,86.87733 30.44533,-8.62399 39.51067,-37.95467 z"
       style="fill:#455a95;fill-opacity:1;fill-rule:evenodd;stroke:none;stroke-width:1.33333" />
    <path
       id="path61"
       d="m 271.98565,262.10241 -20.97067,31.46667 -0.001,43.332 30.444,-8.624 39.51066,-37.956 z"
       style="fill:#54649b;fill-opacity:1;fill-rule:evenodd;stroke:none;stroke-width:1.33333" />
    <path
       id="path62"
       d="m 352.11845,308.26521 -31.472,-18.13066 -39.91733,38.34933 z"
       style="fill:#5b448c;fill-opacity:1;fill-rule:evenodd;stroke:none;stroke-width:1.33333" />
    <path
       id="path63"
       d="m 251.01165,357.52561 26.78667,-25.732 -26.784,-32.93333 z"
       style="fill:#7b89c9;fill-opacity:1;fill-rule:evenodd;stroke:none;stroke-width:1.33333" />
    <path
       id="path64"
       d="m 251.00912,432.77561 74.04,-42.88133 -47.476,-58.37733 -26.56133,25.516 z"
       style="fill:#8060b6;fill-opacity:1;fill-rule:evenodd;stroke:none;stroke-width:1.33333" />
    <path
       id="path65"
       d="m 276.16018,329.77815 -25.14533,-30.91733 -0.001,38.04 z"
       style="fill:#5a69a1;fill-opacity:1;fill-rule:evenodd;stroke:none;stroke-width:1.33333" />
    <path
       id="path66"
       d="m 251.01432,298.86028 -0.001,38.04 25.14666,-7.12266 z"
       style="fill:#6873a6;fill-opacity:1;fill-rule:evenodd;stroke:none;stroke-width:1.33333" />
  </g>
</svg>
