<?xml version="1.0" encoding="UTF-8" standalone="no"?>
<!-- Created with Inkscape (http://www.inkscape.org/) -->

<svg
   width="2000.0001"
   height="2000.0001"
   viewBox="0 0 529.1667 529.1667"
   version="1.1"
   id="svg1"
   xmlns="http://www.w3.org/2000/svg"
   xmlns:svg="http://www.w3.org/2000/svg">
  <defs
     id="defs1" />
  <g
     id="layer1"
     transform="translate(-205.32365,90.227848)">
    <rect
       style="fill:#462bfb;fill-opacity:1;stroke-width:0.252771"
       id="rect1-6"
       width="529.16669"
       height="529.16669"
       x="205.32364"
       y="-90.227852" />
  </g>
  <g
     id="layer2"
     transform="translate(-539.16669)">
    <path
       style="font-size:293.333px;line-height:1;font-family:SAIGO;-inkscape-font-specification:SAIGO;text-align:center;text-anchor:middle;white-space:pre;fill:#ffffff"
       d="M 309.95179,29.333301 H 203.76524 c -4.98666,0 -9.09333,4.106662 -9.09333,9.386656 v 28.746635 h 4.10667 V 38.719957 c 0,-2.93333 2.05333,-5.279994 4.98666,-5.279994 h 33.14663 V 230.55974 h -14.37332 v 4.10667 h 68.93326 v -4.10667 H 278.85849 V 33.439963 h 31.0933 c 2.93333,0 5.27999,2.346664 5.27999,5.279994 v 28.746635 h 4.10666 V 38.719957 c 0,-5.279994 -4.10666,-9.386656 -9.38665,-9.386656 z M 274.75183,230.55974 h -6.74666 V 33.439963 h 6.74666 z M 486.24505,33.439963 v -4.106662 h -34.61329 v 4.106662 h 15.25332 V 124.66653 H 402.64515 V 33.439963 h 12.31998 v -4.106662 h -68.93325 v 4.106662 h 14.37331 V 230.55974 h -14.37331 v 4.10667 h 68.93325 v -4.10667 H 402.64515 V 128.77319 h 64.23993 v 101.78655 h -15.25332 v 4.10667 h 34.61329 v -4.10667 H 470.99174 V 33.439963 Z M 391.49849,230.55974 V 33.439963 h 7.04 V 230.55974 Z M 612.67142,67.466592 V 38.719957 c 0,-5.279994 -4.10666,-9.386656 -9.09332,-9.386656 h -81.83991 c -4.98666,0 -9.38666,4.106662 -9.38666,9.386656 V 225.57308 c 0,4.98666 4.4,9.09333 9.38666,9.09333 h 81.83991 c 4.98666,0 9.09332,-4.10667 9.09332,-9.09333 v -28.74663 h -3.81333 v 28.74663 c 0,2.64 -2.34666,4.98666 -5.27999,4.98666 H 556.64482 V 128.77319 h 24.63997 v 12.31999 h 4.10666 v -28.74664 h -4.10666 v 12.31999 H 556.64482 V 33.439963 h 46.93328 c 2.93333,0 5.27999,2.346664 5.27999,5.279994 V 67.466592 Z M 552.53816,230.55974 h -7.04 V 33.439963 h 7.04 z m 299.49267,-22.87997 c 0,0 -1.76,-1.76 -3.22666,-4.4 -1.46667,-2.63999 -1.46667,-7.03999 -1.46667,-7.03999 V 38.719957 c 0,-5.279994 -4.39999,-9.386656 -9.38666,-9.386656 h -93.86656 c -5.27999,0 -9.38665,4.106662 -9.38665,9.386656 V 225.57308 c 0,4.98666 4.10666,9.09333 9.38665,9.09333 h 93.86656 c 4.98667,0 9.38666,-4.10667 9.38666,-9.09333 h -4.10666 c 0,2.64 -2.34667,4.98666 -5.28,4.98666 H 778.69758 V 33.439963 h 59.25326 c 2.93333,0 5.28,2.346664 5.28,5.279994 V 196.23978 c 0,0.29334 0,5.28 2.05333,9.09333 1.76,2.93333 4.10666,5.27999 4.10666,5.27999 l 26.10664,23.46664 2.93333,-2.93333 z m -77.43991,22.87997 h -6.74666 V 33.439963 h 6.74666 z M 1038.8841,29.333301 h -34.6133 v 4.106662 h 15.2533 V 225.57308 c 0,2.64 -2.3466,4.98666 -5.2799,4.98666 H 954.99088 V 33.439963 h 12.61332 v -4.106662 h -68.93325 v 4.106662 h 12.31998 V 225.57308 c 0,4.98666 4.10666,9.09333 9.38666,9.09333 h 93.86661 c 4.9866,0 9.3866,-4.10667 9.3866,-9.09333 V 33.439963 h 15.2533 z M 950.88422,230.55974 h -6.74666 V 33.439963 h 6.74666 z M 1139.7905,33.439963 v -4.106662 h -68.9333 v 4.106662 h 14.6667 V 230.55974 h -14.6667 v 4.10667 h 68.9333 v -4.10667 h -12.32 V 33.439963 Z m -16.4267,197.119777 h -7.04 V 33.439963 h 7.04 z M 1277.0705,67.466592 V 38.719957 c 0,-5.279994 -4.1066,-9.386656 -9.0933,-9.386656 h -81.8399 c -4.9867,0 -9.3867,4.106662 -9.3867,9.386656 V 225.57308 c 0,4.98666 4.4,9.09333 9.3867,9.09333 h 81.8399 c 4.9867,0 9.0933,-4.10667 9.0933,-9.09333 v -28.74663 h -3.8133 v 28.74663 c 0,2.64 -2.3467,4.98666 -5.28,4.98666 h -46.9333 V 33.439963 h 46.9333 c 2.9333,0 5.28,2.346664 5.28,5.279994 v 28.746635 z m -60.1332,163.093148 h -7.04 V 33.439963 h 7.04 z m 211.1996,0 v -96.50656 c 0,-4.98666 -4.1067,-9.38665 -9.0933,-9.38665 h -4.6933 c 1.1733,-1.46667 1.76,-3.22666 1.76,-4.98666 V 33.439963 h 15.2533 v -4.106662 h -34.6133 v 4.106662 h 15.2533 v 86.239907 c 0,2.93333 -2.3467,4.98666 -5.28,4.98666 h -46.9333 V 33.439963 h 12.32 v -4.106662 h -68.9333 v 4.106662 h 14.6667 V 230.55974 h -14.6667 v 4.10667 h 68.9333 v -4.10667 h -12.32 V 128.77319 h 59.2533 c 2.64,0 4.9866,2.34666 4.9866,5.27999 v 96.50656 h -15.2533 v 4.10667 h 34.6133 v -4.10667 z M 1348.6437,33.439963 h 7.04 V 230.55974 h -7.04 z M 225.17829,422.43615 h -4.39999 c 0.88,-1.46666 1.46666,-3.22666 1.46666,-4.98666 v -80.95991 c 0,-5.27999 -4.10666,-9.38666 -9.09332,-9.38666 h -81.83991 c -4.98666,0 -9.38665,4.10667 -9.38665,9.38666 v 186.85313 c 0,4.98666 4.39999,9.09332 9.38665,9.09332 h 93.86656 c 5.28,0 9.38666,-4.10666 9.38666,-9.09332 v -91.5199 c 0,-4.98666 -4.10666,-9.38666 -9.38666,-9.38666 z m -70.10658,-91.22656 h 7.03999 v 197.11978 h -7.03999 z m 63.35992,5.27999 v 80.95991 c 0,2.93333 -2.34666,4.98666 -5.27999,4.98666 h -46.93328 v -91.22656 h 46.93328 c 2.93333,0 5.27999,2.34666 5.27999,5.27999 z m 12.02666,186.85313 c 0,2.63999 -2.34667,4.98666 -5.28,4.98666 H 166.21836 V 426.54281 h 58.95993 c 2.93333,0 5.28,2.34667 5.28,5.28 z m 161.03995,4.98666 v -96.50656 c 0,-4.98666 -4.4,-9.38666 -9.38666,-9.38666 h -4.39999 c 0.88,-1.46666 1.46666,-3.22666 1.46666,-4.98666 v -80.95991 c 0,-5.27999 -4.10666,-9.38666 -9.09332,-9.38666 h -81.83991 c -5.27999,0 -9.38665,4.10667 -9.38665,9.38666 v 191.83979 h -12.31999 v 4.10666 h 68.93326 v -4.10666 H 322.85832 V 426.54281 h 59.25326 c 2.93333,0 5.28,2.34667 5.28,5.28 v 96.50656 h -15.25332 v 4.10666 h 34.6133 v -4.10666 z m -79.49325,0 V 331.20959 h 6.74666 v 197.11978 z m 63.0666,-191.83979 v 80.95991 c 0,2.93333 -2.34666,4.98666 -4.98666,4.98666 h -47.22661 v -91.22656 h 47.22661 c 2.64,0 4.98666,2.34666 4.98666,5.27999 z m 166.90633,-9.38666 h -93.86657 c -4.98666,0 -9.38665,4.10667 -9.38665,9.38666 v 186.85313 c 0,4.98666 4.39999,9.09332 9.38665,9.09332 h 93.86657 c 5.27999,0 9.38665,-4.10666 9.38665,-9.09332 V 336.48958 c 0,-5.27999 -4.10666,-9.38666 -9.38665,-9.38666 z m -70.10659,4.10667 h 7.03999 v 197.11978 h -7.03999 z m 75.38658,192.13312 c 0,2.63999 -2.34666,4.98666 -5.27999,4.98666 H 483.01798 V 331.20959 h 58.95994 c 2.93333,0 5.27999,2.34666 5.27999,5.27999 z M 792.1911,327.10292 h -34.61329 v 4.10667 h 15.25331 v 185.97312 c 0,2.93333 -2.34666,5.28 -5.27999,5.28 l -59.25327,2.05333 V 331.20959 h 15.25332 v -4.10667 h -34.6133 v 4.10667 h 15.25332 v 193.59978 l -64.23993,2.34666 V 331.20959 h 12.31999 v -4.10667 H 583.338 v 4.10667 h 12.31999 v 192.13312 c 0,4.98666 4.39999,9.09332 9.38665,9.09332 l 162.79982,-5.86666 c 4.98666,0 9.09333,-4.4 9.09333,-9.38666 V 331.20959 H 792.1911 Z M 635.84461,527.44937 h -7.03999 V 331.20959 h 7.03999 z m 305.35984,0.88 v -185.6798 c 0,-5.27999 -4.10666,-9.38665 -9.09333,-9.38665 l -94.15989,-6.16 c -4.98666,0 -9.09332,4.10667 -9.09332,9.38666 v 191.83979 h -12.61332 v 4.10666 h 68.93325 v -4.10666 H 872.85786 V 333.55625 l 59.25326,3.81333 c 2.64,0 4.98667,2.34666 4.98667,5.27999 v 185.6798 h -15.25332 v 4.10666 h 34.61329 v -4.10666 z m -72.45326,0 H 861.7112 V 332.67625 l 7.03999,0.58667 z M 1172.0571,327.10292 h -81.8399 c -5.28,0 -9.3866,4.10667 -9.3866,9.38666 v 191.83979 h -12.32 v 4.10666 h 68.9332 v -4.10666 h -12.6133 V 426.54281 h 24.9333 v 12.31999 h 3.8133 v -28.74664 h -3.8133 v 12.31999 h -24.9333 v -91.22656 h 47.2266 c 2.64,0 4.9867,2.34666 4.9867,5.27999 v 28.74663 h 4.1067 v -28.74663 c 0,-5.27999 -4.1067,-9.38666 -9.0934,-9.38666 z m -51.3332,201.22645 h -6.7467 V 331.20959 h 6.7467 z m 203.573,-201.22645 h -93.8665 c -4.9867,0 -9.3867,4.10667 -9.3867,9.38666 v 186.85313 c 0,4.98666 4.4,9.09332 9.3867,9.09332 h 93.8665 c 5.28,0 9.3867,-4.10666 9.3867,-9.09332 V 336.48958 c 0,-5.27999 -4.1067,-9.38666 -9.3867,-9.38666 z m -70.1065,4.10667 h 7.0399 v 197.11978 h -7.0399 z m 75.3865,192.13312 c 0,2.63999 -2.3466,4.98666 -5.28,4.98666 H 1265.337 V 331.20959 h 58.9599 c 2.9334,0 5.28,2.34666 5.28,5.27999 z m 177.4667,-192.13312 h 15.84 v -4.10667 h -34.6133 v 4.10667 h 14.0799 l -39.5999,89.46656 -39.8933,-89.46656 h 11.7333 v -4.10667 h -68.9332 v 4.10667 h 12.3199 l 41.9467,94.45322 -42.24,102.66656 h -12.0266 v 4.10666 h 68.9332 v -4.10666 h -11.7333 l 39.8933,-97.38656 39.8933,97.38656 h -14.3733 v 4.10666 h 34.6133 v -4.10666 h -15.84 l -42.24,-102.66656 z m -88.5866,197.11978 h -6.7467 l 41.9467,-102.66656 -41.9467,-94.45322 h 6.7467 l 41.9466,94.45322 z M 91.858554,624.87255 H 22.925297 v 4.10666 h 14.66665 v 196.53311 c -4.399995,0.58667 -9.386656,0.58667 -14.66665,0.58667 v 4.10666 c 53.973274,0 56.613271,-21.99997 56.613271,-58.37327 V 628.97921 H 91.858554 Z M 75.431905,771.83238 c 0,17.59998 -0.586666,30.79997 -7.039992,39.89329 V 628.97921 h 7.039992 z M 266.97851,624.87255 h -34.6133 v 4.10666 h 15.25332 v 192.13312 c 0,2.64 -2.34666,4.98666 -5.27999,4.98666 H 183.08527 V 628.97921 h 12.61332 v -4.10666 h -68.93326 v 4.10666 h 12.31999 v 192.13312 c 0,4.98666 4.10666,9.09332 9.38665,9.09332 h 93.86657 c 4.98666,0 9.38665,-4.10666 9.38665,-9.09332 V 628.97921 h 15.25332 z m -87.9999,201.22644 h -6.74666 V 628.97921 h 6.74666 z m 305.65285,0 V 640.4192 c 0,-5.28 -4.10666,-9.38666 -9.09333,-9.38666 l -162.79981,-6.15999 c -4.98667,0 -9.38666,4.10666 -9.38666,9.38665 v 191.83979 h -12.31999 v 4.10666 h 68.93326 v -4.10666 H 347.64494 V 630.44587 l 64.23993,2.34667 v 193.30645 h -15.25331 v 4.10666 h 34.61329 v -4.10666 H 415.99153 V 632.79254 l 59.5466,2.34666 c 2.64,0 4.98667,2.34667 4.98667,5.28 v 185.67979 h -15.25332 v 4.10666 h 34.61329 v -4.10666 z m -141.09318,0 h -7.03999 V 629.85921 l 7.03999,0.29333 z m 283.9465,-201.22644 h -81.83991 c -4.98666,0 -9.09332,4.10666 -9.09332,9.38665 v 191.83979 h -12.61332 v 4.10666 h 68.93326 v -4.10666 H 580.5515 V 724.31244 h 46.93328 c 4.98666,0 9.38666,-4.10667 9.38666,-9.09333 V 634.2592 c 0,-5.27999 -4.4,-9.38665 -9.38666,-9.38665 z M 569.40484,826.09899 V 628.97921 h 7.04 v 197.11978 z m 63.35993,-110.87988 c 0,2.93333 -2.34666,4.98666 -5.27999,4.98666 H 580.5515 v -91.22656 h 46.93328 c 2.93333,0 5.27999,2.34666 5.27999,5.27999 z M 771.21782,663.00584 V 634.2592 c 0,-5.27999 -4.10666,-9.38665 -9.09332,-9.38665 h -81.83991 c -4.98666,0 -9.38666,4.10666 -9.38666,9.38665 v 186.85313 c 0,4.98666 4.4,9.09332 9.38666,9.09332 h 81.83991 c 4.98666,0 9.09332,-4.10666 9.09332,-9.09332 v -28.74664 h -3.81333 v 28.74664 c 0,2.64 -2.34666,4.98666 -5.27999,4.98666 H 715.19122 V 724.31244 h 24.63997 v 12.31998 h 4.10666 v -28.74663 h -4.10666 v 12.31998 h -24.63997 v -91.22656 h 46.93328 c 2.93333,0 5.27999,2.34666 5.27999,5.27999 v 28.74664 z m -60.13327,163.09315 h -7.03999 V 628.97921 h 7.03999 z m 206.79971,-185.67979 -9.09332,-9.38666 -94.15989,-6.15999 c -5.28,0 -9.38666,4.10666 -9.38666,9.38665 v 186.85313 c 0,4.98666 4.10666,9.09332 9.38666,9.09332 l 93.86656,-5.86666 c 4.98666,0 9.38665,-4.39999 9.38665,-9.38665 z m -79.49324,-9.97333 6.74666,0.58667 v 193.30645 l -6.74666,0.29333 z m 75.38658,184.50647 c 0,2.93333 -2.34666,5.27999 -5.27999,5.27999 l -59.25327,3.81333 V 631.32587 l 59.25327,3.81333 c 2.93333,0 5.27999,2.34667 5.27999,5.28 z m 235.253,-190.07979 h -93.8666 c -4.9867,0 -9.3867,4.10666 -9.3867,9.38665 v 186.85313 c 0,4.98666 4.4,9.09332 9.3867,9.09332 h 93.8666 c 5.28,0 9.3866,-4.10666 9.3866,-9.09332 V 634.2592 c 0,-5.27999 -4.1066,-9.38665 -9.3866,-9.38665 z m -70.1066,4.10666 h 7.04 v 197.11978 h -7.04 z m 75.3866,192.13312 c 0,2.64 -2.3467,4.98666 -5.28,4.98666 h -58.96 V 628.97921 h 58.96 c 2.9333,0 5.28,2.34666 5.28,5.27999 z m 174.8266,-196.23978 h -34.6133 v 4.10666 h 16.1333 l -60.1333,191.54645 c -1.1733,3.22667 -2.0533,4.69333 -3.5199,5.28 V 628.97921 h 12.6133 v -4.10666 h -69.2266 v 4.10666 h 12.6133 l 6.16,192.13312 c 0,4.98666 4.1067,9.09332 9.0933,9.09332 h 26.9867 c 5.5733,0 7.9199,-4.39999 9.0933,-8.50666 l 60.7199,-192.71978 h 14.08 z m -86.2399,201.22644 h -7.04 V 628.97921 h 7.04 z M 1455.5638,663.00584 V 634.2592 c 0,-5.27999 -4.1066,-9.38665 -9.0933,-9.38665 h -81.8399 c -4.9867,0 -9.3867,4.10666 -9.3867,9.38665 v 186.85313 c 0,4.98666 4.4,9.09332 9.3867,9.09332 h 81.8399 c 4.9867,0 9.0933,-4.10666 9.0933,-9.09332 v -28.74664 h -3.8133 v 28.74664 c 0,2.64 -2.3467,4.98666 -5.28,4.98666 h -46.9333 V 724.31244 h 24.64 v 12.31998 h 4.1067 v -28.74663 h -4.1067 v 12.31998 h -24.64 v -91.22656 h 46.9333 c 2.9333,0 5.28,2.34666 5.28,5.27999 v 28.74664 z m -60.1332,163.09315 h -7.04 V 628.97921 h 7.04 z m 211.1996,0 v -96.50656 c 0,-4.98666 -4.4,-9.38666 -9.3866,-9.38666 h -4.4 c 0.88,-1.46666 1.4666,-3.22666 1.4666,-4.98666 V 634.2592 c 0,-5.27999 -4.1066,-9.38665 -9.0933,-9.38665 h -81.8399 c -5.28,0 -9.3867,4.10666 -9.3867,9.38665 v 191.83979 h -12.32 v 4.10666 h 68.9333 v -4.10666 h -12.6133 V 724.31244 h 59.2533 c 2.9333,0 5.2799,2.34666 5.2799,5.27999 v 96.50656 h -15.2533 v 4.10666 h 34.6133 v -4.10666 z m -79.4932,0 V 628.97921 h 6.7466 v 197.11978 z m 63.0666,-191.83979 v 80.95991 c 0,2.93333 -2.3467,4.98666 -4.9867,4.98666 h -47.2266 v -91.22656 h 47.2266 c 2.64,0 4.9867,2.34666 4.9867,5.27999 z M 361.13853,922.64214 H 254.95198 c -4.98666,0 -9.09332,4.10666 -9.09332,9.38665 v 28.74664 h 4.10666 v -28.74664 c 0,-2.93333 2.05333,-5.27999 4.98666,-5.27999 h 33.14663 v 197.1198 H 273.7253 v 4.1066 h 68.93325 v -4.1066 H 330.04523 V 926.7488 h 31.0933 c 2.93333,0 5.28,2.34666 5.28,5.27999 v 28.74664 h 4.10666 v -28.74664 c 0,-5.27999 -4.10666,-9.38665 -9.38666,-9.38665 z m -35.19996,201.22646 h -6.74666 V 926.7488 h 6.74666 z M 537.4318,926.7488 v -4.10666 h -34.61329 v 4.10666 h 15.25331 v 91.2266 h -64.23993 v -91.2266 h 12.31999 v -4.10666 h -68.93326 v 4.10666 h 14.37332 v 197.1198 h -14.37332 v 4.1066 h 68.93326 v -4.1066 H 453.83189 V 1022.082 h 64.23993 v 101.7866 h -15.25331 v 4.1066 h 34.61329 v -4.1066 H 522.17848 V 926.7488 Z m -94.74656,197.1198 V 926.7488 h 7.03999 v 197.1198 z M 663.85817,960.77543 v -28.74664 c 0,-5.27999 -4.10666,-9.38665 -9.09332,-9.38665 h -81.83991 c -4.98666,0 -9.38666,4.10666 -9.38666,9.38665 v 186.85311 c 0,4.9867 4.4,9.0933 9.38666,9.0933 h 81.83991 c 4.98666,0 9.09332,-4.1066 9.09332,-9.0933 v -28.7466 h -3.81333 v 28.7466 c 0,2.64 -2.34666,4.9867 -5.27999,4.9867 H 607.83157 V 1022.082 h 24.63997 v 12.32 h 4.10666 v -28.7466 h -4.10666 v 12.32 h -24.63997 v -91.2266 h 46.93328 c 2.93333,0 5.27999,2.34666 5.27999,5.27999 v 28.74664 z M 603.7249,1123.8686 h -7.03999 V 926.7488 h 7.03999 z m 282.77269,-33.7333 v 28.7466 c 0,2.64 -2.34666,4.9867 -5.27999,4.9867 H 834.28432 V 926.7488 h 12.61332 v -4.10666 h -68.93326 v 4.10666 h 12.31999 v 192.1331 c 0,4.9867 4.10666,9.0933 9.38665,9.0933 h 81.54658 c 5.27999,0 9.38666,-4.1066 9.38666,-9.0933 v -28.7466 z m -56.0266,33.7333 H 823.431 V 926.7488 h 7.03999 z m 214.13311,0 V 932.02879 c 0,-5.27999 -4.4,-9.38665 -9.3867,-9.38665 h -93.86657 c -5.27999,0 -9.38665,4.10666 -9.38665,9.38665 v 191.83981 h -12.31999 v 4.1066 h 68.93326 v -4.1066 H 975.96413 V 1022.082 h 64.53327 v 101.7866 h -15.2533 v 4.1066 h 34.6133 v -4.1066 z m -79.49329,0 V 926.7488 h 6.74666 v 197.1198 z m 10.85332,-105.8932 v -91.2266 h 59.25327 c 2.9333,0 5.28,2.34666 5.28,5.27999 v 85.94661 z m 228.79957,100.9065 c 0,2.64 -2.3466,4.9867 -5.2799,4.9867 h -71.28 l 77.1466,-180.98648 c 0.88,-2.05333 3.52,-8.79999 3.52,-10.85333 0,-5.27999 -4.1067,-9.38665 -9.3866,-9.38665 h -104.1333 c -4.9866,0 -9.0933,4.10666 -9.0933,9.38665 v 28.74664 h 4.1067 v -28.74664 c 0,-2.93333 2.3466,-5.27999 4.9866,-5.27999 h 71.28 l -77.1466,181.2798 c -0.88,2.0533 -3.52,8.5067 -3.52,10.8533 0,4.9867 4.4,9.0933 9.3866,9.0933 h 104.1333 c 4.9866,0 9.3866,-4.1066 9.3866,-9.0933 v -28.7466 h -4.1067 z m -114.6932,0 c 0,-1.1733 1.76,-5.5733 3.2267,-9.3866 l 77.7333,-182.7465 h 7.0399 l -84.1865,197.1198 c -2.0534,-0.5867 -3.8134,-2.64 -3.8134,-4.9867 z m 286.2928,-192.1331 h 15.84 v -4.10666 H 1357.59 v 4.10666 h 14.08 l -39.5999,89.4666 -39.8933,-89.4666 h 11.7333 v -4.10666 h -68.9333 v 4.10666 h 12.32 l 44.88,100.9066 v 96.2132 h -13.7867 v 4.1066 h 69.2266 v -4.1066 h -13.4933 v -102.0799 z m -53.3866,197.1198 V 1021.202 l -41.9466,-94.4532 h 6.7467 l 42.2399,95.0399 v 102.0799 z m -630.0792,112.0898 -9.09333,-9.3866 -94.15989,-6.16 c -5.28,0 -9.38666,4.1067 -9.38666,9.3866 v 186.8532 c 0,4.9866 4.10666,9.0933 9.38666,9.0933 l 93.86656,-5.8667 c 4.98666,0 9.38666,-4.4 9.38666,-9.3866 z m -79.49325,-9.9733 6.74666,0.5867 v 193.3064 l -6.74666,0.2934 z m 75.38658,184.5065 c 0,2.9333 -2.34666,5.28 -5.27999,5.28 l -59.25327,3.8133 v -192.7198 l 59.25327,3.8133 c 2.93333,0 5.27999,2.3467 5.27999,5.28 z m 147.2533,-190.0798 h -93.86656 c -4.98666,0 -9.38666,4.1067 -9.38666,9.3866 v 186.8532 c 0,4.9866 4.4,9.0933 9.38666,9.0933 h 93.86656 c 5.28,0 9.38666,-4.1067 9.38666,-9.0933 v -186.8532 c 0,-5.2799 -4.10666,-9.3866 -9.38666,-9.3866 z m -70.10659,4.1067 h 7.04 v 197.1197 h -7.04 z m 75.38659,192.1331 c 0,2.64 -2.34667,4.9866 -5.28,4.9866 H 777.0842 v -197.1197 h 58.95993 c 2.93333,0 5.28,2.3466 5.28,5.2799 z m 147.2533,-100.9066 h -26.69331 c -4.98666,0 -9.09332,4.4 -9.09332,9.3867 v 28.7466 h 3.81333 v -28.7466 c 0,-2.9334 2.34666,-5.28 5.27999,-5.28 h 26.69331 c 2.93333,0 5.27999,2.3466 5.27999,5.28 v 91.5199 c 0,2.64 -2.34666,4.9866 -5.27999,4.9866 h -59.25327 v -197.1197 h 47.22662 c 2.63999,0 4.98666,2.3466 4.98666,5.2799 v 28.7467 h 4.10666 v -28.7467 c 0,-5.2799 -4.10666,-9.3866 -9.09332,-9.3866 h -81.83991 c -5.28,0 -9.38666,4.1067 -9.38666,9.3866 v 186.8532 c 0,4.9866 4.10666,9.0933 9.38666,9.0933 h 93.86656 c 4.98666,0 9.38665,-4.1067 9.38665,-9.0933 v -91.5199 c 0,-4.9867 -4.39999,-9.3867 -9.38665,-9.3867 z m -63.0666,105.8932 h -7.03999 v -197.1197 h 7.03999 z m 128.47997,-25.2266 h -13.4933 c -1.4667,0 -2.64,1.1733 -2.64,2.64 v 24.0533 c 0,1.4667 1.1733,2.64 2.64,2.64 h 13.4933 c 1.4667,0 2.64,-1.1733 2.64,-2.64 v -24.0533 c 0,-1.4667 -1.1733,-2.64 -2.64,-2.64 z"
       id="text5"
       transform="matrix(0.26458333,0,0,0.26458333,584.56449,72.088655)"
       aria-label="The quick brown fox jumped over the lazy dog." />
  </g>
</svg>
