<?xml version="1.0" encoding="UTF-8" standalone="no"?>
<!-- Created with Inkscape (http://www.inkscape.org/) -->

<svg
   width="2000.0001"
   height="2000.0001"
   viewBox="0 0 529.1667 529.1667"
   version="1.1"
   id="svg1"
   xmlns="http://www.w3.org/2000/svg"
   xmlns:svg="http://www.w3.org/2000/svg">
  <defs
     id="defs1" />
  <g
     id="layer1"
     transform="translate(-1283.6571,90.227848)">
    <rect
       style="fill:#462bfb;fill-opacity:1;stroke-width:0.252771"
       id="rect1-68"
       width="529.16669"
       height="529.16669"
       x="1283.6571"
       y="-90.227852" />
  </g>
  <g
     id="layer2"
     transform="translate(-1617.5002)">
    <path
       style="font-size:1600px;line-height:1;font-family:Saigo;-inkscape-font-specification:Saigo;text-align:center;text-anchor:middle;white-space:pre;fill:#ffffff"
       d="M 1117.6448,1257.6 V 211.2 c 0,-28.8 -24,-51.2 -51.2,-51.2 H 554.44476 c -28.8,0 -51.2,22.4 -51.2,51.2 v 1046.4 h -67.2 v 22.4 h 376 v -22.4 h -68.8 V 702.4 h 352.00004 v 555.2 h -83.2 v 22.4 h 188.8 v -22.4 z m -433.60004,0 V 182.4 h 36.8 v 1075.2 z m 59.2,-577.6 V 182.4 h 323.20004 c 16,0 28.8,12.8 28.8,28.8 V 680 Z"
       id="text5-6"
       transform="matrix(0.26458333,0,0,0.26458333,1665.5367,74.083507)"
       aria-label="A" />
  </g>
</svg>
