<?xml version="1.0" encoding="UTF-8" standalone="no"?>
<!-- Created with Inkscape (http://www.inkscape.org/) -->

<svg
   width="2000.0001"
   height="2000.0001"
   viewBox="0 0 529.1667 529.1667"
   version="1.1"
   id="svg1"
   xmlns="http://www.w3.org/2000/svg"
   xmlns:svg="http://www.w3.org/2000/svg">
  <defs
     id="defs1" />
  <g
     id="layer1"
     transform="translate(-2361.9903,90.227848)">
    <rect
       style="fill:#462bfb;fill-opacity:1;stroke-width:0.252771"
       id="rect1-68-8"
       width="529.16669"
       height="529.16669"
       x="2361.9905"
       y="-90.227852" />
  </g>
  <g
     id="layer2"
     transform="translate(-2695.8334)">
    <path
       style="font-size:1600px;line-height:1;font-family:SAIGO;-inkscape-font-specification:SAIGO;white-space:pre;fill:#ffffff"
       d="m 745.01094,1132.8 c 0,0 -9.6,-9.6 -17.6,-24 -8,-14.4 -8,-38.4 -8,-38.4 V 211.2 c 0,-28.8 -24,-51.2 -51.2,-51.2 h -512 c -28.8,0 -51.2,22.4 -51.2,51.2 v 1019.2 c 0,27.2 22.4,49.6 51.2,49.6 h 512 c 27.2,0 51.2,-22.4 51.2,-49.6 h -22.4 c 0,14.4 -12.8,27.2 -28.8,27.2 h -323.2 V 182.4 h 323.2 c 16,0 28.8,12.8 28.8,28.8 v 859.2 c 0,1.6 0,28.8 11.2,49.6 9.6,16 22.4,28.8 22.4,28.8 l 142.4,128 16,-16 z m -422.4,124.8 h -36.8 V 182.4 h 36.8 z"
       id="text5-6-4-6"
       transform="matrix(0.26458333,0,0,0.26458333,2828.9157,74.083507)"
       aria-label="Q" />
  </g>
</svg>
