<?xml version="1.0" encoding="UTF-8" standalone="no"?>
<!-- Created with Inkscape (http://www.inkscape.org/) -->

<svg
   width="2000.0001"
   height="2000.0001"
   viewBox="0 0 529.1667 529.1667"
   version="1.1"
   id="svg1"
   xmlns="http://www.w3.org/2000/svg"
   xmlns:svg="http://www.w3.org/2000/svg">
  <defs
     id="defs1" />
  <g
     id="layer1"
     transform="translate(333.84304,90.227848)">
    <rect
       style="fill:#ffffff;stroke-width:0.252771"
       id="rect1"
       width="529.16669"
       height="529.16669"
       x="-333.84305"
       y="-90.227844" />
  </g>
  <g
     id="layer2">
    <path
       style="font-size:666.667px;line-height:1;font-family:SAIGO;-inkscape-font-specification:SAIGO;text-align:center;text-anchor:middle;white-space:pre;fill:#462bfb"
       d="M 265.4437,153.33341 V 88.000043 c 0,-12.000006 -9.33333,-21.333344 -21.33334,-21.333344 H 58.11027 c -11.333339,0 -20.666677,9.333338 -20.666677,21.333344 V 263.33346 c 0,11.33334 9.333338,21.33335 20.666677,21.33335 l 132.00006,6 V 524.00026 H 58.11027 c -6.000003,0 -11.333339,-5.33334 -11.333339,-11.33334 v -65.33337 h -9.333338 v 65.33337 c 0,11.33334 9.333338,20.66667 20.666677,20.66667 h 186.00009 c 12.00001,0 21.33334,-9.33333 21.33334,-20.66667 v -208.0001 c 0,-11.33334 -9.33333,-21.33335 -21.33334,-21.33335 L 137.44364,278.6668 V 76.000037 h 106.66672 c 6.66667,0 12.00001,5.333336 12.00001,12.000006 v 65.333367 z m -137.3334,125.33339 -16,-1.33333 V 76.000037 h 16 z M 622.11068,524.00026 V 88.000043 c 0,-12.000006 -10,-21.333344 -21.33334,-21.333344 H 387.4439 c -12.00001,0 -21.33334,9.333338 -21.33334,21.333344 V 524.00026 h -28.00002 v 9.33333 h 156.66675 v -9.33333 H 466.11061 V 292.66681 h 146.66673 v 231.33345 h -34.66668 v 9.33333 h 78.6667 v -9.33333 z m -180.66675,0 V 76.000037 h 15.33334 V 524.00026 Z M 466.11061,283.33347 V 76.000037 h 134.66673 c 6.66667,0 12,5.333336 12,12.000006 V 283.33347 Z M 886.11042,76.000037 V 66.666699 H 729.44368 v 9.333338 h 33.33335 V 524.00026 h -33.33335 v 9.33333 h 156.66674 v -9.33333 H 858.11041 V 76.000037 Z M 848.77707,524.00026 h -16 V 76.000037 h 16 z M 1218.111,283.33347 h -60.6667 c -11.3334,0 -20.6667,10.00001 -20.6667,21.33335 v 65.33336 h 8.6666 v -65.33336 c 0,-6.66667 5.3334,-12.00001 12.0001,-12.00001 h 60.6667 c 6.6666,0 12,5.33334 12,12.00001 v 208.0001 c 0,6 -5.3334,11.33334 -12,11.33334 H 1083.4442 V 76.000037 h 107.3334 c 6,0 11.3333,5.333336 11.3333,12.000006 v 65.333367 h 9.3334 V 88.000043 c 0,-12.000006 -9.3334,-21.333344 -20.6667,-21.333344 h -186.0001 c -11.99999,0 -21.33333,9.333338 -21.33333,21.333344 V 512.66692 c 0,11.33334 9.33334,20.66667 21.33333,20.66667 h 213.3335 c 11.3333,0 21.3333,-9.33333 21.3333,-20.66667 v -208.0001 c 0,-11.33334 -10,-21.33335 -21.3333,-21.33335 z m -143.3335,240.66679 h -16 V 76.000037 h 16 z M 1564.7781,66.666699 h -213.3335 c -11.3333,0 -21.3333,9.333338 -21.3333,21.333344 V 512.66692 c 0,11.33334 10,20.66667 21.3333,20.66667 h 213.3335 c 12,0 21.3333,-9.33333 21.3333,-20.66667 V 88.000043 c 0,-12.000006 -9.3333,-21.333344 -21.3333,-21.333344 z m -159.3334,9.333338 h 16 V 524.00026 h -16 z m 171.3334,436.666883 c 0,6 -5.3334,11.33334 -12,11.33334 H 1430.778 V 76.000037 h 134.0001 c 6.6666,0 12,5.333336 12,12.000006 z"
       id="text1"
       transform="matrix(0.26458333,0,0,0.26458333,49.800549,179.9167)"
       aria-label="SAIGO" />
  </g>
</svg>
