<?xml version="1.0" encoding="UTF-8" standalone="no"?>
<!-- Created with Inkscape (http://www.inkscape.org/) -->

<svg
   width="2000.0001"
   height="2000.0001"
   viewBox="0 0 529.1667 529.1667"
   version="1.1"
   id="svg1"
   xmlns="http://www.w3.org/2000/svg"
   xmlns:svg="http://www.w3.org/2000/svg">
  <defs
     id="defs1" />
  <g
     id="layer1"
     transform="translate(-744.49034,90.227848)">
    <rect
       style="fill:#462bfb;fill-opacity:1;stroke-width:0.252771"
       id="rect1-1"
       width="529.16669"
       height="529.16669"
       x="744.49036"
       y="-90.227852" />
  </g>
  <g
     id="layer2"
     transform="translate(-1078.3334)">
    <path
       style="font-size:293.333px;line-height:1;font-family:SAIGO;-inkscape-font-specification:SAIGO;text-align:center;text-anchor:middle;white-space:pre;fill:#ffffff"
       d="m 205.05117,29.333301 h -81.25324 c -4.98666,0 -9.09332,4.106662 -9.09332,9.386656 v 28.453302 h 3.81333 V 38.719957 c 0,-2.93333 2.34666,-5.279994 5.27999,-5.279994 H 181.2912 V 119.9732 h -9.09332 c -5.28,0 -9.38666,4.10666 -9.38666,9.09332 v 52.50661 h 4.10666 v -52.50661 c 0,-2.63999 2.34667,-4.98666 5.28,-4.98666 l 32.85329,0.29334 c 4.98667,0 9.09333,-4.10667 9.09333,-9.09333 V 38.719957 c 0,-5.279994 -4.10666,-9.386656 -9.09333,-9.386656 z M 173.07788,197.70645 h -17.30665 c -2.05333,0 -3.52,1.46666 -3.52,3.22666 v 30.50663 c 0,1.76 1.46667,3.22667 3.52,3.22667 h 17.30665 c 1.75999,0 3.22666,-1.46667 3.22666,-3.22667 v -30.50663 c 0,-1.76 -1.46667,-3.22666 -3.22666,-3.22666 z m -0.88,33.14663 h -15.83999 v -29.03997 h 15.83999 z M 252.27804,29.333301 V 184.21313 h 4.10666 v -25.81331 c 0,-2.63999 2.34666,-4.98666 4.98666,-4.98666 h 13.78665 0.88 c 4.98666,0 9.09333,-4.10666 9.09333,-9.38665 V 29.333301 Z m 0,170.426479 v 34.90663 h 32.8533 v -34.90663 z m 29.03997,30.79996 H 256.3847 v -26.6933 h 24.93331 z m 58.07995,-25.22663 h -13.49332 c -1.46666,0 -2.64,1.17333 -2.64,2.63999 v 24.05331 c 0,1.46666 1.17334,2.64 2.64,2.64 h 13.19999 v 21.41331 h 2.93333 V 207.9731 c 0,-1.46666 -1.17334,-2.63999 -2.64,-2.63999 z M 488.70467,143.73317 H 387.79811 v -4.10666 h 100.90656 z m 215.30659,0 H 528.59812 v -4.10666 h 175.41314 z m 50.16002,61.59994 h -13.49332 c -1.46667,0 -2.64,1.17333 -2.64,2.63999 v 24.05331 c 0,1.46666 1.17333,2.64 2.64,2.64 h 13.49332 c 1.46666,0 2.63999,-1.17334 2.63999,-2.64 V 207.9731 c 0,-1.46666 -1.17333,-2.63999 -2.63999,-2.63999 z m 58.6668,-102.66656 h -13.49331 c -1.46667,0 -2.64,1.17333 -2.64,2.64 v 24.05331 c 0,1.46666 1.17333,2.63999 2.64,2.63999 h 13.49331 c 1.46667,0 2.64,-1.17333 2.64,-2.63999 v -24.05331 c 0,-1.46667 -1.17333,-2.64 -2.64,-2.64 z m 0,67.46659 h -13.49331 c -1.46667,0 -2.64,1.17334 -2.64,2.64 v 24.05331 c 0,1.46666 1.17333,2.64 2.64,2.64 h 13.49331 c 1.46667,0 2.64,-1.17334 2.64,-2.64 v -24.05331 c 0,-1.46666 -1.17333,-2.64 -2.64,-2.64 z m 58.66681,-23.46664 h -13.49331 c -1.46667,0 -2.64,1.17334 -2.64,2.64 v 24.05331 c 0,1.46666 1.17333,2.63999 2.64,2.63999 h 13.49331 c 1.46667,0 2.64,-1.17333 2.64,-2.63999 V 149.3065 c 0,-1.46666 -1.17333,-2.64 -2.64,-2.64 z m 0,58.66661 h -13.49331 c -1.46667,0 -2.64,1.17333 -2.64,2.63999 v 24.05331 c 0,1.46666 1.17333,2.64 2.64,2.64 h 13.19998 v 21.41331 h 2.93333 V 207.9731 c 0,-1.46666 -1.17333,-2.63999 -2.64,-2.63999 z m 51.92015,-194.479789 0.88,2.93333 65.41326,244.346399 4.10667,-1.17334 -32.8533,-122.61319 c -0.88,-2.64 0.88,-5.57333 3.51999,-6.45333 l 13.19999,-3.22666 0.88,-0.29333 c 4.98666,-1.46667 7.91999,-6.45333 6.45333,-11.43999 L 955.39834,2.0533311 Z m 134.93296,238.773069 0.88,-2.93333 32.8533,-122.02653 32.8533,-123.199865 3.8133,1.1733321 -32.8532,122.9065329 c -0.88,2.93333 0.88,5.86666 3.5199,6.45332 l 13.2,3.52 0.88,0.29333 c 4.9867,1.17333 7.92,6.45333 6.7467,11.43999 l -29.92,110.87988 z M 1200.0375,29.626634 h -12.9066 V 8.2133242 h -3.2267 V 56.026604 c 0,1.466666 1.1734,2.639998 2.64,2.639998 h 13.4933 c 1.4667,0 2.64,-1.173332 2.64,-2.639998 V 32.266631 c 0,-1.466665 -1.1733,-2.639997 -2.64,-2.639997 z m 58.6669,-21.4133098 h -13.4933 c -1.4667,0 -2.64,1.1733321 -2.64,2.6399968 v 23.759974 c 0,1.466665 1.1733,2.639997 2.64,2.639997 h 12.9067 v 21.41331 h 3.2266 V 10.853321 c 0,-1.4666647 -1.1733,-2.6399968 -2.64,-2.6399968 z m 58.6668,197.1197858 h -13.4934 c -1.4666,0 -2.6399,1.17333 -2.6399,2.63999 v 24.05331 c 0,1.46666 1.1733,2.64 2.6399,2.64 h 12.9067 v 21.11997 h 3.2267 V 207.9731 c 0,-1.46666 -1.1734,-2.63999 -2.64,-2.63999 z M 1362.5447,8.2133242 h 13.4933 c 1.4667,0 2.64,1.1733321 2.64,2.6399968 v 24.053307 c 0,1.466665 -1.1733,2.639997 -2.64,2.639997 h -12.9066 v 21.119977 h -3.2267 V 10.853321 c 0,-1.4666647 1.1734,-2.6399968 2.64,-2.6399968 z m 72.1602,21.4133098 h -12.9066 V 8.2133242 h -3.2267 V 56.026604 c 0,1.466666 1.1733,2.639998 2.64,2.639998 h 13.4933 c 1.4667,0 2.64,-1.173332 2.64,-2.639998 V 32.266631 c 0,-1.466665 -1.1733,-2.639997 -2.64,-2.639997 z m 25.2266,0 h -12.9066 V 8.2133242 h -3.2267 V 56.026604 c 0,1.466666 1.1734,2.639998 2.64,2.639998 h 13.4933 c 1.4667,0 2.64,-1.173332 2.64,-2.639998 V 32.266631 c 0,-1.466665 -1.1733,-2.639997 -2.64,-2.639997 z M 1518.598,8.2133242 h -13.4933 c -1.4667,0 -2.64,1.1733321 -2.64,2.6399968 v 24.053307 c 0,1.466665 1.1733,2.639997 2.64,2.639997 h 12.9066 v 21.119977 h 3.2267 V 10.853321 c 0,-1.4666647 -1.1734,-2.6399968 -2.64,-2.6399968 z m 25.2266,0 h -13.4933 c -1.4667,0 -2.64,1.1733321 -2.64,2.6399968 v 24.053307 c 0,1.466665 1.1733,2.639997 2.64,2.639997 h 12.9066 v 21.119977 h 3.2267 V 10.853321 c 0,-1.4666647 -1.1733,-2.6399968 -2.64,-2.6399968 z m 58.6663,197.1197858 h -13.4933 c -1.4667,0 -2.64,1.17333 -2.64,2.63999 v 24.05331 c 0,1.46666 1.1733,2.64 2.64,2.64 h 12.9067 v 21.11997 h 3.2266 V 207.9731 c 0,-1.46666 -1.1733,-2.63999 -2.64,-2.63999 z m 25.2267,0 h -13.4934 c -1.4666,0 -2.64,1.17333 -2.64,2.63999 v 24.05331 c 0,1.46666 1.1734,2.64 2.64,2.64 h 12.9067 v 21.11997 h 3.2267 V 207.9731 c 0,-1.46666 -1.1734,-2.63999 -2.64,-2.63999 z M 312.70507,327.10292 h -93.86656 c -5.28,0 -9.38666,4.4 -9.38666,9.38666 v 186.85313 c 0,4.98666 4.10666,9.09332 9.38666,9.09332 h 93.86656 c 5.27999,0 9.38665,-4.10666 9.38665,-9.09332 V 336.48958 c 0,-4.98666 -4.10666,-9.38666 -9.38665,-9.38666 z m 5.27999,196.23979 c 0,2.93333 -2.34666,5.27999 -5.27999,5.27999 H 242.59848 V 331.20959 h 70.10659 c 2.93333,0 5.27999,2.34666 5.27999,5.27999 z m 107.65335,4.98666 V 336.48958 c 0,-3.81333 -1.46667,-6.74666 -3.81333,-8.21332 -2.34667,-1.17334 -4.98666,-1.17334 -7.62666,0.29333 -0.88,0.58666 -2.34666,1.46666 -29.91997,34.90663 -5.86666,6.74666 -14.07998,16.71998 -22.29331,26.98663 l 3.22667,2.64 c 8.21332,-10.26665 16.42665,-20.23998 22.29331,-26.98664 1.75999,-2.34666 3.51999,-4.39999 4.98666,-6.45332 v 168.66648 h -12.90666 v 4.10666 h 57.49327 v -4.10666 z M 562.03832,423.02282 c 5.27999,0 9.38666,-4.10666 9.38666,-9.38666 v -77.14658 c 0,-4.98666 -4.10667,-9.38666 -9.38666,-9.38666 h -81.83991 c -4.98666,0 -9.09332,4.4 -9.09332,9.38666 v 28.74663 h 4.10666 v -28.74663 c 0,-2.93333 2.34666,-5.27999 4.98666,-5.27999 h 58.07994 v 88.8799 l -58.07994,2.63999 c -4.98666,0 -9.09332,4.10667 -9.09332,9.09333 v 91.5199 c 0,4.98666 4.10666,9.09332 9.09332,9.09332 h 81.83991 c 5.27999,0 9.38666,-4.10666 9.38666,-9.09332 v -28.74664 h -4.10667 v 28.74664 c 0,2.93333 -2.34666,5.27999 -5.27999,5.27999 H 503.95838 V 425.66281 Z m 128.7731,-95.9199 h -81.83991 c -4.98666,0 -9.38666,4.10667 -9.38666,9.09333 v 37.25329 h 4.10667 v -37.25329 c 0,-2.93333 2.34666,-4.98666 5.27999,-4.98666 h 58.07994 v 91.22656 h -35.78663 v -12.31999 h -4.10666 v 28.74664 h 4.10666 v -12.31999 h 35.78663 v 101.78656 h -58.07994 c -2.93333,0 -5.27999,-2.34667 -5.27999,-5.28 v -28.74663 h -4.10667 v 28.74663 c 0,5.28 4.4,9.38666 9.38666,9.38666 h 81.83991 c 4.98666,0 9.09332,-4.10666 9.09332,-9.38666 V 336.19625 c 0,-4.98666 -4.10666,-9.09333 -9.09332,-9.09333 z m 134.34643,201.22645 v -82.42658 h 11.43998 v -4.10666 H 825.15785 V 336.48958 c 0,-3.81333 -1.46667,-6.74666 -3.81333,-8.21332 -2.34667,-1.17334 -4.98666,-1.17334 -7.62666,0.29333 -0.88,0.58666 -86.53324,103.83988 -86.53324,103.83988 -2.05333,2.34667 -2.64,5.57333 -1.46666,8.50666 1.17333,2.93333 4.10666,4.98666 7.33332,4.98666 h 58.95994 v 82.42658 h -12.90666 v 4.10666 h 57.49327 v -4.10666 z m -92.10657,-86.53324 c -1.76,0 -2.93333,-0.88 -3.51999,-2.64 -0.58667,-0.88 -0.58667,-2.63999 0.58666,-3.81333 l 61.89327,-74.79991 v 81.25324 z m 228.79978,-19.35998 h -58.07993 v -91.22656 h 65.11992 v -4.10667 h -88.8799 c -4.98666,0 -9.38665,4.10667 -9.38665,9.09333 v 80.95991 c 0,5.27999 4.39999,9.38665 9.38665,9.38665 h 58.07994 v 101.78656 h -58.07994 c -2.93333,0 -5.27999,-2.34667 -5.27999,-5.28 v -28.74663 h -4.10666 v 28.74663 c 0,5.28 4.39999,9.38666 9.38665,9.38666 h 81.83991 c 4.98666,0 9.09332,-4.10666 9.09332,-9.38666 v -91.5199 c 0,-4.98666 -4.10666,-9.09332 -9.09332,-9.09332 z m 128.47984,0 h -58.08 v -91.22656 h 58.08 c 2.9333,0 5.28,2.05333 5.28,4.98666 v 28.74663 h 3.8133 v -28.74663 c 0,-4.98666 -4.1067,-9.09333 -9.0933,-9.09333 h -81.84 c -4.9866,0 -9.38661,4.10667 -9.38661,9.09333 v 186.85312 c 0,5.28 4.40001,9.38666 9.38661,9.38666 h 81.84 c 4.9866,0 9.0933,-4.10666 9.0933,-9.38666 v -91.5199 c 0,-4.98666 -4.1067,-9.09332 -9.0933,-9.09332 z m 5.28,100.61322 c 0,2.93333 -2.3467,5.28 -5.28,5.28 h -58.08 V 426.54281 h 58.08 c 2.9333,0 5.28,2.34667 5.28,4.98666 z m 153.1197,-186.55979 c 0,-5.27999 -5.28,-9.38666 -10.2666,-9.38666 h -95.6266 c -5.28,0 -9.3866,4.4 -9.3866,9.38666 v 28.74663 h 4.1066 v -28.74663 c 0,-2.93333 2.3467,-5.27999 5.28,-5.27999 h 75.6799 l -63.9466,197.41311 h -12.0266 v 3.81333 h 57.4932 v -3.81333 h -11.4399 l 57.1999,-181.57313 c 0.88,-1.76 2.9333,-8.50666 2.9333,-10.55999 z m 144.613,86.2399 c 1.1733,-1.46666 1.76,-3.22666 1.76,-5.27999 v -80.95991 c 0,-4.98666 -4.1067,-9.38666 -9.3866,-9.38666 h -81.84 c -4.9866,0 -9.0933,4.4 -9.0933,9.38666 v 80.95991 c 0,2.05333 0.5867,3.81333 1.76,5.27999 -4.4,0.88 -7.92,4.69333 -7.92,9.09333 v 91.5199 c 0,4.98666 4.1067,9.09332 9.3867,9.09332 h 93.8665 c 4.9867,0 9.3867,-4.10666 9.3867,-9.09332 v -91.5199 c 0,-4.4 -3.52,-8.21333 -7.92,-9.09333 z m -2.3467,-86.2399 v 80.95991 c 0,2.93333 -2.3466,5.27999 -5.2799,5.27999 h -63.9466 v -91.51989 h 63.9466 c 2.9333,0 5.2799,2.34666 5.2799,5.27999 z m 6.16,186.85313 c 0,2.93333 -2.3466,5.27999 -5.28,5.27999 h -70.1065 V 426.83615 h 70.1065 c 2.9334,0 5.28,2.05333 5.28,4.98666 z m 129.3599,-196.23979 h -81.8399 c -4.9866,0 -9.3866,4.10667 -9.3866,9.09333 v 80.95991 c 0,5.27999 4.4,9.38665 9.3866,9.38665 h 87.1199 v 96.50656 c 0,2.93333 -2.3466,5.28 -5.28,5.28 h -81.8399 c -2.9333,0 -5.28,-2.34667 -5.28,-5.28 v -28.74663 h -4.1066 v 28.74663 c 0,5.28 4.4,9.38666 9.3866,9.38666 h 81.8399 c 4.9867,0 9.0934,-4.10666 9.0934,-9.38666 V 336.19625 c 0,-4.98666 -4.1067,-9.09333 -9.0934,-9.09333 z m 5.28,95.33323 h -63.3599 v -91.22656 h 58.0799 c 2.9334,0 5.28,2.05333 5.28,4.98666 z M 140.66523,826.09899 V 634.2592 c 0,-5.27999 -4.39999,-9.38665 -9.38666,-9.38665 H 37.412012 c -5.279995,0 -9.386657,4.10666 -9.386657,9.38665 V 826.09899 H 15.705369 v 4.10666 h 68.933257 v -4.10666 H 72.025306 V 724.31244 h 64.533264 v 101.78655 h -15.25332 v 4.10666 h 34.6133 v -4.10666 z m -79.493245,0 V 628.97921 h 6.746659 V 826.09899 Z M 72.025306,720.20577 v -91.22656 h 59.253264 c 2.93333,0 5.28,2.34666 5.28,5.27999 v 85.94657 z M 240.3983,608.73923 v -11.14665 c 0,-1.17334 -0.88,-2.05333 -2.05334,-2.05333 h -19.94664 c -1.17333,0 -2.34666,0.87999 -2.34666,2.05333 v 11.14665 c 0,1.17333 1.17333,2.05333 2.34666,2.05333 h 19.94664 c 1.17334,0 2.05334,-0.88 2.05334,-2.05333 z m 43.70661,0 v -11.14665 c 0,-1.17334 -1.17333,-2.05333 -2.34666,-2.05333 h -19.94664 c -1.17334,0 -2.05334,0.87999 -2.05334,2.05333 v 11.14665 c 0,1.17333 0.88,2.05333 2.05334,2.05333 h 19.94664 c 1.17333,0 2.34666,-0.88 2.34666,-2.05333 z m 20.82665,217.35976 V 634.2592 c 0,-5.27999 -4.4,-9.38665 -9.38666,-9.38665 h -93.86656 c -5.28,0 -9.38666,4.10666 -9.38666,9.38665 V 826.09899 H 179.9717 v 4.10666 h 68.93325 v -4.10666 H 236.29163 V 724.31244 h 64.53327 v 101.78655 h -15.25332 v 4.10666 h 34.61329 v -4.10666 z m -79.49325,0 V 628.97921 h 6.74666 v 197.11978 z m 10.85332,-105.89322 v -91.22656 h 59.25327 c 2.93333,0 5.28,2.34666 5.28,5.27999 v 85.94657 z m 219.1196,0 h -4.39999 c 0.88,-1.46666 1.46666,-3.22666 1.46666,-4.98666 V 634.2592 c 0,-5.27999 -4.10666,-9.38665 -9.09332,-9.38665 h -81.83991 c -4.98666,0 -9.38666,4.10666 -9.38666,9.38665 v 186.85313 c 0,4.98666 4.4,9.09332 9.38666,9.09332 h 93.86656 c 5.28,0 9.38666,-4.10666 9.38666,-9.09332 v -91.5199 c 0,-4.98666 -4.10666,-9.38666 -9.38666,-9.38666 z m -70.10659,-91.22656 h 7.04 v 197.11978 h -7.04 z m 63.35993,5.27999 v 80.95991 c 0,2.93333 -2.34666,4.98666 -5.27999,4.98666 H 396.4513 v -91.22656 h 46.93328 c 2.93333,0 5.27999,2.34666 5.27999,5.27999 z m 12.02666,186.85313 c 0,2.64 -2.34667,4.98666 -5.28,4.98666 H 396.4513 V 724.31244 h 58.95993 c 2.93333,0 5.28,2.34666 5.28,5.27999 z M 599.14454,663.00584 V 634.2592 c 0,-5.27999 -4.10666,-9.38665 -9.09333,-9.38665 H 508.2113 c -4.98666,0 -9.38665,4.10666 -9.38665,9.38665 v 186.85313 c 0,4.98666 4.39999,9.09332 9.38665,9.09332 h 81.83991 c 4.98667,0 9.09333,-4.10666 9.09333,-9.09332 v -28.74664 h -3.81333 v 28.74664 c 0,2.64 -2.34667,4.98666 -5.28,4.98666 H 543.11793 V 628.97921 h 46.93328 c 2.93333,0 5.28,2.34666 5.28,5.27999 v 28.74664 z m -60.13327,163.09315 h -7.03999 V 628.97921 h 7.03999 z m 206.79968,-185.67979 -9.09332,-9.38666 -94.1599,-6.15999 c -5.27999,0 -9.38665,4.10666 -9.38665,9.38665 v 186.85313 c 0,4.98666 4.10666,9.09332 9.38665,9.09332 l 93.86656,-5.86666 c 4.98667,0 9.38666,-4.39999 9.38666,-9.38665 z m -79.49324,-9.97333 6.74665,0.58667 v 193.30645 l -6.74665,0.29333 z m 75.38658,184.50647 c 0,2.93333 -2.34667,5.27999 -5.28,5.27999 l -59.25326,3.81333 V 631.32587 l 59.25326,3.81333 c 2.93333,0 5.28,2.34667 5.28,5.28 z M 880.15763,663.00584 V 634.2592 c 0,-5.27999 -4.10666,-9.38665 -9.09332,-9.38665 H 789.2244 c -4.98666,0 -9.38666,4.10666 -9.38666,9.38665 v 186.85313 c 0,4.98666 4.4,9.09332 9.38666,9.09332 h 81.83991 c 4.98666,0 9.09332,-4.10666 9.09332,-9.09332 v -28.74664 h -3.81333 v 28.74664 c 0,2.64 -2.34666,4.98666 -5.27999,4.98666 H 824.13102 V 724.31244 H 848.771 v 12.31998 h 4.10666 V 707.88579 H 848.771 v 12.31998 h -24.63998 v -91.22656 h 46.93329 c 2.93333,0 5.27999,2.34666 5.27999,5.27999 v 28.74664 z m -60.13327,163.09315 h -7.03999 V 628.97921 h 7.03999 z M 1009.8108,624.87255 h -81.83995 c -5.27999,0 -9.38666,4.10666 -9.38666,9.38665 v 191.83979 h -12.31998 v 4.10666 h 68.93325 v -4.10666 H 962.58414 V 724.31244 h 24.93331 v 12.31998 h 3.81333 v -28.74663 h -3.81333 v 12.31998 h -24.93331 v -91.22656 h 47.22666 c 2.64,0 4.9866,2.34666 4.9866,5.27999 v 28.74664 h 4.1067 V 634.2592 c 0,-5.27999 -4.1067,-9.38665 -9.0933,-9.38665 z m -51.33332,201.22644 h -6.74666 V 628.97921 h 6.74666 z M 1154.1304,720.20577 h -26.6933 c -4.9867,0 -9.0933,4.4 -9.0933,9.38666 v 28.74663 h 3.8133 v -28.74663 c 0,-2.93333 2.3467,-5.27999 5.28,-5.27999 h 26.6933 c 2.9333,0 5.28,2.34666 5.28,5.27999 v 91.5199 c 0,2.64 -2.3467,4.98666 -5.28,4.98666 h -59.2533 V 628.97921 h 47.2267 c 2.64,0 4.9866,2.34666 4.9866,5.27999 v 28.74664 h 4.1067 V 634.2592 c 0,-5.27999 -4.1067,-9.38665 -9.0933,-9.38665 h -81.84 c -5.2799,0 -9.3866,4.10666 -9.3866,9.38665 v 186.85313 c 0,4.98666 4.1067,9.09332 9.3866,9.09332 h 93.8666 c 4.9867,0 9.3867,-4.10666 9.3867,-9.09332 v -91.5199 c 0,-4.98666 -4.4,-9.38666 -9.3867,-9.38666 z m -63.0666,105.89322 h -7.04 V 628.97921 h 7.04 z m 244.6399,-197.11978 v -4.10666 h -34.6133 v 4.10666 h 15.2533 v 91.22656 h -64.2399 v -91.22656 h 12.32 v -4.10666 h -68.9333 v 4.10666 h 14.3733 v 197.11978 h -14.3733 v 4.10666 h 68.9333 v -4.10666 h -12.32 V 724.31244 h 64.2399 v 101.78655 h -15.2533 v 4.10666 h 34.6133 v -4.10666 h -15.2533 V 628.97921 Z m -94.7466,197.11978 V 628.97921 h 7.04 v 197.11978 z m 195.653,-197.11978 v -4.10666 h -68.9332 v 4.10666 h 14.6666 v 197.11978 h -14.6666 v 4.10666 h 68.9332 v -4.10666 h -12.32 V 628.97921 Z m -16.4266,197.11978 h -7.04 V 628.97921 h 7.04 z m 128.1866,-201.22644 h -68.9332 v 4.10666 h 14.6666 v 196.53311 c -4.4,0.58667 -9.3866,0.58667 -14.6666,0.58667 v 4.10666 c 53.9733,0 56.6133,-21.99997 56.6133,-58.37327 V 628.97921 h 12.3199 z m -16.4266,146.95983 c 0,17.59998 -0.5867,30.79997 -7.04,39.89329 V 628.97921 h 7.04 z m 176.2933,54.26661 v -96.50656 c 0,-4.98666 -4.1067,-9.38666 -9.0934,-9.38666 h -4.6933 c 1.1733,-1.46666 1.76,-3.22666 1.76,-4.98666 v -86.2399 h 15.2533 v -4.10666 h -34.6133 v 4.10666 h 15.2533 v 86.2399 c 0,2.93333 -2.3466,4.98666 -5.2799,4.98666 h -46.9333 v -91.22656 h 12.32 v -4.10666 h -68.9333 v 4.10666 h 14.6667 v 197.11978 h -14.6667 v 4.10666 h 68.9333 v -4.10666 h -12.32 V 724.31244 h 59.2532 c 2.64,0 4.9867,2.34666 4.9867,5.27999 v 96.50656 h -15.2533 v 4.10666 h 34.6133 v -4.10666 z m -79.4933,-197.11978 h 7.04 v 197.11978 h -7.04 z M 187.15836,1090.1353 v 28.7466 c 0,2.64 -2.34667,4.9867 -5.28,4.9867 H 134.94508 V 926.7488 h 12.61332 v -4.10666 H 78.625145 v 4.10666 h 12.319986 v 192.1331 c 0,4.9867 4.106662,9.0933 9.386659,9.0933 h 81.54657 c 5.28,0 9.38666,-4.1066 9.38666,-9.0933 v -28.7466 z m -56.02661,33.7333 h -7.03999 V 926.7488 h 7.03999 z m 282.77296,0 V 938.18879 c 0,-5.28 -4.10666,-9.38666 -9.09332,-9.38666 l -162.79982,-6.15999 c -4.98666,0 -9.38666,4.10666 -9.38666,9.38665 v 191.83981 h -12.31999 v 4.1066 h 68.93326 v -4.1066 H 276.91819 V 928.21547 l 64.23993,2.34666 v 193.30647 h -15.25331 v 4.1066 h 34.61329 v -4.1066 H 345.26479 V 930.56213 l 59.5466,2.34666 c 2.63999,0 4.98666,2.34667 4.98666,5.28 v 185.67981 h -15.25332 v 4.1066 h 34.6133 v -4.1066 z m -141.09318,0 h -7.03999 V 927.6288 l 7.03999,0.29333 z m 305.35984,0 V 938.18879 c 0,-5.28 -4.10666,-9.38666 -9.09332,-9.38666 l -94.1599,-6.15999 c -4.98666,0 -9.09332,4.10666 -9.09332,9.38665 v 191.83981 h -12.61332 v 4.1066 h 68.93326 v -4.1066 H 509.82478 V 929.09546 l 59.25327,3.81333 c 2.63999,0 4.98666,2.34667 4.98666,5.28 v 185.67981 h -15.25332 v 4.1066 h 34.6133 v -4.1066 z m -72.45325,0 h -7.03999 V 928.21547 l 7.03999,0.58666 z m 222.9329,-201.22646 h -93.86657 c -4.98666,0 -9.38665,4.10666 -9.38665,9.38665 v 186.85311 c 0,4.9867 4.39999,9.0933 9.38665,9.0933 h 93.86657 c 5.27999,0 9.38665,-4.1066 9.38665,-9.0933 V 932.02879 c 0,-5.27999 -4.10666,-9.38665 -9.38665,-9.38665 z m -70.10659,4.10666 h 7.03999 v 197.1198 h -7.03999 z m 75.38658,192.1331 c 0,2.64 -2.34666,4.9867 -5.27999,4.9867 H 669.69108 V 926.7488 h 58.95994 c 2.93333,0 5.27999,2.34666 5.27999,5.27999 z m 90.64006,-212.37308 v -11.14665 c 0,-1.17333 -0.88,-2.05333 -2.05333,-2.05333 h -19.94665 c -1.17333,0 -2.34666,0.88 -2.34666,2.05333 v 11.14665 c 0,1.17334 1.17333,2.05333 2.34666,2.05333 h 19.94665 c 1.17333,0 2.05333,-0.87999 2.05333,-2.05333 z m 43.70662,0 v -11.14665 c 0,-1.17333 -1.17333,-2.05333 -2.34667,-2.05333 h -19.94664 c -1.17333,0 -2.05333,0.88 -2.05333,2.05333 v 11.14665 c 0,1.17334 0.88,2.05333 2.05333,2.05333 h 19.94664 c 1.17334,0 2.34667,-0.87999 2.34667,-2.05333 z m 12.90665,16.13332 h -93.86656 c -4.98666,0 -9.38666,4.10666 -9.38666,9.38665 v 186.85311 c 0,4.9867 4.4,9.0933 9.38666,9.0933 h 93.86656 c 5.28,0 9.38666,-4.1066 9.38666,-9.0933 V 932.02879 c 0,-5.27999 -4.10666,-9.38665 -9.38666,-9.38665 z m -70.10659,4.10666 h 7.03999 v 197.1198 h -7.03999 z m 75.38659,192.1331 c 0,2.64 -2.34667,4.9867 -5.28,4.9867 H 822.22441 V 926.7488 h 58.95993 c 2.93333,0 5.28,2.34666 5.28,5.27999 z M 1026.091,922.64214 h -81.8399 c -4.98666,0 -9.09332,4.10666 -9.09332,9.38665 v 191.83981 h -12.61332 v 4.1066 h 68.93325 v -4.1066 H 979.15773 V 1022.082 h 46.93327 c 4.9867,0 9.3867,-4.1066 9.3867,-9.0933 v -80.95991 c 0,-5.27999 -4.4,-9.38665 -9.3867,-9.38665 z M 968.01107,1123.8686 V 926.7488 h 7.03999 v 197.1198 z m 63.35993,-110.8799 c 0,2.9333 -2.3467,4.9867 -5.28,4.9867 h -46.93327 v -91.2266 h 46.93327 c 2.9333,0 5.28,2.34666 5.28,5.27999 z m 161.333,87.9999 c 0,0 -1.76,-1.76 -3.2267,-4.4 -1.4667,-2.64 -1.4667,-7.04 -1.4667,-7.04 V 932.02879 c 0,-5.27999 -4.4,-9.38665 -9.3866,-9.38665 h -93.8666 c -5.28,0 -9.3866,4.10666 -9.3866,9.38665 v 186.85311 c 0,4.9867 4.1066,9.0933 9.3866,9.0933 h 93.8666 c 4.9866,0 9.3866,-4.1066 9.3866,-9.0933 h -4.1066 c 0,2.64 -2.3467,4.9867 -5.28,4.9867 h -59.2533 V 926.7488 h 59.2533 c 2.9333,0 5.28,2.34666 5.28,5.27999 v 157.51981 c 0,0.2934 0,5.28 2.0533,9.0933 1.76,2.9334 4.1067,5.28 4.1067,5.28 l 26.1066,23.4667 2.9333,-2.9334 z m -77.44,22.88 h -6.7466 V 926.7488 h 6.7466 z m 249.0399,0 v -96.5066 c 0,-4.9866 -4.4,-9.3866 -9.3867,-9.3866 h -4.4 c 0.88,-1.4667 1.4667,-3.2267 1.4667,-4.9867 v -80.95991 c 0,-5.27999 -4.1067,-9.38665 -9.0933,-9.38665 h -81.8399 c -5.28,0 -9.3867,4.10666 -9.3867,9.38665 v 191.83981 h -12.32 v 4.1066 h 68.9333 v -4.1066 H 1295.664 V 1022.082 h 59.2532 c 2.9334,0 5.28,2.3467 5.28,5.28 v 96.5066 h -15.2533 v 4.1066 h 34.6133 v -4.1066 z m -79.4933,0 V 926.7488 h 6.7467 v 197.1198 z m 63.0666,-191.83981 v 80.95991 c 0,2.9333 -2.3466,4.9867 -4.9866,4.9867 h -47.2266 v -91.2266 h 47.2266 c 2.64,0 4.9866,2.34666 4.9866,5.27999 z m 158.1064,28.74664 v -28.74664 c 0,-5.27999 -4.1067,-9.38665 -9.3867,-9.38665 h -81.8399 c -4.9866,0 -9.0933,4.10666 -9.0933,9.38665 v 77.14661 c 0,4.9866 4.1067,9.3866 9.0933,9.3866 l 58.08,2.64 v 102.6666 h -58.08 c -2.64,0 -4.9866,-2.3467 -4.9866,-4.9867 v -28.7466 h -4.1067 v 28.7466 c 0,4.9867 4.1067,9.0933 9.0933,9.0933 h 81.8399 c 5.28,0 9.3867,-4.1066 9.3867,-9.0933 v -91.5199 c 0,-4.9866 -4.1067,-9.3866 -9.3867,-9.3866 l -46.9332,-2.0534 v -89.1732 h 46.9332 c 2.9334,0 5.28,2.34666 5.28,5.27999 v 28.74664 z m -60.4266,55.14657 -7.04,-0.5866 v -88.5866 h 7.04 z m 202.9863,-93.27986 h -106.1865 c -4.9867,0 -9.0934,4.10666 -9.0934,9.38665 v 28.74664 h 4.1067 v -28.74664 c 0,-2.93333 2.0533,-5.27999 4.9867,-5.27999 h 33.1466 v 197.1198 h -14.3733 v 4.1066 h 68.9332 v -4.1066 H 1617.45 V 926.7488 h 31.0933 c 2.9333,0 5.28,2.34666 5.28,5.27999 v 28.74664 h 4.1067 v -28.74664 c 0,-5.27999 -4.1067,-9.38665 -9.3867,-9.38665 z m -35.1999,201.22646 h -6.7467 V 926.7488 h 6.7467 z m -1210.43846,96.5432 h -34.61329 v 4.1067 h 15.25331 v 192.1331 c 0,2.64 -2.34666,4.9866 -5.27999,4.9866 H 319.0117 v -197.1197 h 12.61332 v -4.1067 h -68.93326 v 4.1067 h 12.31999 v 192.1331 c 0,4.9866 4.10666,9.0933 9.38666,9.0933 h 93.86656 c 4.98666,0 9.38666,-4.1067 9.38666,-9.0933 v -192.1331 h 15.25331 z m -87.9999,201.2264 h -6.74666 v -197.1197 h 6.74666 z m 172.47965,-217.3597 v -11.1467 c 0,-1.1733 -0.88,-2.0533 -2.05333,-2.0533 h -19.94665 c -1.17333,0 -2.34666,0.88 -2.34666,2.0533 v 11.1467 c 0,1.1733 1.17333,2.0533 2.34666,2.0533 h 19.94665 c 1.17333,0 2.05333,-0.88 2.05333,-2.0533 z m 43.70662,0 v -11.1467 c 0,-1.1733 -1.17333,-2.0533 -2.34667,-2.0533 H 508.798 c -1.17333,0 -2.05333,0.88 -2.05333,2.0533 v 11.1467 c 0,1.1733 0.88,2.0533 2.05333,2.0533 h 19.94664 c 1.17334,0 2.34667,-0.88 2.34667,-2.0533 z m 36.07996,16.1333 h -34.6133 v 4.1067 h 15.25332 v 192.1331 c 0,2.64 -2.34666,4.9866 -5.27999,4.9866 h -59.25327 v -197.1197 h 12.61332 v -4.1067 h -68.93326 v 4.1067 h 12.31999 v 192.1331 c 0,4.9866 4.10666,9.0933 9.38665,9.0933 h 93.86657 c 4.98666,0 9.38665,-4.1067 9.38665,-9.0933 v -192.1331 h 15.25332 z m -87.9999,201.2264 h -6.74666 v -197.1197 h 6.74666 z m 250.79956,-201.2264 h -34.61329 v 4.1067 h 16.13331 l -60.13327,191.5464 c -1.17333,3.2267 -2.05333,4.6933 -3.51999,5.28 v -196.8264 h 12.61332 v -4.1067 h -69.22659 v 4.1067 h 12.61332 l 6.15999,192.1331 c 0,4.9866 4.10666,9.0933 9.09332,9.0933 h 26.98664 c 5.57333,0 7.91999,-4.4 9.09332,-8.5067 l 60.71994,-192.7197 h 14.07998 z m -86.2399,201.2264 h -7.04 v -197.1197 h 7.04 z m 319.14642,-201.2264 h -34.6133 v 4.1067 h 15.25332 v 185.9731 c 0,2.9333 -2.34667,5.28 -5.28,5.28 l -59.25326,2.0533 v -193.3064 h 15.25331 v -4.1067 h -34.61329 v 4.1067 h 15.25331 v 193.5997 l -64.23993,2.3467 v -195.9464 h 12.31999 v -4.1067 h -68.93326 v 4.1067 h 12.31999 v 192.1331 c 0,4.9866 4.4,9.0933 9.38666,9.0933 l 162.79982,-5.8667 c 4.98666,0 9.09332,-4.4 9.09332,-9.3866 v -185.9731 h 15.25332 z m -156.3465,200.3464 h -7.03999 v -196.2397 h 7.03999 z m 321.78645,-196.2397 h 15.84 v -4.1067 h -34.6133 v 4.1067 h 14.08 l -39.6,89.4665 -39.8933,-89.4665 h 11.7334 v -4.1067 h -68.9333 v 4.1067 h 12.31999 l 41.94661,94.4532 -42.23995,102.6665 H 986.9309 v 4.1067 h 68.9333 v -4.1067 h -11.7334 l 39.8933,-97.3865 39.8933,97.3865 h -14.3733 v 4.1067 h 34.6133 v -4.1067 h -15.84 l -42.2399,-102.6665 z m -88.5866,197.1197 h -6.7466 l 41.9466,-102.6665 -41.9466,-94.4532 h 6.7466 l 41.9467,94.4532 z m 269.8664,-197.1197 h 15.84 v -4.1067 h -34.6133 v 4.1067 h 14.08 l -39.6,89.4665 -39.8933,-89.4665 h 11.7333 v -4.1067 h -68.9332 v 4.1067 h 12.32 l 44.8799,100.9065 v 96.2132 h -13.7866 v 4.1067 h 69.2266 v -4.1067 h -13.4934 v -102.0799 z m -53.3866,197.1197 v -102.6665 l -41.9466,-94.4532 h 6.7466 l 42.24,95.0398 v 102.0799 z m 214.1331,-4.9866 c 0,2.64 -2.3467,4.9866 -5.28,4.9866 h -71.2799 l 77.1465,-180.9864 c 0.88,-2.0534 3.52,-8.8 3.52,-10.8534 0,-5.2799 -4.1066,-9.3866 -9.3866,-9.3866 h -104.1332 c -4.9867,0 -9.0934,4.1067 -9.0934,9.3866 v 28.7467 h 4.1067 v -28.7467 c 0,-2.9333 2.3467,-5.2799 4.9867,-5.2799 h 71.2799 l -77.1466,181.2798 c -0.88,2.0533 -3.52,8.5066 -3.52,10.8533 0,4.9866 4.4,9.0933 9.3867,9.0933 h 104.1332 c 4.9866,0 9.3866,-4.1067 9.3866,-9.0933 v -28.7467 h -4.1066 z m -114.6932,0 c 0,-1.1734 1.76,-5.5734 3.2266,-9.3867 l 77.7333,-182.7464 h 7.04 l -84.1866,197.1197 c -2.0533,-0.5866 -3.8133,-2.64 -3.8133,-4.9866 z"
       id="text13"
       transform="matrix(0.26458333,0,0,0.26458333,1112.8357,75.775152)"
       aria-label="?!,-–.:;\/‘’‚‛“”„&#10;0123456789&#10;AÄBCDEFGHIJKLMNOÖPQRSTUÜVWXYZ" />
  </g>
</svg>
